<?xml version="1.0" encoding="utf-8"?>
<!-- Generator: Adobe Illustrator 23.0.0, SVG Export Plug-In . SVG Version: 6.00 Build 0)  -->
<svg version="1.1" id="Layer_1" xmlns="http://www.w3.org/2000/svg" xmlns:xlink="http://www.w3.org/1999/xlink" x="0px" y="0px"
	 viewBox="0 0 209 207" style="enable-background:new 0 0 209 207;" xml:space="preserve">
<style type="text/css">
	.st0{fill:#FFFFFF;}
</style>
<g>
	<path class="st0" d="M209,207c-69.67,0-139.33,0-209,0C0,138,0,69,0,0c69.67,0,139.33,0,209,0C209,69,209,138,209,207z
		 M57.58,145.56c5.74-1.03,7.68,0.09,11.16,3.73c2.28,2.39,5.27,4.56,8.35,5.63c5.76,1.98,12.51-1.07,13.93-5.52
		c1.41-4.4-1.26-7.79-8.19-10.62c-2.76-1.13-5.8-2.04-7.98-3.9c-1.28-1.1-1.91-4.1-1.42-5.85c0.66-2.38,2.38-3.44,5.78-2.49
		c3.94,1.1,8.59,0.92,12.65,0.02c4.53-1.01,6.79-6.33,5.43-10.35c-1.18-3.5-6.26-6.14-10.27-5.19c-0.78,0.19-1.4,1.07-2.1,1.63
		c0.58,0.68,1.03,1.62,1.77,1.97c0.85,0.4,2.1,0,2.91,0.44c1.49,0.8,4.07,2.27,3.91,2.93c-0.43,1.83-1.83,4.6-3.19,4.82
		c-3.41,0.54-7.35,0.72-10.47-0.51c-3.93-1.55-7.41-2.56-11.47-1c-1.68,0.65-3.54,0.95-5.34,1.18c-5.38,0.68-8.87-1.22-10.48-5.55
		c-1.77-4.75,0.18-8.38,4.08-10.61c4.14-2.37,8.59-4.86,13.18-5.65c9.11-1.55,14.54-6.7,17.82-14.82
		c3.62-8.95,10.55-13.69,19.66-16.03c15.34-3.94,30.97-4.53,46.6-3.58c5,0.31,10.11,2.72,14.67,5.12c2.93,1.55,4.86,4.92,7.42,7.28
		c0.81,0.75,2.21,0.86,3.34,1.26c-0.09-1.18,0.26-2.68-0.33-3.5c-6.03-8.33-13.68-14.07-24.43-14.33c-5.66-0.14-11.33-0.14-16.99,0
		c-4.37,0.11-4.45-2.81-3.11-5.19c0.85-1.52,3.65-2.71,5.6-2.74c15.49-0.22,31,0.05,46.49-0.2c7.17-0.11,14.04-1.59,17.5-9.15
		c5.62-12.26,0.13-27.72-12.28-32.84C187,9.95,181.51,8.82,176.33,8.8c-37.32-0.15-74.65-0.04-111.97,0.3
		c-9.47,0.09-19.02,0.97-27.49,6.03c-10.72,6.4-13.64,23.83-5.38,32.28c4.47,4.57,10.22,5.9,16.43,5.94
		c16.82,0.1,33.65,0.37,50.47,0.35c4.11-0.01,7.49,1.49,7.59,5.33c0.07,2.7-1.96,7.06-4.16,7.94c-9.75,3.93-15.48,11.17-19.41,20.36
		c-2.14,4.99-6.02,7.25-11.16,8.93c-6.67,2.18-13.24,5.21-19.17,8.95c-4.72,2.98-5,8.3-3.04,13.49c1.87,4.94,5.63,7.37,10.72,7.5
		c3.41,0.09,6.84-0.45,10.25-0.71c-2.68,8.55-1.12,11.81,7.3,15.39c2.75,1.17,5.58,2.2,8.15,3.68c2.79,1.6,2.45,3.6,0.01,5.47
		c-3.76,2.87-9.4,1.93-12.99-1.97c-2-2.17-4.05-5-6.6-5.76c-3.17-0.94-7.23-0.87-10.23,0.4c-1.4,0.59-1.2,4.99-1.73,7.66
		c0.43,0.86-0.17,1.49-0.9,1.76c-9.24,3.44-9.35,15.6-0.66,20.65c3.88,2.26,8.71,4.09,13.09,4.05c9.6-0.08,19.2-1.4,28.78-2.36
		c12.17-1.22,23.87-0.59,34.54,6.5c6.29,4.17,13.35,3.51,20.27,1.69c0.97-0.25,1.61-1.77,2.4-2.7c-0.24-0.37-0.48-0.75-0.72-1.12
		c-1.74,0.23-3.5,0.76-5.21,0.62c-4.87-0.4-10.55,0.35-14.4-1.92c-11.38-6.72-23.25-8.32-36.01-6.97
		c-10.06,1.07-20.17,2.26-30.25,2.25c-4.08,0-8.68-2.34-12.1-4.88c-4.59-3.4-3.73-9.11,1.37-11.75
		C58.8,153.77,60.82,150.82,57.58,145.56z M135.88,159.88c2.65-1.13,5.99-1.6,7.82-3.51c6.99-7.34,13.57-15.09,20.07-22.87
		c0.81-0.97,0.99-3.71,0.24-4.56c-6.36-7.29-14.27-11.45-24.23-10.07c-9.47,1.31-16.11,6.72-20.29,15.17
		C114.47,144.17,122.16,159.85,135.88,159.88z M104.17,75.57c0,0.66,0,1.32,0,1.98c1.2,0,2.4,0.02,3.6,0
		c8.65-0.15,17.3-0.58,25.93-0.37c6.25,0.15,7.53,1.83,7.28,8.05c-0.22,5.32-0.74,10.62-1.18,15.92c-0.28,3.35,1.25,5.66,4.4,6.28
		c6.23,1.23,12.53,2.08,18.8,3.09c-1.07-1.43-2.44-2.23-3.92-2.53c-3.41-0.69-6.87-1.16-10.32-1.67c-6.93-1.02-7.28-1.38-6.85-8.13
		c0.31-4.81,0.66-9.63,1.08-14.43c0.43-4.94-1.99-7.95-6.69-8.09C125.59,75.36,114.88,75.57,104.17,75.57z M122.81,100.98
		c0.08-0.82,0.16-1.63,0.24-2.45c-7.5-5.94-14.23-13.4-25.35-12.17c8.76,1.36,15.51,6.14,22.3,12.32c-2.16,0.56-3.43,1.1-4.73,1.18
		c-4.59,0.28-9.54,2-12.38-3.98c-0.74-1.56-3.31-2.25-5.4-3.56c-0.64,3.49-1.14,6.16-1.85,10.02
		C104.64,101.89,113.73,101.44,122.81,100.98z"/>
	<path d="M57.58,145.56c3.24,5.26,1.22,8.21-3.45,10.63c-5.11,2.64-5.97,8.35-1.37,11.75c3.43,2.54,8.02,4.88,12.1,4.88
		c10.09,0.01,20.19-1.19,30.25-2.25c12.76-1.35,24.64,0.25,36.01,6.97c3.85,2.27,9.53,1.52,14.4,1.92c1.71,0.14,3.47-0.39,5.21-0.62
		c0.24,0.37,0.48,0.75,0.72,1.12c-0.79,0.93-1.43,2.44-2.4,2.7c-6.92,1.82-13.99,2.48-20.27-1.69c-10.67-7.08-22.37-7.72-34.54-6.5
		c-9.58,0.96-19.18,2.28-28.78,2.36c-4.38,0.04-9.2-1.8-13.09-4.05c-8.69-5.05-8.58-17.21,0.66-20.65c0.73-0.27,1.33-0.9,0.9-1.76
		c0.53-2.67,0.33-7.07,1.73-7.66c2.99-1.26,7.05-1.34,10.23-0.4c2.55,0.76,4.6,3.59,6.6,5.76c3.6,3.9,9.23,4.84,12.99,1.97
		c2.44-1.87,2.78-3.87-0.01-5.47c-2.57-1.48-5.4-2.52-8.15-3.68c-8.42-3.58-9.98-6.84-7.3-15.38c-3.42,0.26-6.84,0.79-10.25,0.71
		c-5.09-0.13-8.85-2.55-10.72-7.5c-1.96-5.19-1.68-10.52,3.04-13.49c5.93-3.74,12.5-6.77,19.17-8.95c5.14-1.68,9.03-3.95,11.16-8.93
		c3.94-9.19,9.66-16.43,19.41-20.36c2.19-0.88,4.23-5.24,4.16-7.94c-0.1-3.84-3.48-5.34-7.59-5.33
		c-16.82,0.02-33.65-0.24-50.47-0.35c-6.21-0.04-11.96-1.37-16.43-5.94c-8.26-8.44-5.34-25.87,5.38-32.28
		c8.47-5.06,18.02-5.95,27.49-6.03c37.32-0.34,74.64-0.45,111.97-0.3c5.18,0.02,10.68,1.15,15.47,3.13
		c12.41,5.12,17.91,20.58,12.28,32.84c-3.47,7.55-10.33,9.04-17.5,9.15c-15.49,0.24-30.99-0.02-46.49,0.2
		c-1.95,0.03-4.75,1.22-5.6,2.74c-1.33,2.38-1.26,5.3,3.11,5.19c5.66-0.14,11.33-0.14,16.99,0c10.75,0.26,18.41,6.01,24.43,14.33
		c0.59,0.82,0.25,2.32,0.33,3.5c-1.13-0.4-2.53-0.51-3.34-1.26c-2.56-2.36-4.49-5.74-7.42-7.28c-4.56-2.4-9.67-4.82-14.67-5.12
		c-15.63-0.95-31.26-0.36-46.6,3.58c-9.11,2.34-16.05,7.08-19.66,16.03c-3.28,8.13-8.71,13.27-17.82,14.82
		c-4.6,0.78-9.04,3.28-13.18,5.65c-3.91,2.23-5.85,5.87-4.08,10.61c1.62,4.33,5.11,6.23,10.48,5.55c1.8-0.23,3.66-0.53,5.34-1.18
		c4.05-1.56,7.54-0.55,11.47,1c3.12,1.23,7.05,1.05,10.47,0.51c1.36-0.22,2.77-2.99,3.19-4.82c0.15-0.66-2.43-2.12-3.91-2.93
		c-0.81-0.44-2.06-0.04-2.91-0.44c-0.73-0.34-1.19-1.29-1.77-1.97c0.69-0.56,1.31-1.44,2.1-1.63c4.01-0.95,9.09,1.69,10.27,5.19
		c1.36,4.03-0.9,9.34-5.43,10.35c-4.06,0.9-8.71,1.09-12.65-0.02c-3.4-0.95-5.11,0.11-5.78,2.49c-0.49,1.75,0.14,4.76,1.42,5.85
		c2.18,1.87,5.23,2.77,7.98,3.9c6.92,2.83,9.59,6.22,8.19,10.62c-1.42,4.44-8.18,7.49-13.93,5.52c-3.09-1.06-6.07-3.24-8.35-5.63
		C65.26,145.65,63.32,144.53,57.58,145.56z M32.29,41.98c4.54,6.33,10.21,7.61,16.24,7.64c45.49,0.19,90.98,0.28,136.46,0.36
		c2.31,0,4.65-0.24,6.94-0.63c5.6-0.96,8.64-4.48,9.75-9.96c2.45-12.06-3.49-22.2-15.32-25.35c-3.97-1.06-8.19-1.61-12.3-1.62
		c-14.99-0.06-29.98,0.25-44.97,0.33c-21.49,0.12-42.99-0.16-64.47,0.41c-7.53,0.2-15.28,1.54-22.43,3.89
		c-9.63,3.16-13.47,12.91-10.31,22.55c4.29,0,8.52,0,12.73,0c0.2-13.96,4.37-17.95,18.18-17.94c17,0.02,33.99-0.04,50.99,0
		c20.49,0.06,40.98,0.09,61.47,0.36c7.59,0.1,11.36,4.8,11.09,12.96c-0.18,5.43-2.61,7.01-10.84,7.01c-45.66,0-91.31,0-136.97-0.01
		C36.78,41.98,35.04,41.98,32.29,41.98z M110.41,64.74c6.42-0.83,12.83-1.65,19.33-2.49c0.27-2.71,0.52-5.3,0.81-8.19
		c-7.1,0-14.2,0-21.12,0C109.75,57.62,110.06,61,110.41,64.74z M135.85,39.84c-1.02-3.64-1.92-6.82-2.79-10.01
		c-2.01-7.29-2.39-7.51-10.37-5.68c0.72,5.16,1.44,10.36,2.19,15.69C128.6,39.84,131.89,39.84,135.85,39.84z M66.24,40.02
		c2.8,0,4.92,0.18,6.98-0.07c1.28-0.15,3.28-0.69,3.57-1.53c1.64-4.76,2.87-9.67,4.65-16c-3.99,1.1-8.13,1.01-9.26,2.81
		C69.52,29.45,68.3,34.58,66.24,40.02z M110.45,39.81c0.43-5.48,0.84-10.67,1.35-17.26c-3.45,0.99-7.76,1.09-8.33,2.6
		c-1.7,4.49-1.92,9.53-2.77,14.66C104.13,39.81,106.91,39.81,110.45,39.81z M70.05,24.25c-0.31-0.57-0.62-1.13-0.93-1.7
		c-2.84,0.96-6.95,1.08-8.27,3.05c-2.76,4.12-4.04,9.23-5.93,13.93c0.26,0.42,0.52,0.84,0.78,1.27c3.06-0.9,7.47-0.87,8.89-2.92
		C67.31,33.96,68.32,28.86,70.05,24.25z M122.89,39.71c-0.66-4.68-1.01-8.99-2.01-13.15c-0.31-1.29-2.41-3.01-3.66-2.99
		c-1.3,0.02-3.46,1.77-3.68,3.03c-0.73,4.2-0.76,8.52-1.07,13.11C115.89,39.71,119.12,39.71,122.89,39.71z M101.59,22.44
		c-3.71,1.09-7.66,1.15-8.29,2.63c-1.93,4.54-2.58,9.62-3.75,14.59c3.59,0,6.33,0,9.14,0C99.59,34.3,100.44,29.27,101.59,22.44z
		 M91.51,22.3c-3.79,1.19-7.62,1.27-8.39,2.85c-2.16,4.45-3.07,9.51-4.53,14.54c3.43,0,6.15,0,8.95,0
		C88.77,34.3,89.93,29.21,91.51,22.3z M147.03,39.77c-1.42-3.92-2.71-7.47-3.99-11.03c-2.22-6.17-2.48-6.3-9.17-4.57
		c0.12,0.92,0.13,1.91,0.39,2.83c1.21,4.28,2.49,8.54,3.72,12.76C141.09,39.77,143.84,39.77,147.03,39.77z M47.43,40.59
		c1.98-0.77,4.87-0.99,5.61-2.36c2.39-4.46,3.99-9.33,5.96-14.21C49.19,24.04,44.71,30.18,47.43,40.59z M152.91,24.35
		c1.51,3.55,2.88,6.72,4.22,9.9c2.78,6.6,2.82,6.62,10.51,5.08c-1.63-3.49-3.54-6.81-4.74-10.37
		C161.22,24.02,158.11,22.72,152.91,24.35z M143.47,24.06c1.89,5.29,3.75,10.5,5.55,15.55c2.84,0,5.34,0,8.27,0
		c-1.7-3.99-3.46-7.39-4.61-10.98C151.25,24.14,148.45,22.85,143.47,24.06z M177.81,39.5c-1.85-3.81-3.89-7.24-5.2-10.92
		c-1.77-5-4.92-5.74-9.73-4.09c1.62,3.48,3.46,6.64,4.59,10.03C169.13,39.54,172.28,41.13,177.81,39.5z M180.3,40
		c4.88-2.97,5.45-5.92,2.74-11.64c-1.94-4.1-5.27-5.24-10.1-3.32C175.34,29.92,177.74,34.78,180.3,40z"/>
	<path d="M135.88,159.88c-13.72-0.03-21.41-15.71-16.38-25.86c4.18-8.44,10.82-13.86,20.29-15.17c9.96-1.38,17.86,2.78,24.23,10.07
		c0.75,0.86,0.57,3.59-0.24,4.56c-6.5,7.79-13.08,15.53-20.07,22.87C141.88,158.28,138.53,158.75,135.88,159.88z M163.33,131.65
		c-11.18-15.66-32.53-14.41-41.32,1.74c-3.98,7.31-1.93,16.58,4.73,21.44c3.78,2.76,12.42,3.49,15.07,0.67
		C149.2,147.67,156.26,139.54,163.33,131.65z"/>
	<path d="M104.17,75.57c10.71,0,21.43-0.22,32.13,0.1c4.7,0.14,7.12,3.15,6.69,8.09c-0.41,4.81-0.77,9.62-1.08,14.43
		c-0.43,6.74-0.09,7.11,6.85,8.13c3.45,0.51,6.91,0.98,10.32,1.67c1.48,0.3,2.85,1.1,3.92,2.53c-6.27-1.01-12.57-1.86-18.8-3.09
		c-3.16-0.62-4.68-2.93-4.4-6.28c0.44-5.3,0.96-10.61,1.18-15.92c0.26-6.21-1.03-7.9-7.28-8.05c-8.64-0.21-17.29,0.22-25.93,0.37
		c-1.2,0.02-2.4,0-3.6,0C104.17,76.89,104.17,76.23,104.17,75.57z"/>
	<path d="M122.81,100.98c-9.09,0.45-18.17,0.91-27.16,1.35c0.71-3.86,1.2-6.52,1.85-10.02c2.09,1.31,4.66,2,5.4,3.56
		c2.84,5.99,7.79,4.27,12.38,3.98c1.3-0.08,2.57-0.62,4.73-1.18c-6.79-6.18-13.55-10.96-22.3-12.32
		c11.11-1.23,17.85,6.23,25.35,12.17C122.97,99.35,122.89,100.16,122.81,100.98z"/>
	<path class="st0" d="M32.29,41.98c2.75,0,4.49,0,6.24,0c45.66,0,91.31,0.01,136.97,0.01c8.23,0,10.66-1.58,10.84-7.01
		c0.27-8.15-3.5-12.86-11.09-12.96c-20.49-0.26-40.98-0.3-61.47-0.36c-16.99-0.05-33.99,0.01-50.99,0
		c-13.81-0.01-17.98,3.99-18.18,17.94c-4.21,0-8.44,0-12.73,0c-3.16-9.64,0.68-19.39,10.31-22.55c7.15-2.35,14.9-3.69,22.43-3.89
		c21.48-0.57,42.98-0.29,64.47-0.41c14.99-0.08,29.98-0.39,44.97-0.33c4.11,0.02,8.33,0.56,12.3,1.62
		c11.84,3.15,17.77,13.29,15.32,25.35c-1.11,5.47-4.15,9-9.75,9.96c-2.28,0.39-4.62,0.64-6.94,0.63
		c-45.49-0.08-90.98-0.17-136.46-0.36C42.5,49.59,36.83,48.31,32.29,41.98z"/>
	<path class="st0" d="M110.41,64.74c-0.34-3.74-0.66-7.12-0.99-10.68c6.92,0,14.02,0,21.12,0c-0.29,2.89-0.54,5.48-0.81,8.19
		C123.24,63.09,116.83,63.91,110.41,64.74z"/>
	<path class="st0" d="M135.85,39.84c-3.96,0-7.25,0-10.98,0c-0.74-5.33-1.47-10.53-2.19-15.69c7.98-1.83,8.36-1.61,10.37,5.68
		C133.94,33.02,134.84,36.2,135.85,39.84z"/>
	<path class="st0" d="M66.24,40.02c2.06-5.44,3.28-10.57,5.94-14.79c1.13-1.8,5.27-1.71,9.26-2.81c-1.78,6.33-3.01,11.24-4.65,16
		c-0.29,0.84-2.29,1.38-3.57,1.53C71.15,40.2,69.04,40.02,66.24,40.02z"/>
	<path class="st0" d="M110.45,39.81c-3.53,0-6.32,0-9.75,0c0.85-5.12,1.08-10.17,2.77-14.66c0.57-1.51,4.88-1.61,8.33-2.6
		C111.28,29.14,110.88,34.33,110.45,39.81z"/>
	<path class="st0" d="M70.05,24.25c-1.72,4.61-2.74,9.72-5.46,13.64c-1.42,2.04-5.83,2.01-8.89,2.92c-0.26-0.42-0.52-0.84-0.78-1.27
		c1.89-4.7,3.17-9.81,5.93-13.93c1.32-1.98,5.42-2.09,8.27-3.05C69.43,23.12,69.74,23.68,70.05,24.25z"/>
	<path class="st0" d="M122.89,39.71c-3.77,0-7,0-10.42,0c0.32-4.59,0.34-8.91,1.07-13.11c0.22-1.26,2.38-3.01,3.68-3.03
		c1.25-0.02,3.35,1.7,3.66,2.99C121.88,30.71,122.23,35.03,122.89,39.71z"/>
	<path class="st0" d="M101.59,22.44c-1.15,6.83-2,11.86-2.9,17.23c-2.81,0-5.55,0-9.14,0c1.17-4.97,1.82-10.05,3.75-14.59
		C93.92,23.59,97.88,23.53,101.59,22.44z"/>
	<path class="st0" d="M91.51,22.3c-1.58,6.91-2.74,12-3.97,17.39c-2.8,0-5.52,0-8.95,0c1.46-5.03,2.37-10.09,4.53-14.54
		C83.89,23.57,87.72,23.49,91.51,22.3z"/>
	<path class="st0" d="M147.03,39.77c-3.19,0-5.94,0-9.05,0c-1.24-4.22-2.52-8.48-3.72-12.76c-0.26-0.92-0.27-1.91-0.39-2.83
		c6.68-1.74,6.94-1.6,9.17,4.57C144.32,32.3,145.61,35.86,147.03,39.77z"/>
	<path class="st0" d="M47.43,40.59C44.71,30.18,49.19,24.04,59,24.03c-1.97,4.87-3.57,9.75-5.96,14.21
		C52.3,39.61,49.41,39.82,47.43,40.59z"/>
	<path class="st0" d="M152.91,24.35c5.2-1.63,8.31-0.34,9.99,4.61c1.21,3.56,3.12,6.88,4.74,10.37c-7.69,1.55-7.73,1.52-10.51-5.08
		C155.79,31.07,154.43,27.91,152.91,24.35z"/>
	<path class="st0" d="M143.47,24.06c4.98-1.21,7.78,0.09,9.22,4.57c1.15,3.59,2.9,6.98,4.61,10.98c-2.93,0-5.44,0-8.27,0
		C147.22,34.55,145.36,29.34,143.47,24.06z"/>
	<path class="st0" d="M177.81,39.5c-5.53,1.63-8.67,0.04-10.34-4.98c-1.13-3.39-2.97-6.55-4.59-10.03c4.82-1.65,7.96-0.91,9.73,4.09
		C173.92,32.26,175.96,35.68,177.81,39.5z"/>
	<path class="st0" d="M180.3,40c-2.57-5.22-4.96-10.08-7.36-14.97c4.83-1.91,8.16-0.78,10.1,3.32
		C185.76,34.08,185.19,37.03,180.3,40z"/>
	<path class="st0" d="M163.33,131.65c-7.07,7.88-14.13,16.02-21.51,23.86c-2.66,2.82-11.29,2.09-15.07-0.67
		c-6.66-4.86-8.71-14.13-4.73-21.44C130.8,117.24,152.15,115.99,163.33,131.65z M138.54,147.08c5.28-0.05,9.54-4.13,9.36-8.97
		c-0.17-4.66-4.35-8.41-9.43-8.46c-5.34-0.05-9.51,3.8-9.51,8.77C128.95,143.41,133.08,147.14,138.54,147.08z"/>
	<path d="M138.54,147.08c-5.45,0.06-9.59-3.67-9.59-8.65c0-4.98,4.17-8.82,9.51-8.77c5.08,0.05,9.26,3.79,9.43,8.46
		C148.07,142.96,143.82,147.03,138.54,147.08z M145.94,138.27c-0.05-3.73-3.7-6.93-7.76-6.83c-3.92,0.1-7.16,3.14-7.23,6.79
		c-0.08,3.96,3.1,6.95,7.43,6.98C142.54,145.23,145.99,142.07,145.94,138.27z"/>
	<path class="st0" d="M145.94,138.27c0.05,3.8-3.4,6.96-7.57,6.94c-4.33-0.03-7.51-3.02-7.43-6.98c0.08-3.65,3.31-6.69,7.23-6.79
		C142.24,131.34,145.89,134.55,145.94,138.27z"/>
</g>
</svg>
