<?xml version="1.0" encoding="utf-8"?>
<!-- Generator: Adobe Illustrator 23.0.0, SVG Export Plug-In . SVG Version: 6.00 Build 0)  -->
<svg version="1.1" id="Layer_1" xmlns="http://www.w3.org/2000/svg" xmlns:xlink="http://www.w3.org/1999/xlink" x="0px" y="0px"
	 viewBox="0 0 402 200" style="enable-background:new 0 0 402 200;" xml:space="preserve">
<style type="text/css">
	.st0{fill:#FFFFFF;}
</style>
<g>
	<path class="st0" d="M60.78,24.5c98.67,0,197.33,0,296,0c0,50,0,100,0,150c-98.67,0-197.33,0-296,0
		C60.78,124.5,60.78,74.5,60.78,24.5z M303.38,117.22c0.51-0.2,1.93-0.64,3.26-1.27c6.78-3.26,12.48-0.09,12.87,7.54
		c0.33,6.6-1.23,12.64-5.35,18.24c-1.9,2.58-2.92,6.82-2.38,9.97c1.54,9.01,13,14.94,22.35,12.27c9.26-2.64,14.33-10,14.4-21.41
		c0.1-16.99,0.24-33.98-0.03-50.97c-0.21-13.14-0.72-26.28-1.68-39.39c-0.6-8.28-5.55-13.91-13.64-15.92
		c-8.04-2-16.22-1.7-24.03,1.27c-6.19,2.35-7.42,8.89-2.81,13.69c1.26,1.31,2.84,2.3,4.25,3.47c8.98,7.42,11.88,16.9,9.42,28.13
		c-0.79,3.59-2.99,6.12-6.72,6.43c-3.97,0.33-7.74,0.06-10.35-4.1c-3.71-5.9-8.16-11.34-12.01-17.17
		c-9.22-13.98-22.17-19.04-38.58-17.61c-18.74,1.62-33.77,14.36-36.02,32.16c-1.19,9.44,1.79,18.03,7.89,25.32
		c-7.43,9.63-8.21,19.3-2.44,28.33c5.28,8.25,13.62,10.93,25.59,8.26c1.08-0.24,2.26-0.56,3.31-0.37c5.02,0.9,10.04,2.91,15.02,2.78
		c9.74-0.24,19.49-1.3,29.14-2.73c4.14-0.61,8.04-3.44,8.44-8.15C303.77,130.11,303.38,124.13,303.38,117.22z M194.08,108.08
		c1.67-2.64,3.44-4.89,4.65-7.42c8.1-16.87,1.46-36.34-15.65-45.03c-15.98-8.12-41.68-10.04-55.71,12.3
		c-3.71,5.91-8.32,11.27-12.03,17.18c-2.75,4.38-6.68,4.57-10.83,4.07c-4.03-0.48-6.01-3.63-6.56-7.26
		c-1.64-10.74,0.72-20.19,9.69-27.23c1.05-0.82,2.47-1.45,3.06-2.52c1.52-2.78,4.19-6.16,3.57-8.57c-0.69-2.69-4.15-5.56-7.04-6.6
		c-3.94-1.42-8.47-1.44-12.76-1.62c-15.32-0.66-23.18,6.79-23.73,22.23c-0.27,7.65-0.76,15.3-0.82,22.96
		c-0.15,21.16-0.28,42.33-0.06,63.49c0.09,8.31,3.31,15.38,11.5,18.92c7.47,3.23,14.4,1.57,20.53-3.42
		c5.78-4.71,7.09-12.72,2.63-17.72c-5.1-5.72-6.3-12.44-5.51-19.52c0.27-2.39,2.36-4.99,4.31-6.7c4.81-4.21,8.25,1.31,13.03,2.02
		c-2.06,4.61-4.42,8.91-0.93,13.35c0.17,0.22-0.3,0.91-0.4,1.39c-1.07,5.03,1.16,8.77,5.53,10.5c4.57,1.8,9.54,2.65,14.39,3.67
		c15.79,3.31,31.35-3.89,47.15-1.14c0.75,0.13,1.61-0.32,2.42-0.53C201.09,140.54,204.98,118.85,194.08,108.08z"/>
	<path d="M303.38,117.22c0,6.91,0.38,12.89-0.12,18.78c-0.4,4.71-4.3,7.53-8.44,8.15c-9.64,1.43-19.4,2.48-29.14,2.73
		c-4.98,0.12-10-1.88-15.02-2.78c-1.05-0.19-2.22,0.13-3.31,0.37c-11.97,2.67-20.31-0.01-25.59-8.26
		c-5.78-9.03-4.99-18.7,2.44-28.33c-6.1-7.29-9.08-15.88-7.89-25.32c2.24-17.8,17.28-30.54,36.02-32.16
		c16.42-1.42,29.37,3.63,38.58,17.61c3.84,5.83,8.3,11.26,12.01,17.17c2.61,4.16,6.38,4.43,10.35,4.1c3.73-0.31,5.93-2.84,6.72-6.43
		c2.46-11.24-0.44-20.71-9.42-28.13c-1.41-1.17-2.99-2.16-4.25-3.47c-4.61-4.8-3.38-11.33,2.81-13.69
		c7.81-2.97,15.99-3.27,24.03-1.27c8.1,2.01,13.04,7.64,13.64,15.92c0.96,13.1,1.47,26.25,1.68,39.39
		c0.27,16.98,0.14,33.98,0.03,50.97c-0.07,11.41-5.14,18.77-14.4,21.41c-9.35,2.67-20.81-3.27-22.35-12.27
		c-0.54-3.15,0.49-7.39,2.38-9.97c4.12-5.6,5.68-11.64,5.35-18.24c-0.39-7.63-6.08-10.8-12.87-7.54
		C305.31,116.58,303.89,117.02,303.38,117.22z M233.61,61.31c-13.73,9.55-17.57,26.3-9.54,39.62c1.71,2.83,3.39,5.18,7.46,2.9
		c2.04-1.14,4.85-0.82,7.28-1.33c1.62-0.34,4.41-0.8,4.52-1.52c0.25-1.73-0.64-3.69-1.33-5.46c-0.94-2.41-2.85-4.67-3.05-7.1
		c-0.55-6.77,4.43-13.53,11.17-16.15c8.43-3.27,18.85-1.55,23.26,4.17c-1.51-0.38-2.86-1.1-4.27-1.71
		c-6.96-3.04-13.92-3.2-20.67,0.46c-6.68,3.62-9.49,12.55-6.17,17.89c1.84,2.97,2.96,6.4,5.1,11.2c5.54,2.12,10.36,7.42,11.86,15.49
		c1.46,7.84-0.04,15.04-5.28,21.76c12.27,2.76,24,2.49,35.67,0.03c2.97-0.63,5.83-2.25,8.44-3.89c0.92-0.58,1.51-2.77,1.16-3.88
		c-0.24-0.78-2.3-1.15-3.61-1.39c-1.12-0.2-2.39,0.31-3.46,0.02c-1.24-0.33-2.33-1.19-3.49-1.82c1.09-0.69,2.09-1.7,3.28-2
		c2.23-0.56,4.6-0.58,6.84-1.11c0.75-0.18,1.75-1.16,1.86-1.89c0.86-5.84-4.72-10.34-10.31-8.12c-3.75,1.49-7.46,1.25-9.49-1.75
		c-1.86-2.74-3.3-6.96-2.56-9.95c0.81-3.29,4.25-5.96,6.71-8.76c0.24-0.28,2.12,0.23,2.34,0.75c0.27,0.64-0.18,1.84-0.69,2.52
		c-1.39,1.84-3.69,3.33-4.28,5.35c-0.61,2.1-0.1,4.89,0.87,6.92c0.49,1.03,3.08,1.46,4.73,1.46c3.71,0.01,7.45-0.79,11.13-0.56
		c6.55,0.4,9.26-2.39,7.88-8.93c-0.51-2.43-1.02-4.92-2.05-7.16c-6.31-13.77-15.28-25.76-25.79-36.52
		c-4.66-4.77-10.89-6.76-17.9-6.21c0,3.31,0,6.4,0,9.39c4.1,1.26,7.85,2.4,11.61,3.55c-6.66,0.03-13.07-1.34-19.36-0.9
		c-16.41,1.14-23.86,15.38-15.92,29.42c0.15,0.27-0.22,0.84-0.37,1.32c-8.05-6.57-7.01-18.24,1.61-27.43
		C237.15,67.2,235.45,64.38,233.61,61.31z M308.22,93.46c1.1,4.49,2.42,8.62,3.02,12.85c0.37,2.63,1.43,3.71,3.68,5.05
		c2.96,1.76,6.76,4.34,7.48,7.24c2.18,8.79,1.18,17.5-4.93,24.93c-3.42,4.16-3.37,8.16,0.35,11.97c4.12,4.2,9.21,6.1,15.01,4.75
		c5.86-1.36,9.49-5.34,10.87-11.17c0.57-2.4,0.96-4.92,0.94-7.39c-0.24-27.62-0.55-55.24-0.91-82.86
		c-0.09-7.07-1.25-14.06-8.36-17.45c-8.2-3.91-16.82-2.95-25.16,0.06c-3.38,1.22-3.43,3.82-1.42,6.38c1,1.28,2.4,2.28,3.71,3.29
		c7.87,6.09,11.89,14.13,12.25,24.03C325.23,87.97,320.89,92.8,308.22,93.46z M239.72,141.52c10.97-0.1,16.11-5.5,16.07-16.92
		c-0.03-10.67-7.46-18.3-17.61-18.11c-9.45,0.18-16.36,7.42-16.32,17.12C221.91,133.92,229.57,141.61,239.72,141.52z M252.26,54.14
		c-3.9,0.99-7.19,1.82-11.08,2.8c1.5,3.45,2.79,6.41,4.14,9.5c2.84-0.78,5.34-1.47,8.03-2.21C253,60.97,252.68,58.06,252.26,54.14z
		 M254.4,54.55c0.22,2.76,0.12,4.97,0.66,7.01c0.28,1.08,1.66,1.87,2.54,2.78c0.61-0.96,1.7-1.9,1.75-2.89
		c0.1-2.25-0.31-4.53-0.52-6.9C257.25,54.55,256.01,54.55,254.4,54.55z M235.34,60.03c1.51,2.67,2.5,4.8,3.87,6.65
		c0.6,0.82,1.97,1.07,2.98,1.58c0.15-1.03,0.68-2.2,0.37-3.06c-0.83-2.31-2.01-4.5-3.19-7.02
		C237.98,58.82,236.84,59.34,235.34,60.03z"/>
	<path d="M194.08,108.08c10.9,10.77,7.01,32.46-9.56,36.79c-0.8,0.21-1.67,0.66-2.42,0.53c-15.8-2.75-31.36,4.45-47.15,1.14
		c-4.85-1.02-9.82-1.86-14.39-3.67c-4.37-1.72-6.6-5.47-5.53-10.5c0.1-0.48,0.57-1.17,0.4-1.39c-3.5-4.45-1.13-8.74,0.93-13.35
		c-4.78-0.71-8.22-6.23-13.03-2.02c-1.95,1.71-4.04,4.31-4.31,6.7c-0.8,7.08,0.41,13.8,5.51,19.52c4.46,5.01,3.15,13.01-2.63,17.72
		c-6.13,5-13.06,6.65-20.53,3.42c-8.19-3.54-11.41-10.61-11.5-18.92c-0.22-21.16-0.08-42.33,0.06-63.49
		c0.05-7.65,0.54-15.31,0.82-22.96c0.55-15.44,8.41-22.89,23.73-22.23c4.29,0.19,8.82,0.2,12.76,1.62c2.89,1.04,6.34,3.9,7.04,6.6
		c0.62,2.41-2.05,5.78-3.57,8.57c-0.59,1.08-2.01,1.7-3.06,2.52c-8.97,7.03-11.33,16.49-9.69,27.23c0.55,3.62,2.53,6.77,6.56,7.26
		c4.15,0.5,8.08,0.31,10.83-4.07c3.71-5.91,8.31-11.27,12.03-17.18c14.03-22.34,39.72-20.41,55.71-12.3
		c17.11,8.69,23.75,28.16,15.65,45.03C197.52,103.19,195.75,105.45,194.08,108.08z M180.63,96.84c0.32-0.67,0.6-1.38,0.98-2.02
		c4.9-8.41,3.65-16.44-3.77-22.77c-7.05-6.02-15.34-6.61-24.01-4.98c-2.7,0.51-5.37,1.2-8.05,1.81c-0.11-0.47-0.23-0.94-0.34-1.41
		c3.7-1.08,7.41-2.16,11.42-3.33c0-3.08,0-6.18,0-9.56c-7.21-0.38-13.8,1.59-18.4,7c-7.19,8.48-14.02,17.34-20.25,26.55
		c-3.18,4.71-5.22,10.38-6.86,15.89c-2.1,7.05,1.41,10.27,8.81,9.29c2.86-0.38,5.84,0.24,8.76,0.15c2.1-0.06,5.16,0.19,6.06-1
		c1.23-1.64,1.5-4.7,0.9-6.79c-0.58-2.02-2.86-3.51-4.21-5.36c-0.5-0.68-0.74-1.77-0.62-2.61c0.06-0.4,1.3-0.96,1.93-0.87
		c3.38,0.5,7.86,7.57,7.7,11.97c-0.18,4.97-3.97,9.48-8.52,9.52c-2.05,0.02-4.08-1.2-6.16-1.67c-4.47-1-7.51,1.81-8.17,8.09
		c-0.45,4.25,3.49,2.88,5.65,3.71c2.05,0.79,4.15,1.46,6.23,2.18c-2.33,0.57-4.68,1.1-6.99,1.74c-1.29,0.35-3.62,0.89-3.61,1.32
		c0.01,1.49,0.42,3.57,1.47,4.34c2.08,1.53,4.62,3.04,7.1,3.3c8.57,0.92,17.19,1.51,25.8,1.79c3.49,0.11,7.01-0.9,10.99-1.47
		c-9.19-11.61-8.37-31.53,7.57-38.1c0.87-3.28,0.98-6.47,2.46-8.77c4.11-6.34,3.34-13.9-2.83-18.32c-7.34-5.25-15.2-5.04-23.18-1.45
		c-1.18,0.53-2.33,1.1-3.5,1.66c5.69-6.98,19.12-7.91,26.84-2.6c7.76,5.34,9.27,14.17,4.1,22.05c-1.06,1.61-0.87,4.04-1.13,5.44
		c5.39,1.16,9.7,2.24,14.07,2.93c1.15,0.18,2.98-0.46,3.67-1.35c9.77-12.62,6.91-33.56-7.95-41.32c-3.63,4.54-6.05,8.35-1.04,14.4
		C188.93,82.76,187.08,92,180.63,96.84z M109.76,93.63c-13.04-1.4-16.08-4.95-16.1-18.17c-0.02-10.91,4.97-18.99,13.42-25.44
		c1.66-1.27,3.77-4.08,3.33-5.41c-0.59-1.8-3.28-3.69-5.35-4.09c-4.67-0.91-9.56-1.51-14.29-1.2c-10.35,0.68-15.63,6.3-15.95,16.74
		c-0.57,18.8-0.97,37.61-1.23,56.41c-0.15,10.99-0.14,21.99,0.3,32.97c0.27,6.78,3.46,12.22,10.35,14.45
		c6.13,1.98,11.51,0.19,15.99-4.23c3.64-3.6,4.08-8.04,0.96-11.57c-4.83-5.47-6.09-11.98-6.42-18.94
		c-0.33-7.04,2.61-11.77,9.18-14.39c1.12-0.45,2.46-1.63,2.74-2.72C107.9,103.38,108.73,98.65,109.76,93.63z M162.56,124.82
		c-0.01,11.45,5.03,16.66,16.18,16.7c9.91,0.03,17.56-7.58,17.7-17.62c0.14-9.84-7.01-17.33-16.6-17.4
		C169.58,106.43,162.57,113.86,162.56,124.82z M177.12,56.93c-3.86-0.95-7.25-1.79-10.97-2.7c-0.51,3.7-0.93,6.73-1.38,9.97
		c2.81,0.78,5.28,1.46,8.2,2.27C174.31,63.37,175.59,60.44,177.12,56.93z M159.13,64.24c4.27-0.37,5.21-2.7,4.14-9.66
		C158.51,54.57,158.51,54.58,159.13,64.24z M179.1,58.31c-4.72,8.3-4.72,8.3-1.33,10.67c1.71-2.95,3.4-5.86,5.11-8.81
		c-1.03-0.68-1.56-1.1-2.14-1.4C180.3,58.55,179.79,58.49,179.1,58.31z"/>
	<path class="st0" d="M233.61,61.31c1.85,3.07,3.54,5.89,5.21,8.67c-8.61,9.19-9.65,20.86-1.61,27.43c0.15-0.49,0.52-1.05,0.37-1.32
		c-7.94-14.04-0.48-28.28,15.92-29.42c6.29-0.44,12.7,0.93,19.36,0.9c-3.75-1.15-7.51-2.3-11.61-3.55c0-2.99,0-6.07,0-9.39
		c7.01-0.54,13.24,1.44,17.9,6.21c10.51,10.76,19.48,22.75,25.79,36.52c1.02,2.23,1.53,4.73,2.05,7.16
		c1.38,6.54-1.33,9.32-7.88,8.93c-3.68-0.22-7.42,0.58-11.13,0.56c-1.64-0.01-4.23-0.43-4.73-1.46c-0.97-2.03-1.48-4.82-0.87-6.92
		c0.58-2.02,2.89-3.51,4.28-5.35c0.51-0.68,0.96-1.88,0.69-2.52c-0.22-0.52-2.09-1.02-2.34-0.75c-2.46,2.8-5.9,5.47-6.71,8.76
		c-0.73,2.99,0.71,7.2,2.56,9.95c2.03,3,5.74,3.24,9.49,1.75c5.59-2.22,11.18,2.29,10.31,8.12c-0.11,0.73-1.11,1.71-1.86,1.89
		c-2.24,0.53-4.61,0.55-6.84,1.11c-1.19,0.3-2.19,1.31-3.28,2c1.16,0.63,2.25,1.49,3.49,1.82c1.07,0.29,2.35-0.22,3.46-0.02
		c1.31,0.24,3.37,0.61,3.61,1.39c0.34,1.12-0.24,3.31-1.16,3.88c-2.61,1.64-5.47,3.26-8.44,3.89c-11.66,2.46-23.39,2.73-35.67-0.03
		c5.23-6.72,6.73-13.92,5.28-21.76c-1.5-8.07-6.32-13.37-11.86-15.49c-2.15-4.8-3.26-8.23-5.1-11.2
		c-3.32-5.34-0.51-14.26,6.17-17.89c6.76-3.67,13.72-3.51,20.67-0.46c1.4,0.61,2.76,1.33,4.27,1.71c-4.4-5.73-14.82-7.44-23.26-4.17
		c-6.75,2.62-11.73,9.37-11.17,16.15c0.2,2.43,2.11,4.69,3.05,7.1c0.69,1.77,1.57,3.73,1.33,5.46c-0.1,0.72-2.9,1.18-4.52,1.52
		c-2.43,0.51-5.25,0.19-7.28,1.33c-4.07,2.28-5.76-0.07-7.46-2.9C216.04,87.61,219.88,70.85,233.61,61.31z M276.35,91.87
		c-1.6-6.49-7.28-9.95-15.1-9.26C263.58,89.89,270.24,90.55,276.35,91.87z"/>
	<path class="st0" d="M308.22,93.46c12.66-0.66,17-5.49,16.54-18.32c-0.36-9.9-4.37-17.94-12.25-24.03
		c-1.31-1.01-2.71-2.01-3.71-3.29c-2.01-2.57-1.96-5.17,1.42-6.38c8.34-3.01,16.96-3.97,25.16-0.06c7.1,3.39,8.26,10.38,8.36,17.45
		c0.36,27.62,0.67,55.24,0.91,82.86c0.02,2.46-0.37,4.98-0.94,7.39c-1.38,5.83-5.01,9.81-10.87,11.17
		c-5.8,1.34-10.89-0.55-15.01-4.75c-3.73-3.81-3.77-7.81-0.35-11.97c6.11-7.43,7.11-16.14,4.93-24.93c-0.72-2.9-4.51-5.48-7.48-7.24
		c-2.25-1.33-3.3-2.41-3.68-5.05C310.65,102.07,309.32,97.95,308.22,93.46z M340.54,88.36c-0.17,0.07-0.33,0.14-0.5,0.21
		c0,15.03,0,30.06,0,45.09c0.17,0,0.33,0,0.5,0C340.54,118.55,340.54,103.46,340.54,88.36z M333,132.66c0.16,0,0.32,0,0.49,0
		c0-13.11,0-26.23,0-39.34c-0.16,0-0.32,0-0.49,0C333,106.43,333,119.54,333,132.66z M330.51,95.62c-0.17,0.01-0.33,0.01-0.5,0.02
		c0,12.73,0,25.47,0,38.2c0.17,0,0.33,0,0.5,0C330.51,121.1,330.51,108.36,330.51,95.62z M314.75,44.54
		c4.21,2.47,7.88,4.62,11.53,6.77C323.68,47.68,323.24,40.8,314.75,44.54z M320.79,152.88c0.09,0.57,0.18,1.15,0.27,1.72
		c2.69-0.77,5.38-1.54,7.62-2.19c-1.05-1.58-1.91-2.86-2.65-3.98C324.29,149.92,322.54,151.4,320.79,152.88z"/>
	<path class="st0" d="M239.72,141.52c-10.15,0.09-17.81-7.6-17.85-17.92c-0.04-9.7,6.87-16.94,16.32-17.12
		c10.15-0.19,17.57,7.45,17.61,18.11C255.83,136.02,250.7,141.42,239.72,141.52z M244.64,125.92c-0.03-0.73-0.05-1.46-0.08-2.18
		c-1.81-1.14-3.8-3.38-5.38-3.12c-1.69,0.28-4.18,2.97-4.12,4.52c0.06,1.57,2.71,4.08,4.42,4.25
		C241.06,129.56,242.91,127.18,244.64,125.92z"/>
	<path class="st0" d="M252.26,54.14c0.42,3.92,0.73,6.84,1.08,10.09c-2.69,0.74-5.18,1.43-8.03,2.21c-1.35-3.09-2.63-6.05-4.14-9.5
		C245.07,55.96,248.36,55.12,252.26,54.14z"/>
	<path class="st0" d="M254.4,54.55c1.61,0,2.85,0,4.42,0c0.21,2.37,0.62,4.65,0.52,6.9c-0.04,0.99-1.13,1.93-1.75,2.89
		c-0.88-0.92-2.26-1.71-2.54-2.78C254.52,59.51,254.62,57.31,254.4,54.55z"/>
	<path class="st0" d="M235.34,60.03c1.51-0.69,2.64-1.21,4.03-1.85c1.18,2.53,2.37,4.71,3.19,7.02c0.31,0.87-0.22,2.03-0.37,3.06
		c-1.02-0.51-2.38-0.76-2.98-1.58C237.84,64.83,236.85,62.71,235.34,60.03z"/>
	<path class="st0" d="M180.63,96.84c6.45-4.83,8.3-14.08,2.89-20.62c-5.01-6.05-2.59-9.86,1.04-14.4
		c14.86,7.76,17.72,28.7,7.95,41.32c-0.69,0.9-2.52,1.54-3.67,1.35c-4.37-0.69-8.69-1.77-14.07-2.93c0.26-1.4,0.08-3.83,1.13-5.44
		c5.16-7.88,3.66-16.71-4.1-22.05c-7.72-5.31-21.16-4.38-26.84,2.6c1.17-0.55,2.32-1.13,3.5-1.66c7.98-3.6,15.85-3.8,23.18,1.45
		c6.17,4.42,6.94,11.98,2.83,18.32c-1.49,2.3-1.6,5.49-2.46,8.77c-15.94,6.57-16.76,26.49-7.57,38.1c-3.97,0.57-7.5,1.58-10.99,1.47
		c-8.61-0.28-17.23-0.87-25.8-1.79c-2.48-0.27-5.02-1.78-7.1-3.3c-1.05-0.77-1.45-2.85-1.47-4.34c0-0.44,2.32-0.97,3.61-1.32
		c2.32-0.63,4.66-1.16,6.99-1.74c-2.08-0.72-4.18-1.38-6.23-2.18c-2.16-0.83-6.1,0.53-5.65-3.71c0.66-6.27,3.7-9.09,8.17-8.09
		c2.08,0.47,4.12,1.68,6.16,1.67c4.55-0.04,8.34-4.55,8.52-9.52c0.16-4.4-4.31-11.47-7.7-11.97c-0.62-0.09-1.87,0.47-1.93,0.87
		c-0.12,0.83,0.12,1.92,0.62,2.61c1.36,1.85,3.64,3.35,4.21,5.36c0.6,2.09,0.32,5.16-0.9,6.79c-0.89,1.19-3.95,0.94-6.06,1
		c-2.92,0.08-5.9-0.53-8.76-0.15c-7.4,0.98-10.91-2.23-8.81-9.29c1.64-5.51,3.68-11.18,6.86-15.89
		c6.22-9.21,13.06-18.06,20.25-26.55c4.59-5.42,11.18-7.39,18.4-7c0,3.38,0,6.48,0,9.56c-4.01,1.17-7.71,2.25-11.42,3.33
		c0.11,0.47,0.23,0.94,0.34,1.41c2.68-0.61,5.35-1.3,8.05-1.81c8.68-1.63,16.96-1.04,24.01,4.98c7.42,6.34,8.68,14.36,3.77,22.77
		C181.23,95.46,180.95,96.16,180.63,96.84z M156.92,82.51c-8.27-0.36-13.96,3.27-14.71,9.29C148.16,90.58,154.68,89.93,156.92,82.51
		z"/>
	<path class="st0" d="M109.76,93.63c-1.03,5.02-1.86,9.75-3.05,14.38c-0.28,1.09-1.61,2.27-2.74,2.72
		c-6.57,2.63-9.52,7.36-9.18,14.39c0.33,6.96,1.59,13.47,6.42,18.94c3.12,3.54,2.68,7.97-0.96,11.57
		c-4.47,4.43-9.86,6.21-15.99,4.23c-6.9-2.23-10.08-7.67-10.35-14.45c-0.44-10.98-0.45-21.98-0.3-32.97
		c0.26-18.81,0.66-37.61,1.23-56.41c0.32-10.44,5.59-16.06,15.95-16.74c4.73-0.31,9.61,0.29,14.29,1.2c2.07,0.4,4.76,2.29,5.35,4.09
		c0.43,1.34-1.68,4.15-3.33,5.41c-8.45,6.46-13.43,14.53-13.42,25.44C93.67,88.68,96.72,92.23,109.76,93.63z M78.56,82.27
		c-0.15,0-0.31,0-0.46,0c0,18.73,0,37.46,0,56.2c0.15,0,0.31,0,0.46,0C78.56,119.73,78.56,101,78.56,82.27z M85.56,86.32
		c-0.15,0-0.3,0-0.46,0c0,17.11,0,34.22,0,51.33c0.15,0,0.3,0,0.46,0C85.56,120.54,85.56,103.43,85.56,86.32z M81.58,92.51
		c-0.11-0.08-0.22-0.16-0.33-0.24c0,10.34,0,20.69,0,31.03c0.11,0,0.22,0,0.33,0C81.58,113.04,81.58,102.77,81.58,92.51z
		 M102.88,45.21c-0.2-0.53-0.4-1.06-0.61-1.6c-3.02,0.36-7.48-1.96-7.61,5.39C97.82,47.55,100.35,46.38,102.88,45.21z"/>
	<path class="st0" d="M162.56,124.82c0.01-10.95,7.03-18.39,17.28-18.32c9.59,0.06,16.74,7.56,16.6,17.4
		c-0.14,10.04-7.79,17.65-17.7,17.62C167.59,141.47,162.55,136.27,162.56,124.82z M179.94,119.6c-0.73,0.02-1.46,0.04-2.19,0.05
		c-1.1,1.83-3.26,3.83-3,5.43c0.28,1.72,2.85,3.06,4.42,4.56c1.51-1.59,4.07-3.08,4.24-4.81
		C183.56,123.22,181.2,121.35,179.94,119.6z"/>
	<path class="st0" d="M177.12,56.93c-1.53,3.51-2.81,6.45-4.15,9.53c-2.92-0.81-5.39-1.49-8.2-2.27c0.45-3.24,0.87-6.26,1.38-9.97
		C169.87,55.14,173.25,55.98,177.12,56.93z"/>
	<path class="st0" d="M159.13,64.24c-0.61-9.65-0.61-9.66,4.14-9.66C164.34,61.54,163.39,63.87,159.13,64.24z"/>
	<path class="st0" d="M179.1,58.31c0.69,0.18,1.2,0.24,1.64,0.46c0.59,0.29,1.11,0.71,2.14,1.4c-1.71,2.94-3.4,5.86-5.11,8.81
		C174.38,66.61,174.38,66.61,179.1,58.31z"/>
	<path d="M276.35,91.87c-6.11-1.31-12.76-1.98-15.1-9.26C269.07,81.92,274.75,85.38,276.35,91.87z"/>
	<path d="M340.54,88.36c0,15.1,0,30.2,0,45.29c-0.17,0-0.33,0-0.5,0c0-15.03,0-30.06,0-45.09C340.21,88.5,340.37,88.43,340.54,88.36
		z"/>
	<ellipse cx="333.24" cy="112.99" rx="0.34" ry="27.82"/>
	<path d="M330.51,95.62c0,12.74,0,25.48,0,38.22c-0.17,0-0.33,0-0.5,0c0-12.73,0-25.47,0-38.2
		C330.18,95.63,330.35,95.62,330.51,95.62z"/>
	<path d="M314.75,44.54c8.48-3.74,8.93,3.14,11.53,6.77C322.64,49.16,318.97,47.01,314.75,44.54z"/>
	<path d="M320.79,152.88c1.75-1.48,3.5-2.97,5.24-4.44c0.75,1.12,1.6,2.4,2.65,3.98c-2.24,0.64-4.93,1.42-7.62,2.19
		C320.98,154.03,320.88,153.46,320.79,152.88z"/>
	<path d="M244.64,125.92c-1.73,1.26-3.58,3.63-5.16,3.47c-1.71-0.18-4.36-2.68-4.42-4.25c-0.06-1.55,2.43-4.24,4.12-4.52
		c1.57-0.26,3.57,1.98,5.38,3.12C244.59,124.47,244.61,125.19,244.64,125.92z"/>
	<path d="M156.92,82.51c-2.24,7.42-8.76,8.07-14.71,9.29C142.97,85.78,148.65,82.14,156.92,82.51z"/>
	<ellipse cx="78.33" cy="110.37" rx="0.32" ry="39.74"/>
	<ellipse cx="85.33" cy="111.98" rx="0.32" ry="36.29"/>
	<path d="M81.58,92.51c0,10.26,0,20.52,0,30.79c-0.11,0-0.22,0-0.33,0c0-10.34,0-20.69,0-31.03C81.36,92.35,81.47,92.43,81.58,92.51
		z"/>
	<path d="M102.88,45.21c-2.53,1.17-5.06,2.33-8.22,3.79c0.13-7.35,4.59-5.03,7.61-5.39C102.48,44.15,102.68,44.68,102.88,45.21z"/>
	<path d="M179.94,119.6c1.26,1.76,3.62,3.62,3.47,5.24c-0.16,1.72-2.72,3.21-4.24,4.81c-1.57-1.51-4.14-2.85-4.42-4.56
		c-0.26-1.6,1.9-3.6,3-5.43C178.48,119.63,179.21,119.61,179.94,119.6z"/>
</g>
</svg>
