<?xml version="1.0" encoding="utf-8"?>
<!-- Generator: Adobe Illustrator 23.0.0, SVG Export Plug-In . SVG Version: 6.00 Build 0)  -->
<svg version="1.1" id="Layer_1" xmlns="http://www.w3.org/2000/svg" xmlns:xlink="http://www.w3.org/1999/xlink" x="0px" y="0px"
	 viewBox="0 0 161 151" style="enable-background:new 0 0 161 151;" xml:space="preserve">
<style type="text/css">
	.st0{fill:#FFFFFF;}
</style>
<g>
	<path class="st0" d="M0,151C0,100.67,0,50.33,0,0c53.67,0,107.33,0,161,0c0,50.33,0,100.67,0,151C107.33,151,53.67,151,0,151z
		 M19.49,51.23c-1.08,4.34-2.63,7.81-2.7,11.3c-0.38,20.48-0.48,40.97-0.51,61.46c-0.01,6.84,3.37,9.96,10.27,9.97
		c35.66,0.02,71.32,0.03,106.98,0.01c7.22,0,10.41-3.12,10.43-10.33c0.06-18.16,0.21-36.33-0.09-54.49
		c-0.09-5.78-1.49-11.53-2.19-16.56c0.61-4.51,2.14-8.74,1.52-12.64c-1.56-9.76-12.49-14.83-22.78-11.3
		c-1.46,0.5-3.1,0.93-4.59,0.76c-3.22-0.37-6.4-1.11-9.58-1.76c-1.71-0.35-3.43-0.73-5.08-1.29c-2.4-0.81-4.72-2.5-7.11-2.58
		c-9.32-0.31-18.66-0.2-27.99-0.06c-1.91,0.03-3.83,0.77-5.7,1.32c-2.69,0.8-5.29,1.89-8.01,2.56c-1.91,0.47-4.4-0.22-5.83,0.77
		c-2.69,1.84-4.72,1-7.31,0.09c-7.05-2.49-15.8,0.2-19.84,5.74C15.57,39.45,15.75,46.15,19.49,51.23z M157.35,45.76
		c-2.59-1.75-4.07-3.5-5.5-3.47c-1.19,0.03-2.34,2.15-3.51,3.35c1.27,1.21,2.4,3.1,3.86,3.41
		C153.29,49.27,154.82,47.47,157.35,45.76z M46.23,28.2c1.56-2.43,3.27-3.93,3.22-5.37c-0.04-1.14-2.53-3.3-3.39-3.06
		c-1.46,0.4-3.19,2.21-3.47,3.68C42.4,24.48,44.41,25.94,46.23,28.2z M24.7,25.85c1.72-2.36,3.44-3.68,3.36-4.89
		c-0.09-1.35-1.81-2.59-2.82-3.88c-1.33,1.18-3.3,2.17-3.75,3.62C21.18,21.68,23.04,23.33,24.7,25.85z M114.51,18.02
		c-1.7,2.18-3.59,3.58-3.43,4.66c0.22,1.48,2.01,2.72,3.13,4.06c1.25-1.26,3.15-2.36,3.51-3.83
		C117.97,21.87,116.11,20.32,114.51,18.02z M13.92,46.17c-2.75-2.03-4.13-3.81-5.56-3.85c-1.14-0.03-3.12,1.96-3.27,3.23
		C4.95,46.65,6.77,48.87,7.9,49C9.32,49.16,10.92,47.68,13.92,46.17z M150.48,40.94c1.83-2.87,3.47-4.33,3.46-5.77
		c-0.01-1.14-2.02-3.14-3.17-3.16c-1.21-0.02-3.38,1.79-3.45,2.92C147.21,36.37,148.78,37.93,150.48,40.94z M9.41,30.09
		c-1.62,2.54-3.44,4.2-3.13,5.17c0.48,1.47,2.45,2.46,3.78,3.65c1-1.31,2.71-2.58,2.78-3.93C12.91,33.77,11.17,32.46,9.41,30.09z
		 M11,60.86c1.78-2.4,3.7-3.93,3.47-4.94c-0.35-1.48-2.26-2.59-3.5-3.85c-1.08,1.23-2.88,2.37-3.03,3.71
		C7.79,56.99,9.43,58.41,11,60.86z M20.61,26.01c-2.43-1.48-3.92-3.12-5.13-2.94c-1.31,0.2-2.36,2.09-3.53,3.25
		c1.29,1.2,2.45,3.09,3.92,3.36C16.9,29.87,18.33,27.86,20.61,26.01z M154.76,56.11c-2.71-1.97-4.08-3.71-5.56-3.8
		c-1.08-0.07-3.1,1.94-3.22,3.17c-0.11,1.12,1.68,3.33,2.79,3.44C150.22,59.07,151.82,57.6,154.76,56.11z M41.28,19.95
		c-2.28-1.83-3.54-3.64-4.83-3.66c-1.22-0.02-2.47,1.84-3.7,2.87c1.11,1.3,2.02,3.3,3.38,3.67C37.21,23.12,38.83,21.41,41.28,19.95z
		 M124.61,24.88c1.58-2.76,3.21-4.34,3.03-5.68c-0.15-1.19-2.57-3.16-3.51-2.91c-1.35,0.35-2.89,2.29-3.13,3.74
		C120.84,21.06,122.69,22.42,124.61,24.88z M141.09,20.5c-3.01-1.71-4.56-3.3-5.97-3.18c-1.14,0.1-2.91,2.26-2.91,3.5
		c0.01,1.14,2,3.16,3.14,3.18C136.77,24.01,138.21,22.37,141.09,20.5z M145.06,31.54c1.53-2.42,3.3-4.01,3.03-5.09
		c-0.35-1.39-2.32-2.38-3.59-3.54c-1.06,1.24-2.9,2.45-2.95,3.72C141.5,27.88,143.28,29.2,145.06,31.54z"/>
	<path d="M19.49,51.23c-3.74-5.08-3.92-11.78-0.1-17.03c4.04-5.54,12.79-8.24,19.84-5.74c2.59,0.92,4.63,1.76,7.31-0.09
		c1.43-0.99,3.92-0.3,5.83-0.77c2.72-0.67,5.32-1.76,8.01-2.56c1.87-0.56,3.79-1.29,5.7-1.32c9.33-0.14,18.67-0.24,27.99,0.06
		c2.39,0.08,4.71,1.77,7.11,2.58c1.65,0.56,3.37,0.94,5.08,1.29c3.18,0.65,6.36,1.39,9.58,1.76c1.49,0.17,3.13-0.26,4.59-0.76
		c10.29-3.53,21.22,1.54,22.78,11.3c0.62,3.89-0.91,8.13-1.52,12.64c0.7,5.03,2.1,10.78,2.19,16.56c0.3,18.16,0.14,36.32,0.09,54.49
		c-0.02,7.21-3.21,10.33-10.43,10.33c-35.66,0.02-71.32,0.01-106.98-0.01c-6.9,0-10.28-3.13-10.27-9.97
		c0.03-20.49,0.13-40.98,0.51-61.46C16.86,59.04,18.41,55.58,19.49,51.23z M42.65,57.45c0-6.81,0.11-13.78-0.1-20.73
		c-0.04-1.2-1.12-2.77-2.19-3.48c-5.76-3.85-15.11-1.65-18.37,4.36c-2,3.68-2.89,7.67,0.72,10.96c3.46,3.16,7.01,3.5,10.33-0.55
		c0.47-0.57,1.94-0.31,2.94-0.44c-0.06,1.04,0.26,2.72-0.24,3.01c-2.74,1.61-5.71,4.08-8.53,3.99c-4.4-0.14-5.91,1.88-6.22,5.29
		c-0.51,5.61-0.59,11.26-0.71,16.9c-0.11,5.03-0.02,10.07-0.02,14.99c4.88-0.3,9.12-0.56,13.74-0.85c0-7.23,0-14.18,0-21.13
		C34,60.54,34,60.54,42.65,57.45z M140.01,91.76c0-5.18,0.04-10.47-0.01-15.76c-0.05-5.16,0.12-10.34-0.42-15.45
		c-0.38-3.55-1.64-6.44-6.76-5.94c-2.58,0.25-5.54-2.23-8.1-3.85c-0.55-0.35-0.1-2.28-0.12-3.48c1,0.33,2.35,0.35,2.95,1.03
		c2.87,3.24,5.91,3.33,9.27,0.95c3.4-2.41,3.65-5.7,2.52-9.33c-2.39-7.66-13.23-11.27-19.77-6.48c-0.9,0.66-1.7,2.12-1.73,3.22
		c-0.16,6.97-0.08,13.95-0.08,20.79c8.33,3.2,8.32,3.2,8.32,11.99c0,7.11,0,14.21,0,21.46C130.98,91.21,135.26,91.47,140.01,91.76z
		 M129.99,129.8c7.92,0.44,9.87-0.47,9.97-4.99c0.18-8.15,0.31-16.33-0.16-24.46c-0.1-1.81-2.73-4.9-4.28-4.96
		c-11.07-0.43-22.16-0.23-33.2-0.23c0,3.57,0,6.48,0,9.75c6.63,0,12.93-0.02,19.22,0.01c6.71,0.03,8.41,1.78,8.45,8.65
		C130.01,118.87,129.99,124.17,129.99,129.8z M58.05,95.1c-10.69,0-20.79-0.04-30.89,0.02c-5.36,0.03-7.02,1.76-7.06,7.25
		c-0.05,6.48-0.01,12.95-0.01,19.43c0,7.63,1.89,9.11,10.14,7.55c0-4.7,0-9.49,0-14.28c0.01-8.83,1.3-10.15,9.94-10.16
		c5.92-0.01,11.83,0,17.88,0C58.05,101.39,58.05,98.6,58.05,95.1z M98,129.75c0-5.61,0-10.58,0-15.55c0-27.27,0.05-54.55-0.07-81.82
		c-0.01-1.62-0.94-4.29-2.05-4.66c-4.13-1.37-3.53,1.98-3.53,4.39c-0.02,31.1-0.02,62.2-0.01,93.29c0,1.44,0.19,2.87,0.29,4.35
		C94.48,129.75,95.92,129.75,98,129.75z M67.9,129.52c0-1.94,0-3.74,0-5.55c0-21.13-0.01-42.27-0.01-63.4
		c0-9.98,0.08-19.97-0.11-29.95c-0.02-1.1-1.59-2.17-2.44-3.26c-1.08,0.99-2.25,1.9-3.18,3.01c-0.33,0.39-0.06,1.29-0.06,1.95
		c0,30.95,0.05,61.9-0.07,92.85C62.02,129.13,63.08,130.93,67.9,129.52z M102.38,106.78c0,8.09,0,15.58,0,22.82
		c8.76,0,17.13,0,25.63,0c0-6.05-0.08-11.69,0.03-17.32c0.07-3.78-1.69-5.51-5.38-5.5C116.03,106.79,109.4,106.78,102.38,106.78z
		 M57.94,129.83c0-7.77,0-15.15,0-22.98c-7.36,0-14.46-0.23-21.51,0.19c-1.5,0.09-3.98,2.46-4.09,3.92
		c-0.46,6.21-0.19,12.46-0.19,18.88C40.99,129.83,49.23,129.83,57.94,129.83z M45.36,90.93c0.23-4.54-0.32-9.04,0.85-13.03
		c1.7-5.79,7.72-2.62,11.66-4.15c0-3.81,0-7.51,0-11.6c-5.63,0-10.91-0.17-16.17,0.12c-1.26,0.07-3.45,1.67-3.48,2.62
		c-0.27,8.7-0.16,17.41-0.16,26.04C40.89,90.93,42.99,90.93,45.36,90.93z M102.24,62.14c0,4.4,0,8.01,0,11.83
		c1.54,0.1,2.83,0.23,4.12,0.26c7.1,0.17,8.37,1.44,8.4,8.53c0.01,2.74,0,5.49,0,8.11c2.94,0,5.01,0,7.44,0
		c0-8.64,0.13-16.92-0.15-25.19c-0.04-1.21-2.01-3.3-3.19-3.38C113.44,61.94,107.98,62.14,102.24,62.14z M102.2,45.77
		c10.15-0.35,5.46,7.57,7.24,12.1c1.29,0,2.65,0,4.46,0c0-5.76,0-11.21,0-16.66c0.01-10.28,0.01-10.29-10.15-9.81
		c-0.46,0.02-0.91,0.29-1.55,0.5C102.2,36.36,102.2,40.79,102.2,45.77z M57.98,31.56c-2.02-0.09-3.5-0.22-4.97-0.22
		c-6.13-0.01-6.64,0.46-6.67,6.41c-0.03,5.49,0.11,10.99-0.02,16.48c-0.09,3.64,1.19,4.85,4.57,3.46c1.43-4.75-2.75-12.4,7.1-12
		C57.98,40.92,57.98,36.48,57.98,31.56z M90.43,51.38c-7.07,0-13.75,0-20.37,0c0,3.16,0,5.93,0,9.28c5.54,0,10.81-0.17,16.07,0.06
		c3.42,0.15,5.01-0.91,4.54-4.48C90.46,54.65,90.5,53.02,90.43,51.38z M70.02,71.85c6.93,0,13.57,0,20.63,0
		c0-2.51,0.28-4.68-0.12-6.72c-0.21-1.05-1.61-2.6-2.53-2.64c-5.9-0.24-11.82-0.12-17.98-0.12C70.02,65.88,70.02,68.77,70.02,71.85z
		 M69.96,95.66c4.54,0,8.64,0,12.75,0c8.76,0.01,8.77,0.01,7.7-8.83c-0.03-0.26-0.41-0.48-0.63-0.72c-6.54,0-13.09,0-19.81,0
		C69.96,89.22,69.96,91.99,69.96,95.66z M70.09,97.65c0,3.2,0,6.08,0,9.1c6.9,0,13.46,0,20.2,0c0-3.14,0-6.01,0-9.1
		C83.37,97.65,76.82,97.65,70.09,97.65z M90.03,109.37c-6.65,0-13.33,0-20,0c0,3.15,0,5.92,0,9.31c4.54,0,8.81,0,13.08,0
		c8.22,0,8.23,0,7.4-8.36C90.49,110.02,90.23,109.75,90.03,109.37z M90.31,39.39c-6.9,0-13.46,0-20.15,0c0,3.32,0,6.34,0,9.28
		c6.97,0,13.52,0,20.15,0C90.31,45.41,90.31,42.51,90.31,39.39z M90.65,129.85c0-2.56,0.23-4.71-0.1-6.78
		c-0.15-0.98-1.35-2.53-2.11-2.56c-6.08-0.21-12.17-0.12-18.32-0.12c0,3.56,0,6.43,0,9.46C76.93,129.85,83.37,129.85,90.65,129.85z
		 M90.28,74.5c-7.05,0-13.61,0-20.1,0c0,3.3,0,6.19,0,9.18c6.85,0,13.29,0,20.1,0C90.28,80.58,90.28,77.69,90.28,74.5z M90.38,28.16
		c-7.19,0-13.74,0-20.29,0c0,3.13,0,5.87,0,8.77c6.88,0,13.44,0,20.29,0C90.38,33.9,90.38,31.16,90.38,28.16z M102,90.79
		c3.91,0,7.27,0,10.57,0c1.22-14.48,0.3-15.74-10.26-14.18c-0.09,0.56-0.29,1.19-0.29,1.82C101.98,82.41,102,86.4,102,90.79z
		 M58.23,76.56c-10.98-1.3-13.33,2.3-10.09,14.34c3.21,0,6.43,0,10.09,0c0-1.95,0-3.57,0-5.2C58.23,82.74,58.23,79.78,58.23,76.56z
		 M102.19,58.28c1.83-0.17,3.21-0.29,4.53-0.41c0.82-9.18,0.3-11.12-4.53-9.53C102.19,51.36,102.19,54.45,102.19,58.28z
		 M57.95,57.99c0-3.67,0-6.74,0-10.7c-1.89,0.82-4.24,1.23-4.37,2.01c-0.47,2.8-0.18,5.73-0.18,8.69
		C55.11,57.99,56.37,57.99,57.95,57.99z"/>
	<path d="M157.35,45.76c-2.53,1.71-4.06,3.51-5.15,3.28c-1.46-0.31-2.59-2.2-3.86-3.41c1.17-1.19,2.32-3.32,3.51-3.35
		C153.28,42.26,154.76,44.02,157.35,45.76z"/>
	<path d="M46.23,28.2c-1.82-2.25-3.84-3.71-3.64-4.75c0.28-1.47,2.01-3.28,3.47-3.68c0.86-0.24,3.35,1.92,3.39,3.06
		C49.5,24.26,47.8,25.76,46.23,28.2z"/>
	<path d="M24.7,25.85c-1.66-2.52-3.52-4.17-3.22-5.15c0.45-1.46,2.43-2.44,3.75-3.62c1.01,1.29,2.73,2.53,2.82,3.88
		C28.14,22.17,26.42,23.49,24.7,25.85z"/>
	<path d="M114.51,18.02c1.6,2.31,3.46,3.85,3.21,4.89c-0.36,1.48-2.27,2.57-3.51,3.83c-1.12-1.34-2.91-2.58-3.13-4.06
		C110.91,21.59,112.81,20.2,114.51,18.02z"/>
	<path d="M13.92,46.17c-2.99,1.52-4.6,3-6.01,2.83c-1.14-0.13-2.95-2.36-2.82-3.46c0.15-1.27,2.14-3.26,3.27-3.23
		C9.79,42.36,11.16,44.14,13.92,46.17z"/>
	<path d="M150.48,40.94c-1.69-3.01-3.26-4.56-3.17-6.01c0.07-1.12,2.25-2.94,3.45-2.92c1.15,0.02,3.17,2.02,3.17,3.16
		C153.95,36.61,152.31,38.07,150.48,40.94z"/>
	<path d="M9.41,30.09c1.76,2.37,3.49,3.68,3.43,4.9c-0.07,1.35-1.78,2.62-2.78,3.93c-1.34-1.19-3.3-2.18-3.78-3.65
		C5.97,34.29,7.79,32.62,9.41,30.09z"/>
	<path d="M11,60.86c-1.57-2.45-3.21-3.87-3.07-5.09c0.15-1.33,1.95-2.48,3.03-3.71c1.24,1.27,3.15,2.38,3.5,3.85
		C14.7,56.93,12.77,58.46,11,60.86z"/>
	<path d="M20.61,26.01c-2.27,1.85-3.71,3.86-4.75,3.67c-1.46-0.27-2.63-2.16-3.92-3.36c1.17-1.15,2.22-3.05,3.53-3.25
		C16.69,22.89,18.18,24.52,20.61,26.01z"/>
	<path d="M154.76,56.11c-2.94,1.49-4.54,2.96-5.98,2.81c-1.11-0.11-2.9-2.32-2.79-3.44c0.12-1.23,2.14-3.24,3.22-3.17
		C150.67,52.41,152.05,54.14,154.76,56.11z"/>
	<path d="M41.28,19.95c-2.45,1.46-4.07,3.17-5.15,2.88c-1.36-0.37-2.27-2.37-3.38-3.67c1.23-1.03,2.48-2.89,3.7-2.87
		C37.75,16.31,39.01,18.12,41.28,19.95z"/>
	<path d="M124.61,24.88c-1.92-2.45-3.78-3.82-3.61-4.85c0.24-1.46,1.79-3.4,3.13-3.74c0.94-0.24,3.36,1.73,3.51,2.91
		C127.82,20.54,126.19,22.11,124.61,24.88z"/>
	<path d="M141.09,20.5c-2.88,1.87-4.32,3.51-5.74,3.5c-1.14-0.02-3.13-2.04-3.14-3.18c-0.01-1.24,1.76-3.4,2.91-3.5
		C136.52,17.19,138.08,18.78,141.09,20.5z"/>
	<path d="M145.06,31.54c-1.78-2.34-3.56-3.65-3.51-4.91c0.04-1.27,1.89-2.48,2.95-3.72c1.27,1.16,3.24,2.15,3.59,3.54
		C148.35,27.53,146.59,29.11,145.06,31.54z"/>
	<path class="st0" d="M42.65,57.45C34,60.54,34,60.54,34.01,69.78c0,6.95,0,13.9,0,21.13c-4.63,0.28-8.86,0.55-13.74,0.85
		c0-4.92-0.08-9.96,0.02-14.99c0.12-5.64,0.2-11.29,0.71-16.9c0.31-3.41,1.81-5.43,6.22-5.29c2.82,0.09,5.79-2.38,8.53-3.99
		c0.5-0.29,0.18-1.97,0.24-3.01c-1.01,0.13-2.47-0.13-2.94,0.44c-3.32,4.05-6.87,3.7-10.33,0.55c-3.6-3.28-2.71-7.28-0.72-10.96
		c3.26-6.01,12.61-8.21,18.37-4.36c1.06,0.71,2.15,2.28,2.19,3.48C42.76,43.68,42.65,50.64,42.65,57.45z"/>
	<path class="st0" d="M140.01,91.76c-4.75-0.29-9.02-0.55-13.91-0.85c0-7.24,0-14.35,0-21.46c0-8.8,0-8.8-8.32-11.99
		c0-6.84-0.08-13.81,0.08-20.79c0.02-1.11,0.82-2.56,1.73-3.22c6.54-4.79,17.38-1.18,19.77,6.48c1.13,3.63,0.88,6.92-2.52,9.33
		c-3.36,2.38-6.4,2.28-9.27-0.95c-0.6-0.68-1.95-0.7-2.95-1.03c0.01,1.2-0.43,3.13,0.12,3.48c2.56,1.61,5.52,4.1,8.1,3.85
		c5.11-0.5,6.38,2.39,6.76,5.94c0.54,5.11,0.36,10.3,0.42,15.45C140.05,81.3,140.01,86.59,140.01,91.76z"/>
	<path class="st0" d="M129.99,129.8c0-5.63,0.02-10.93-0.01-16.24c-0.03-6.88-1.73-8.62-8.45-8.65c-6.3-0.03-12.6-0.01-19.22-0.01
		c0-3.27,0-6.18,0-9.75c11.04,0,22.13-0.2,33.2,0.23c1.56,0.06,4.18,3.16,4.28,4.96c0.47,8.13,0.34,16.31,0.16,24.46
		C139.85,129.33,137.91,130.25,129.99,129.8z"/>
	<path class="st0" d="M58.05,95.1c0,3.5,0,6.28,0,9.8c-6.05,0-11.96-0.01-17.88,0c-8.64,0.01-9.93,1.34-9.94,10.16
		c-0.01,4.79,0,9.57,0,14.28c-8.25,1.56-10.14,0.08-10.14-7.55c0-6.48-0.04-12.95,0.01-19.43c0.04-5.49,1.7-7.22,7.06-7.25
		C37.26,95.06,47.36,95.1,58.05,95.1z"/>
	<path class="st0" d="M98,129.75c-2.09,0-3.53,0-5.37,0c-0.1-1.47-0.29-2.91-0.29-4.35c-0.01-31.1-0.01-62.2,0.01-93.29
		c0-2.41-0.6-5.77,3.53-4.39c1.11,0.37,2.04,3.04,2.05,4.66c0.12,27.27,0.08,54.55,0.07,81.82C98,119.18,98,124.15,98,129.75z"/>
	<path class="st0" d="M67.9,129.52c-4.83,1.41-5.88-0.39-5.87-4.34c0.11-30.95,0.07-61.9,0.07-92.85c0-0.67-0.27-1.56,0.06-1.95
		c0.93-1.11,2.1-2.02,3.18-3.01c0.85,1.09,2.42,2.16,2.44,3.26c0.19,9.98,0.11,19.97,0.11,29.95c0,21.13,0.01,42.27,0.01,63.4
		C67.91,125.78,67.9,127.58,67.9,129.52z"/>
	<path class="st0" d="M102.38,106.78c7.02,0,13.65,0.01,20.28,0c3.69,0,5.45,1.73,5.38,5.5c-0.1,5.64-0.03,11.27-0.03,17.32
		c-8.5,0-16.87,0-25.63,0C102.38,122.36,102.38,114.87,102.38,106.78z"/>
	<path class="st0" d="M57.94,129.83c-8.71,0-16.96,0-25.79,0c0-6.41-0.26-12.67,0.19-18.88c0.11-1.46,2.59-3.83,4.09-3.92
		c7.05-0.42,14.15-0.19,21.51-0.19C57.94,114.69,57.94,122.06,57.94,129.83z"/>
	<path class="st0" d="M45.36,90.93c-2.37,0-4.47,0-7.3,0c0-8.64-0.11-17.35,0.16-26.04c0.03-0.95,2.22-2.55,3.48-2.62
		c5.26-0.3,10.54-0.12,16.17-0.12c0,4.09,0,7.79,0,11.6c-3.94,1.54-9.96-1.64-11.66,4.15C45.04,81.9,45.59,86.39,45.36,90.93z"/>
	<path class="st0" d="M102.24,62.14c5.74,0,11.2-0.2,16.62,0.16c1.18,0.08,3.15,2.16,3.19,3.38c0.28,8.27,0.15,16.56,0.15,25.19
		c-2.44,0-4.51,0-7.44,0c0-2.62,0.01-5.36,0-8.11c-0.03-7.09-1.29-8.37-8.4-8.53c-1.29-0.03-2.58-0.16-4.12-0.26
		C102.24,70.15,102.24,66.54,102.24,62.14z"/>
	<path class="st0" d="M102.2,45.77c0-4.98,0-9.41,0-13.86c0.65-0.22,1.09-0.48,1.55-0.5c10.16-0.48,10.16-0.48,10.15,9.81
		c0,5.45,0,10.91,0,16.66c-1.81,0-3.17,0-4.46,0C107.66,53.34,112.35,45.43,102.2,45.77z"/>
	<path class="st0" d="M57.98,31.56c0,4.92,0,9.36,0,14.13c-9.85-0.4-5.67,7.25-7.1,12c-3.38,1.39-4.66,0.18-4.57-3.46
		c0.14-5.49-0.01-10.99,0.02-16.48c0.03-5.94,0.54-6.42,6.67-6.41C54.48,31.34,55.96,31.47,57.98,31.56z"/>
	<path class="st0" d="M90.43,51.38c0.07,1.64,0.03,3.27,0.24,4.86c0.47,3.57-1.12,4.63-4.54,4.48c-5.26-0.23-10.54-0.06-16.07-0.06
		c0-3.35,0-6.12,0-9.28C76.68,51.38,83.36,51.38,90.43,51.38z"/>
	<path class="st0" d="M70.02,71.85c0-3.08,0-5.97,0-9.48c6.16,0,12.08-0.12,17.98,0.12c0.92,0.04,2.32,1.59,2.53,2.64
		c0.4,2.04,0.12,4.22,0.12,6.72C83.6,71.85,76.95,71.85,70.02,71.85z"/>
	<path class="st0" d="M69.96,95.66c0-3.67,0-6.44,0-9.55c6.73,0,13.27,0,19.82,0c0.22,0.24,0.6,0.46,0.63,0.72
		c1.07,8.84,1.06,8.84-7.7,8.83C78.61,95.66,74.5,95.66,69.96,95.66z"/>
	<path class="st0" d="M70.09,97.65c6.72,0,13.28,0,20.2,0c0,3.09,0,5.96,0,9.1c-6.74,0-13.3,0-20.2,0
		C70.09,103.74,70.09,100.85,70.09,97.65z"/>
	<path class="st0" d="M90.03,109.37c0.2,0.38,0.45,0.65,0.48,0.95c0.83,8.36,0.83,8.36-7.4,8.36c-4.27,0-8.54,0-13.08,0
		c0-3.39,0-6.16,0-9.31C76.7,109.37,83.38,109.37,90.03,109.37z"/>
	<path class="st0" d="M90.31,39.39c0,3.12,0,6.02,0,9.28c-6.63,0-13.19,0-20.15,0c0-2.93,0-5.95,0-9.28
		C76.85,39.39,83.41,39.39,90.31,39.39z"/>
	<path class="st0" d="M90.65,129.85c-7.28,0-13.72,0-20.53,0c0-3.02,0-5.9,0-9.46c6.15,0,12.24-0.09,18.32,0.12
		c0.77,0.03,1.96,1.58,2.11,2.56C90.88,125.14,90.65,127.29,90.65,129.85z"/>
	<path class="st0" d="M90.28,74.5c0,3.19,0,6.08,0,9.18c-6.82,0-13.25,0-20.1,0c0-2.99,0-5.88,0-9.18
		C76.67,74.5,83.23,74.5,90.28,74.5z"/>
	<path class="st0" d="M90.38,28.16c0,3.01,0,5.74,0,8.77c-6.86,0-13.41,0-20.29,0c0-2.9,0-5.64,0-8.77
		C76.64,28.16,83.19,28.16,90.38,28.16z"/>
	<path class="st0" d="M102,90.79c0-4.39-0.01-8.38,0.01-12.36c0-0.63,0.2-1.26,0.29-1.82c10.56-1.57,11.48-0.31,10.26,14.18
		C109.26,90.79,105.91,90.79,102,90.79z"/>
	<path class="st0" d="M58.23,76.56c0,3.22,0,6.18,0,9.14c0,1.63,0,3.25,0,5.2c-3.66,0-6.88,0-10.09,0
		C44.91,78.85,47.25,75.25,58.23,76.56z"/>
	<path class="st0" d="M102.19,58.28c0-3.82,0-6.92,0-9.94c4.83-1.59,5.34,0.36,4.53,9.53C105.4,57.99,104.02,58.11,102.19,58.28z"/>
	<path class="st0" d="M57.95,57.99c-1.58,0-2.85,0-4.55,0c0-2.95-0.28-5.88,0.18-8.69c0.13-0.78,2.48-1.19,4.37-2.01
		C57.95,51.25,57.95,54.32,57.95,57.99z"/>
</g>
</svg>
