<?xml version="1.0" encoding="utf-8"?>
<!-- Generator: Adobe Illustrator 23.0.0, SVG Export Plug-In . SVG Version: 6.00 Build 0)  -->
<svg version="1.1" id="Layer_1" xmlns="http://www.w3.org/2000/svg" xmlns:xlink="http://www.w3.org/1999/xlink" x="0px" y="0px"
	 viewBox="0 0 173 177" style="enable-background:new 0 0 173 177;" xml:space="preserve">
<style type="text/css">
	.st0{fill:#FFFFFF;}
</style>
<g>
	<path class="st0" d="M0,177C0,118,0,59,0,0c57.67,0,115.33,0,173,0c0,59,0,118,0,177C115.33,177,57.67,177,0,177z M60.09,44.46
		c-0.38-2.45-0.62-4.93-1.17-7.35c-2.35-10.52-7.8-18.96-18.94-20.71c-6.48-1.02-13.7-0.15-20.09,1.64
		C9.65,20.9,7.63,29.53,13.56,38.42c3.08,4.62,5.51,9.84,7.34,15.11c3.5,10.04,0.9,20-1.36,29.95c-3.71,16.37-7.68,32.69-5.68,49.79
		c1.84,15.73,10.88,27.4,26.34,30.66c9.19,1.94,18.82,2.92,28.21,2.67c28.28-0.75,56.53-2.25,84.79-3.6
		c6.99-0.33,12.02-5.85,10.52-12.92c-1.3-6.08-0.57-11.98-1.11-17.8c-0.68-7.28-4.2-14.32-2.92-22.05c0.14-0.83-0.46-2.16-1.15-2.68
		c-5.85-4.43-3.41-9.33-1-14.28c0.22-0.44,0.32-0.94,0.47-1.42c4.47-14.52,1.24-28.39-4.1-41.86c-3.13-7.91-5.31-15.49-3.07-24.15
		c0.74-2.84-0.37-8.1-2.36-9.25c-2.94-1.68-7.98-1.9-11.1-0.49c-3.99,1.8-7.03,5.79-10.35,8.97c-1.11,1.06-1.84,2.53-3.32,4.64
		c-0.21-1.79-0.45-2.57-0.37-3.31c0.95-9.09-7.72-14.34-15.85-7.73c-5.13,4.17-8.74,10.19-13,15.42c-0.6,0.74-0.99,1.65-1.48,2.48
		c-0.03-3.38,1.1-6.45,1.06-9.51c-0.05-3.43-0.15-7.65-2.07-10.06c-2.68-3.37-7.01-1.69-10.61-0.05
		C69.47,22.35,63.31,32.11,60.09,44.46z"/>
	<path d="M60.09,44.46c3.22-12.35,9.38-22.1,21.29-27.51c3.6-1.64,7.93-3.31,10.61,0.05c1.92,2.41,2.02,6.63,2.07,10.06
		c0.04,3.05-1.09,6.13-1.06,9.51c0.49-0.83,0.88-1.74,1.48-2.48c4.26-5.22,7.88-11.25,13-15.42c8.13-6.61,16.8-1.36,15.85,7.73
		c-0.08,0.74,0.16,1.52,0.37,3.31c1.48-2.1,2.21-3.57,3.32-4.64c3.32-3.18,6.36-7.17,10.35-8.97c3.12-1.41,8.17-1.19,11.1,0.49
		c1.99,1.14,3.09,6.41,2.36,9.25c-2.24,8.66-0.06,16.24,3.07,24.15c5.34,13.48,8.57,27.34,4.1,41.86c-0.15,0.48-0.25,0.98-0.47,1.42
		c-2.41,4.95-4.85,9.85,1,14.28c0.69,0.52,1.29,1.86,1.15,2.68c-1.28,7.73,2.24,14.76,2.92,22.05c0.54,5.82-0.19,11.72,1.11,17.8
		c1.51,7.07-3.53,12.59-10.52,12.92c-28.26,1.34-56.52,2.85-84.79,3.6c-9.39,0.25-19.01-0.73-28.21-2.67
		c-15.46-3.26-24.5-14.93-26.34-30.66c-2-17.11,1.97-33.42,5.68-49.79c2.26-9.95,4.86-19.9,1.36-29.95
		c-1.83-5.26-4.26-10.48-7.34-15.11C7.63,29.53,9.65,20.9,19.9,18.03c6.39-1.79,13.6-2.66,20.09-1.64
		c11.14,1.75,16.58,10.19,18.94,20.71C59.46,39.52,59.71,42,60.09,44.46z M86.32,138c-0.02-0.52-0.03-1.04-0.05-1.56
		c0.91-0.14,1.82-0.45,2.72-0.41c20.93,1.12,41.87,2.19,62.79,3.47c4.47,0.27,7.41-1.86,7.45-6.32c0.06-5.61-2.8-9.24-9.6-10.07
		c-19.47-2.37-39-4.27-58.5-6.37c-1.29-0.14-2.58-0.39-3.86-0.58c0.06-0.56,0.13-1.13,0.19-1.69c11.06,0.82,22.14,1.38,33.17,2.52
		c11.02,1.15,21.99,2.88,33.03,4.36c5.52-8.67,1.65-17.56-9.45-19.09c-11.33-1.56-22.9-1.22-34.3-2.39
		c-10.04-1.03-20.1-2.46-29.92-4.73c-8.22-1.89-14.26-7.51-16.85-15.65c-2.56-8.04-4.44-16.32-6.12-24.6
		c-1.41-6.98-1.33-14.32-3.27-21.11C49.32,18.3,31.01,16.07,19.9,22.86c1.79,1.29,3.6,2.46,5.27,3.8c5.45,4.37,9.85,9.48,10.91,16.7
		c0.85,5.79-1.13,9.25-6.41,11.53c-1.19,0.52-2.41,0.96-3.96,1.58c2.94,15.66-4.16,30.01-5.92,45.99c2.35-1.71,3.91-2.88,5.5-4.01
		c16.53-11.73,34.91-7.3,43.94,10.86c6.44,12.96,6.23,26.38,1.19,39.71c-1.73,4.58-4.34,8.83-6.62,13.38
		c0.61,0.19,1.05,0.45,1.48,0.43c29.26-1.24,58.53-2.43,87.78-3.82c4.76-0.23,6.96-3.25,6.94-8.07c-0.02-5.96-3.22-9.42-10.17-9.85
		c-19.26-1.19-38.54-2.1-57.81-3.1C90.13,137.91,88.22,138,86.32,138z M16.85,123.1c0.43,4.14,0.59,8.33,1.35,12.4
		c2.36,12.54,9.38,21.2,21.98,24.45c4.95,1.28,10.21,1.29,15.22,2.35c4.22,0.89,6.38-1,8.41-4.26c7.38-11.85,10.1-24.58,7.1-38.24
		c-2.58-11.73-8.81-20.98-20.65-24.9c-11.37-3.76-20.39,1.78-28.47,9.01c-1.71,1.53-3.05,4.01-3.53,6.27
		C17.4,114.39,17.29,118.76,16.85,123.1z M97.91,94.76c7.8,2.34,9.41,1.97,10.09-5.38c0.55-5.88-0.94-12.02-1.95-17.97
		c-1.1-6.51-3.66-12.93-3.73-19.41c-0.05-4.99,2.51-10.11,4.47-14.94c0.56-1.39,3.05-2.01,4.65-2.99c0.56,1.73,1.43,3.43,1.57,5.18
		c0.12,1.59-0.62,3.23-0.88,4.87c-0.16,0.97-0.43,2.72-0.13,2.85c5.06,2.09,2.65,7.11,4.32,10.39c1.71,3.37,1.4,5.53-1.88,7.25
		c4.69,10.09,6.03,20.27,3.38,31.12c2.52,0,4.8,0,7.43,0c3.8-12.87,4.81-25.74-0.85-38.37c-4.18-9.34-6.11-18.9-4.79-29.09
		c0.17-1.3,0.06-2.68-0.19-3.97c-0.81-4.12-3.43-5.49-7.36-3.95c-9.53,3.72-20.43,22.94-17.72,32.87
		C98.06,66.97,101.14,80.61,97.91,94.76z M93.53,94.62c3.32-10.23,2.33-20.1-0.31-29.77c-3.62-13.26-6.78-26.36-2.53-40.18
		c1.38-4.48-1.61-6.49-6.11-4.76c-7.82,3.01-13.69,8.26-16.97,15.99c-5.72,13.5-5.43,27.31-0.63,40.89
		c1.56,4.41,5.09,8.13,7.72,12.17c0.53-0.28,1.05-0.56,1.58-0.83c1.9-5.93-0.26-11.51-1.59-17.28c-1.59-6.9-3.34-13.97-3.35-20.97
		c-0.01-4.43,2.87-8.94,4.84-13.24c0.4-0.88,2.58-1.38,3.85-1.23c0.56,0.06,1.07,2.15,1.26,3.37c0.22,1.44-0.34,4.07,0.15,4.24
		c5.1,1.87,2.24,6.26,3.21,9.36c1.15,3.67,0.76,6.74-3.98,7.85c4.51,10.71,8.87,21.06,5.55,32.98
		C88.77,93.7,90.98,94.13,93.53,94.62z M150.35,99.81c0.97-2.02,1.85-3.62,2.53-5.29c6.13-14.98,2.95-29.5-2.84-43.6
		c-3.46-8.42-5.46-16.62-2.98-25.65c0.49-1.78,0.06-4.99-1.11-5.75c-1.61-1.04-4.43-0.83-6.53-0.32c-1.82,0.44-3.52,1.87-4.98,3.18
		c-10.44,9.41-12.7,18.86-7.12,31.56c4.7,10.72,5.91,21.72,3.89,33.16c-0.53,3.02-1.01,6.04-1.51,9.07
		c5.37,0.76,5.79,0.83,6.48-3.73c1.01-6.7,2.32-13.59,1.71-20.23c-0.66-7.16-3.49-14.1-5.19-21.18c-1.42-5.96-1.6-11.96,1.91-17.32
		c0.83-1.26,2.94-1.67,4.47-2.47c0.41,1.49,1.14,2.97,1.16,4.47c0.04,2.8-0.33,5.6-0.53,8.29c3.12,1.12,8.73,8.99,8.68,12.7
		c-0.02,1.58-1.71,3.12-2.97,5.23c3.83,11.48,3.75,23.71-0.64,36.03C146.72,98.61,148.26,99.12,150.35,99.81z M108.48,95.49
		c7.25,1.13,7.96,0.61,8.62-6.35c0.77-8.14-0.4-16.06-4.28-23.22c-4.07-7.52-4.57-15.08-2.38-23.12c0.57-2.1,0.69-4.32,1.02-6.49
		c-0.56-0.21-1.13-0.41-1.69-0.62c-1.61,3.08-3.69,6.01-4.72,9.27c-2.59,8.17-0.65,16.17,2.25,23.86
		C110.63,77.65,112.22,86.42,108.48,95.49z M26.58,53.7c7.81-2.25,9.69-6.04,6.57-13.88c-2.51-6.33-7.24-10.64-12.8-14.19
		c-3.63-2.31-6.06-1.12-6.18,3.14c-0.05,1.73,0.45,3.68,1.28,5.21C18.98,40.49,22.71,46.88,26.58,53.7z M142.09,97.67
		c5.86-10.8,5.62-26.93-0.86-40.69c-3.11-6.59-3.88-13.33-2.99-20.41c0.13-1.02,0.14-2.05,0.2-3.07c-2,1.2-3.59,2.79-3.67,4.44
		c-0.23,4.89-1.15,10.3,0.5,14.63c5.52,14.54,6.43,29.03,1.89,44.16C139.04,97.09,140.61,97.39,142.09,97.67z M79.25,37.45
		c-0.42-0.17-0.85-0.34-1.27-0.52c-1.3,2.38-3.01,4.64-3.83,7.18c-2.6,8.12-1.24,16.15,1.48,23.97c2.48,7.14,4.58,14.27,2.48,21.79
		c5.83,3.4,7.38,2.85,7.38-3.43c-0.01-4.58-0.52-9.47-2.19-13.66c-4.42-11.07-7.26-22.1-3.73-33.96
		C79.68,38.43,79.37,37.91,79.25,37.45z"/>
	<path class="st0" d="M86.32,138c1.9,0,3.8-0.08,5.7,0.01c19.27,1,38.55,1.91,57.81,3.1c6.95,0.43,10.14,3.88,10.17,9.85
		c0.02,4.82-2.18,7.84-6.94,8.07c-29.26,1.4-58.52,2.59-87.78,3.82c-0.43,0.02-0.87-0.24-1.48-0.43c2.28-4.55,4.89-8.8,6.62-13.38
		c5.03-13.33,5.25-26.76-1.19-39.71c-9.03-18.17-27.41-22.6-43.94-10.86c-1.59,1.13-3.16,2.29-5.5,4.01
		c1.76-15.98,8.86-30.33,5.92-45.99c1.55-0.62,2.77-1.06,3.96-1.58c5.28-2.29,7.25-5.74,6.41-11.53
		c-1.06-7.22-5.45-12.33-10.91-16.7c-1.67-1.34-3.48-2.52-5.27-3.8c11.11-6.79,29.42-4.56,33.83,10.93
		c1.94,6.79,1.86,14.13,3.27,21.11c1.68,8.28,3.57,16.56,6.12,24.6c2.59,8.14,8.63,13.76,16.85,15.65
		c9.82,2.26,19.88,3.69,29.92,4.73c11.4,1.17,22.97,0.83,34.3,2.39c11.1,1.53,14.97,10.43,9.45,19.09
		c-11.04-1.48-22-3.22-33.03-4.36c-11.02-1.15-22.11-1.71-33.17-2.52c-0.06,0.56-0.13,1.13-0.19,1.69c1.29,0.2,2.57,0.44,3.86,0.58
		c19.5,2.1,39.03,4,58.5,6.37c6.8,0.83,9.66,4.46,9.6,10.07c-0.04,4.46-2.98,6.59-7.45,6.32c-20.92-1.28-41.86-2.36-62.79-3.47
		c-0.9-0.05-1.81,0.26-2.72,0.41C86.29,136.96,86.31,137.48,86.32,138z"/>
	<path class="st0" d="M16.85,123.1c0.44-4.34,0.55-8.71,1.43-12.92c0.47-2.26,1.82-4.74,3.53-6.27c8.08-7.23,17.1-12.77,28.47-9.01
		c11.84,3.92,18.07,13.17,20.65,24.9c3,13.66,0.27,26.39-7.1,38.24c-2.03,3.26-4.19,5.16-8.41,4.26
		c-5.02-1.06-10.28-1.07-15.22-2.35c-12.6-3.25-19.62-11.91-21.98-24.45C17.44,131.43,17.28,127.25,16.85,123.1z M53.31,129.04
		c0.03-6.08-2.96-11.67-7.55-13.52c-3.78-1.52-7.58-1.39-10.59,1.71c-4.26,4.37-4.77,9.65-2.96,15.22c1.93,5.96,6.98,9.42,12.3,8.67
		C49.74,140.38,53.28,135.52,53.31,129.04z"/>
	<path class="st0" d="M97.91,94.76c3.24-14.16,0.16-27.79-3.58-41.52c-2.7-9.93,8.19-29.15,17.72-32.87
		c3.93-1.54,6.56-0.17,7.36,3.95c0.25,1.29,0.36,2.67,0.19,3.97c-1.32,10.19,0.6,19.75,4.79,29.09c5.66,12.63,4.65,25.5,0.85,38.37
		c-2.63,0-4.9,0-7.43,0c2.65-10.86,1.32-21.03-3.38-31.12c3.28-1.73,3.59-3.88,1.88-7.25c-1.67-3.28,0.74-8.3-4.32-10.39
		c-0.3-0.13-0.02-1.88,0.13-2.85c0.26-1.64,1.01-3.28,0.88-4.87c-0.13-1.76-1.01-3.46-1.57-5.18c-1.6,0.97-4.08,1.59-4.65,2.99
		c-1.96,4.84-4.52,9.96-4.47,14.94c0.07,6.48,2.63,12.9,3.73,19.41c1,5.95,2.49,12.08,1.95,17.97
		C107.32,96.73,105.71,97.1,97.91,94.76z"/>
	<path class="st0" d="M93.53,94.62c-2.55-0.49-4.77-0.92-7.31-1.41c3.32-11.92-1.04-22.27-5.55-32.98c4.74-1.11,5.13-4.18,3.98-7.85
		c-0.97-3.1,1.89-7.49-3.21-9.36c-0.49-0.18,0.08-2.8-0.15-4.24c-0.19-1.22-0.7-3.31-1.26-3.37c-1.27-0.14-3.45,0.35-3.85,1.23
		c-1.97,4.3-4.85,8.81-4.84,13.24c0.01,7,1.76,14.06,3.35,20.97c1.33,5.77,3.49,11.35,1.59,17.28c-0.53,0.28-1.05,0.56-1.58,0.83
		c-2.63-4.04-6.16-7.75-7.72-12.17c-4.8-13.58-5.09-27.39,0.63-40.89c3.28-7.74,9.15-12.98,16.97-15.99
		c4.5-1.73,7.49,0.28,6.11,4.76c-4.25,13.82-1.09,26.91,2.53,40.18C95.86,74.52,96.85,84.39,93.53,94.62z"/>
	<path class="st0" d="M150.35,99.81c-2.09-0.69-3.63-1.2-5.59-1.84c4.39-12.32,4.47-24.55,0.64-36.03c1.26-2.1,2.95-3.65,2.97-5.23
		c0.06-3.71-5.55-11.58-8.68-12.7c0.19-2.69,0.57-5.5,0.53-8.29c-0.02-1.49-0.75-2.98-1.16-4.47c-1.52,0.8-3.64,1.21-4.47,2.47
		c-3.52,5.36-3.34,11.36-1.91,17.32c1.69,7.08,4.52,14.02,5.19,21.18c0.61,6.64-0.69,13.54-1.71,20.23
		c-0.69,4.55-1.11,4.49-6.48,3.73c0.5-3.02,0.98-6.05,1.51-9.07c2.02-11.45,0.82-22.44-3.89-33.16c-5.57-12.7-3.32-22.15,7.12-31.56
		c1.46-1.32,3.16-2.74,4.98-3.18c2.1-0.51,4.92-0.73,6.53,0.32c1.17,0.76,1.6,3.97,1.11,5.75c-2.48,9.03-0.48,17.23,2.98,25.65
		c5.79,14.1,8.97,28.62,2.84,43.6C152.2,96.19,151.32,97.79,150.35,99.81z"/>
	<path class="st0" d="M108.48,95.49c3.74-9.08,2.15-17.84-1.19-26.66c-2.91-7.69-4.85-15.68-2.25-23.86
		c1.03-3.26,3.12-6.19,4.72-9.27c0.56,0.21,1.13,0.41,1.69,0.62c-0.33,2.17-0.45,4.39-1.02,6.49c-2.19,8.04-1.69,15.6,2.38,23.12
		c3.88,7.16,5.04,15.08,4.28,23.22C116.44,96.1,115.73,96.62,108.48,95.49z"/>
	<path class="st0" d="M26.58,53.7c-3.87-6.82-7.6-13.21-11.12-19.71c-0.83-1.54-1.33-3.48-1.28-5.21c0.12-4.26,2.55-5.45,6.18-3.14
		c5.55,3.54,10.28,7.85,12.8,14.19C36.27,47.66,34.4,51.45,26.58,53.7z"/>
	<path class="st0" d="M142.09,97.67c-1.48-0.28-3.05-0.58-4.93-0.94c4.54-15.13,3.63-29.61-1.89-44.16
		c-1.65-4.34-0.73-9.74-0.5-14.63c0.08-1.66,1.67-3.24,3.67-4.44c-0.06,1.02-0.07,2.06-0.2,3.07c-0.89,7.08-0.12,13.81,2.99,20.41
		C147.71,70.74,147.95,86.87,142.09,97.67z"/>
	<path class="st0" d="M79.25,37.45c0.11,0.46,0.43,0.98,0.31,1.37c-3.53,11.86-0.69,22.89,3.73,33.96
		c1.68,4.19,2.19,9.09,2.19,13.66c0.01,6.28-1.55,6.83-7.38,3.43c2.1-7.52,0-14.65-2.48-21.79c-2.72-7.82-4.08-15.85-1.48-23.97
		c0.81-2.54,2.53-4.79,3.83-7.18C78.41,37.11,78.83,37.28,79.25,37.45z"/>
	<path d="M53.31,129.04c-0.03,6.48-3.58,11.34-8.81,12.08c-5.32,0.75-10.37-2.71-12.3-8.67c-1.81-5.57-1.29-10.86,2.96-15.22
		c3.02-3.09,6.81-3.23,10.59-1.71C50.35,117.38,53.34,122.96,53.31,129.04z M33.1,127.1c0,6.19,4.4,11.89,9.45,12.25
		c4.74,0.33,8.58-3.86,9.05-9.85c0.49-6.24-4.42-12.87-9.67-13.09C37.19,116.22,33.1,121.17,33.1,127.1z"/>
	<path class="st0" d="M33.1,127.1c0-5.93,4.09-10.88,8.83-10.69c5.25,0.21,10.16,6.85,9.67,13.09c-0.47,5.99-4.32,10.18-9.05,9.85
		C37.5,139,33.1,133.29,33.1,127.1z"/>
</g>
</svg>
