<?xml version="1.0" encoding="utf-8"?>
<!-- Generator: Adobe Illustrator 23.0.0, SVG Export Plug-In . SVG Version: 6.00 Build 0)  -->
<svg version="1.1" id="Layer_1" xmlns="http://www.w3.org/2000/svg" xmlns:xlink="http://www.w3.org/1999/xlink" x="0px" y="0px"
	 viewBox="0 0 253.93 255.71" style="enable-background:new 0 0 253.93 255.71;" xml:space="preserve">
<style type="text/css">
	.st0{fill:#FFFFFF;}
</style>
<g>
	<path class="st0" d="M0,255.71C0,170.32,0,85.18,0,0c84.62,0,169.24,0,253.93,0c0,85.22,0,170.48,0,255.71
		C169.33,255.71,84.67,255.71,0,255.71z M203.67,67.25c-8.93-21.93-26.61-32.16-48.62-36.09c-20.97-3.75-42.1-3.68-63.12-0.09
		C53.8,37.58,30.05,61.3,23.84,99.35c-4.74,29.09-0.43,57.33,8.97,84.99c5.19,15.27,12.98,28.82,25.65,39.12
		c22.36,18.18,48.19,24.36,76.3,20.48c44.41-6.14,75.5-29.56,90.61-72.46c4.81-13.66,7.18-27.66,2.26-42.2
		c13.12-4.17,17.83-14.05,17.35-27.25c-0.1-2.66-0.03-5.33-0.13-7.99c-0.57-15.81-1.3-31.61-1.71-47.42
		c-0.19-7.27-0.3-14.5,5.55-20.46c2.93-2.99,2.99-7.34,0.63-11.18c-2.16-3.52-5.51-4.43-9.46-4.35c-6.09,0.12-10.29,3.21-13.34,8.09
		c-12.08-5.55-22.7,1.04-22.84,14.07C203.57,44.26,203.67,55.76,203.67,67.25z"/>
	<path d="M203.67,67.25c0-11.49-0.1-22.98,0.03-34.47c0.14-13.02,10.76-19.62,22.84-14.07c3.05-4.88,7.25-7.97,13.34-8.09
		c3.94-0.08,7.3,0.83,9.46,4.35c2.35,3.84,2.29,8.2-0.63,11.18c-5.84,5.96-5.74,13.19-5.55,20.46c0.41,15.81,1.14,31.61,1.71,47.42
		c0.1,2.66,0.03,5.33,0.13,7.99c0.48,13.2-4.23,23.09-17.35,27.25c4.92,14.54,2.56,28.55-2.26,42.2
		c-15.11,42.9-46.2,66.33-90.61,72.46c-28.12,3.89-53.94-2.3-76.3-20.48c-12.67-10.3-20.46-23.86-25.65-39.12
		c-9.41-27.66-13.72-55.9-8.97-84.99C30.05,61.3,53.8,37.58,91.94,31.07c21.02-3.59,42.15-3.66,63.12,0.09
		C177.06,35.09,194.74,45.32,203.67,67.25z M164.83,212.95c0.86-1.07,1.72-2.14,3.4-4.23c-4.23,0.48-7.17,0.81-11.53,1.3
		c3.44,2.25,4.3,7.2,8.26,2.79c-3.48,4.24,2.11,5.82,2.61,8.89c-1.74-1.61-3.48-3.23-4.64-4.31c-2.44,1.74-4.42,3.17-6.24,4.47
		c1.36,2.12,2.3,3.6,3.25,5.07c-1.35-1.13-2.7-2.26-3.57-3c-2.34,1.95-4.4,3.67-6.48,5.4c1.31,1.5,2.27,2.62,3.23,3.73
		c-1.37-0.82-2.75-1.63-4.4-2.62c-2.01,1.52-4.02,3.03-6.54,4.93c5.97,2.86,10.92,1.07,10.81-2.45c2.25-0.64,4.64-1.02,6.66-2.09
		c0.6-0.32,0.13-2.63,0.16-4.02c1.11,0.03,2.23,0.07,3.34,0.1c0.97,1.33,1.94,2.66,2.92,3.99c1.98-1.59,3.96-3.18,5.95-4.78
		c2.3-1.28,4.6-2.57,6.9-3.85c-1.25-2.12-2.5-4.25-4.05-6.88c-2.33,2.47-4.07,4.31-5.66,5.99c1.14,1.89,2.05,3.39,2.95,4.87
		c-1.74-1.04-3.47-2.07-5.21-3.11c0.22-0.49,0.44-0.97,0.65-1.46c1.9-2.11,3.8-4.22,5.48-6.09c-1.37-1.96-2.57-3.68-3.56-5.09
		C167.37,211.62,166.1,212.28,164.83,212.95z M146.96,226.89c5.29,2.87,5.12-3.14,8.43-4.46c-2.46-2.21-4.37-3.93-6.25-5.62
		c-2,2.35-3.67,4.31-5.4,6.34c1.22,1.41,2.29,2.65,3.36,3.88c-1.49-0.96-2.98-1.93-4.47-2.89c-5.96,4.66-6.02,5.66-0.38,10.99
		C144.18,232.55,149.04,231.88,146.96,226.89z M221.54,131.38c-0.28-0.6-0.56-1.2-0.83-1.8c-2.14,1.27-4.95,2.05-6.27,3.9
		c-2.17,3.05-3.83,6.65-4.88,10.26c-4.14,14.16-11.58,26.12-23.06,35.4c-19.72,15.95-42.07,19.86-65.66,11.5
		c-23.93-8.48-38.18-26.33-43.63-51.15c-0.53-2.41-0.8-4.98-1.84-7.17c-1.46-3.09-4.01-4.7-7.74-3.41
		c4.79,8.09,6.35,19.04-3.29,22.63c3.98,14.15,13.59,24.2,24.79,33.05c-0.66,0.53-0.81,0.74-0.91,0.72
		c-0.48-0.08-1.04-0.11-1.41-0.38c-13.93-10.5-24-23.44-25.88-41.44c-0.6-5.76-2.22-6.64-7.56-3.78c5.46,6.1,5.93,15.55-1.29,20.98
		c7.12,15.74,15.82,30.04,33.27,36.72c-5.19-1.55-10.08-3.54-14.21-6.58c-9.24-6.78-14.88-16.43-19.59-26.65
		c-2.59-5.62-6.65-6.43-11.32-2.24c8.26,8.22,7.98,14.3,3.03,20.41c8.83,14.24,21.15,24.38,36.57,31
		c-9.53-1.86-17.56-6.63-24.14-13.33c-6.6-6.72-12.32-14.29-18.35-21.41c0.5,36.02,56.91,72.87,94.2,61.38
		c-5.53-18.22-0.43-29.98,16.3-36.99c9.1-3.82,18.61-5.2,28.32-2.79c7.72,1.91,13.83,6.15,16.92,14.27
		c17.3-16.06,27.45-35.15,32.16-57.26C214.94,152.43,213.62,141.61,221.54,131.38z M144.66,63.74c-35.03,0-63.39,28.08-63.57,62.94
		c-0.18,34.2,28.59,63.18,62.86,63.3c35.07,0.13,63.67-28.33,63.7-63.38C207.68,92.02,179.34,63.74,144.66,63.74z M199.61,70.73
		c-5.71-17.97-18.34-28.87-35.98-33.39c-29.27-7.5-58.7-7.59-87.54,2.18c-23.75,8.05-39.2,24.71-45.89,48.86
		c-7.53,27.19-4.71,54.26,1.88,80.65c1.33-3.09,2.81-6.35,4.12-9.67c0.39-1,0.55-2.23,0.37-3.29c-2.41-14.36-3.14-28.79-1.57-43.27
		c3.16-29.06,16.6-51.19,43.64-64.01c13.74-6.51,28.38-9.46,43.4-10.4C153.14,36.44,181.33,41.78,199.61,70.73z M203.57,84.36
		c-0.26,0.27-0.52,0.54-0.78,0.81c-0.06-0.61,0.02-1.27-0.18-1.84c-6.7-18.86-19.04-32.48-38.3-38.48
		c-29.58-9.21-58.58-6-86.54,6.61C63,58.13,52.1,69.2,44.94,83.76c-5.9,12.01-8.59,24.9-8.7,38.14c-0.1,11.55,0.93,23.11,1.49,35.3
		c3.32-1.02,5.26-1.61,6.48-1.99c0.52-6.71,0.94-12.79,1.47-18.85c0.71-8.11,0.79-16.35,2.38-24.28
		c5.35-26.64,18.73-47.54,44.7-58.45c17.58-7.39,36.08-8.81,54.88-7.12c13.88,1.25,27.21,4.89,37.37,14.74
		C192.06,68.09,197.45,76.61,203.57,84.36z M47.4,136.93c11.29-0.62,12.97-7.71,13.8-17.03c1.61-18.01,8.14-34.28,21.77-46.89
		c13.16-12.18,29.36-17.29,46.77-18.94c15.21-1.44,30.23-1.01,44.24,6.45c10.16,5.41,17.99,13.23,24.37,22.69
		c-5.07-15.08-19.72-27.75-36.68-32.22c-14.24-3.75-28.62-3.84-43.09-2.03c-33.17,4.16-56.11,21.07-66.18,53.65
		C48.92,113.87,46.88,125.4,47.4,136.93z M191.49,78.11c-6.56-8.98-15.22-15.3-25.76-19.1c-14.42-5.2-29.16-4.45-43.86-1.91
		c-23.49,4.05-42.03,15.22-52.14,37.84c-4.47,10.01-6.76,20.52-7.4,30.73c5.17,0,9.87,0,14.78,0c2.03-29.5,16.15-51.63,45.07-61.98
		C147.72,54.55,170.96,60.51,191.49,78.11z M232.78,50.95c-3.68-2.06-5.63-13.55-2.21-15.81c2.95-1.95,2.89-4.34,3.52-6.98
		c0.96-4.07,2.6-7.72,7.94-8.74c-6.38,7.24-6.92,8.49-7.02,18.7c-0.15,14.14,0.06,28.29-0.35,42.42c-0.14,4.92,2.25,7.4,4.82,9.2
		c0-12-0.07-24.27,0.02-36.54c0.08-10.31-1.91-20.89,6.2-29.81c3.4-3.74,0.27-8.98-4.92-8.99c-4.81-0.01-8.9,1.93-10.78,6.63
		c-1.34,3.37-2.72,6.97-2.89,10.52c-0.63,13.62-0.8,27.26-1.1,40.89C225.94,75.72,226,79,226,82.32c2.57,0.56,4.57,0.99,6.78,1.46
		C232.78,72.52,232.78,61.71,232.78,50.95z M221.99,82.04c0-3.4-0.02-6.7,0-10c0.09-15.56-2.46-31.21,1.85-46.65
		c1.03-3.7-1.72-5.04-5.04-4.89c-7.45,0.34-11.44,4.6-11.4,12.89c0.06,15.47,0.44,30.94,0.67,46.41c0.04,2.56,0.01,5.12,0.01,7.84
		c5.57-1.83,7.11-5.1,6.7-10.11c-0.46-5.62-0.01-11.31-0.16-16.97c-0.03-1.3-0.53-2.9-1.4-3.82c-2.19-2.31-4.11-12.85-1.62-14.49
		c4.2-2.76,2.58-6.62,3.41-10.04c0.52-2.14,1.54-4.15,2.34-6.22c-2.41,19.1-0.32,37.89-1.11,56.77c1.42,0,2.24,0.08,3.04-0.02
		C220.07,82.63,220.84,82.34,221.99,82.04z M218.79,108.4c-4.47-1.1-6.16-3.16-5.98-7.33c0.19-4.6,3.33-8.2,7.85-9.01
		c7.19-1.29,13.09,2.42,14.82,9.32c2.24,8.94-1.49,17.39-9.35,19.4c-4.45,1.14-9.3,0.69-15.25,1.03c2.26,1.32,3.79,2.64,5.55,3.17
		c8.11,2.46,16.4-0.51,21.11-7.33c4.75-6.88,4.42-17.14-0.77-24.42c-4.95-6.93-13.04-9.04-20.79-5.42
		c-6.95,3.24-8.68,7.76-6.54,17.05c1.26,5.45,4.93,8.53,10.29,7.56c2.12-0.39,4.59-2.51,5.56-4.5c1.24-2.53-0.76-4.17-3.51-4.73
		c-0.7-0.14-1.2-1.24-1.79-1.91c0.88-0.52,2.14-1.69,2.58-1.44c2.26,1.28,5.42,2.49,6.24,4.53c2.36,5.92-1.79,11.6-8.18,11.84
		c-3.02,0.11-6.06-0.41-9.82-0.7c1.04,1.37,1.54,2.48,2.39,3.05c4.69,3.11,14.03,1.42,17.89-3.12c4.01-4.71,4.02-14.39,0.03-18.58
		c-3.55-3.72-10.67-4.16-14.08-0.88c-3.69,3.56-3.2,6.62,1.8,11.53C219,107.63,218.83,108.09,218.79,108.4z M138.76,238.47
		c-4.05-12.07-2.84-17.7,5.09-24.16c13.62-11.09,32.19-9.14,42.66,4.48c5.27-3.61,5.59-4.54,1.53-9.12
		c-2.03-2.3-4.65-4.36-7.41-5.69c-12.95-6.25-33.73-2.15-43.51,8.43c-6.02,6.51-7.92,14.03-5.19,22.63
		C133.02,238.46,134.71,240.31,138.76,238.47z M225.33,154.6c2.14-10.59,1.21-19.04-2.24-21.42
		C216.02,140.65,216.97,151.53,225.33,154.6z M63.58,148.53c0.74,0.3,1.48,0.6,2.22,0.9c1.25-2.36,3.41-4.67,3.54-7.08
		c0.23-4.2,0.28-8.91-4.61-11.88C60.53,136.65,63.23,142.64,63.58,148.53z M50.03,140.95c-2.2,6.2-1.37,11.53,1.28,16.93
		C57.35,153.7,56.99,145.34,50.03,140.95z M41.44,180.72c5.31-6.74,2.77-14.83-4.93-16.43C38.16,169.77,39.62,174.67,41.44,180.72z
		 M162.08,215.36c-2.7-1.58-4.69-3.41-6.9-3.76c-1.16-0.18-4.08,2.58-3.86,3.41c0.6,2.37,2.41,4.44,4.27,7.5
		C157.99,219.87,159.6,218.09,162.08,215.36z M175.38,216.33c2.17,0.94,4.43,1.92,6.7,2.9c-0.4-1.51-0.39-3.35-1.28-4.44
		C179.21,212.86,177.11,211.67,175.38,216.33z"/>
	<path class="st0" d="M221.54,131.38c-7.92,10.23-6.6,21.05,3.69,25.83c-4.71,22.12-14.86,41.2-32.16,57.26
		c-3.09-8.11-9.2-12.35-16.92-14.27c-9.71-2.4-19.22-1.02-28.32,2.79c-16.73,7.01-21.83,18.77-16.3,36.99
		c-37.29,11.49-93.7-25.36-94.2-61.38c6.04,7.12,11.76,14.7,18.35,21.41c6.58,6.7,14.6,11.47,24.14,13.33
		c-15.42-6.61-27.74-16.75-36.57-31c4.95-6.11,5.23-12.19-3.03-20.41c4.67-4.19,8.73-3.38,11.32,2.24
		c4.72,10.22,10.36,19.87,19.59,26.65c4.13,3.03,9.02,5.02,14.21,6.58c-17.45-6.68-26.14-20.98-33.27-36.72
		c7.22-5.43,6.75-14.88,1.29-20.98c5.34-2.86,6.96-1.98,7.56,3.78c1.88,18,11.94,30.95,25.88,41.44c0.36,0.27,0.93,0.29,1.41,0.38
		c0.11,0.02,0.25-0.19,0.91-0.72c-11.2-8.86-20.81-18.91-24.79-33.05c9.64-3.59,8.09-14.54,3.29-22.63
		c3.74-1.29,6.28,0.32,7.74,3.41c1.04,2.19,1.31,4.75,1.84,7.17c5.45,24.81,19.69,42.66,43.63,51.15
		c23.6,8.36,45.94,4.45,65.66-11.5c11.48-9.28,18.91-21.24,23.06-35.4c1.06-3.61,2.72-7.21,4.88-10.26c1.31-1.85,4.13-2.64,6.27-3.9
		C220.98,130.18,221.26,130.78,221.54,131.38z"/>
	<path class="st0" d="M144.66,63.74c34.67,0,63.02,28.29,62.99,62.87c-0.03,35.05-28.63,63.51-63.7,63.38
		c-34.27-0.13-63.04-29.1-62.86-63.3C81.27,91.82,109.64,63.74,144.66,63.74z M144.33,184.07c31.02,0.21,57.19-25.28,57.41-55.92
		c0.24-32.47-24.49-58.24-56.15-58.51c-32.43-0.28-58.16,24.64-58.58,56.76C86.6,157.86,112.44,183.85,144.33,184.07z"/>
	<path class="st0" d="M199.61,70.73c-18.28-28.94-46.47-34.28-77.57-32.35c-15.02,0.94-29.66,3.89-43.4,10.4
		C51.6,61.6,38.16,83.73,35,112.79c-1.57,14.48-0.84,28.91,1.57,43.27c0.18,1.05,0.02,2.29-0.37,3.29c-1.3,3.33-2.79,6.58-4.12,9.67
		c-6.6-26.39-9.42-53.46-1.88-80.65c6.69-24.15,22.14-40.81,45.89-48.86c28.84-9.77,58.27-9.69,87.54-2.18
		C181.28,41.85,193.9,52.75,199.61,70.73z"/>
	<path class="st0" d="M203.57,84.36c-6.12-7.76-11.51-16.28-18.54-23.09c-10.17-9.85-23.49-13.49-37.37-14.74
		c-18.81-1.7-37.3-0.27-54.88,7.12c-25.98,10.91-39.35,31.8-44.7,58.45c-1.59,7.93-1.68,16.17-2.38,24.28
		c-0.53,6.06-0.95,12.14-1.47,18.85c-1.22,0.37-3.16,0.97-6.48,1.99c-0.56-12.19-1.59-23.75-1.49-35.3
		c0.11-13.25,2.8-26.14,8.7-38.14C52.1,69.2,63,58.13,77.75,51.47c27.96-12.62,56.96-15.82,86.54-6.61
		c19.26,6,31.6,19.62,38.3,38.48c0.2,0.56,0.13,1.22,0.18,1.84C203.04,84.9,203.31,84.63,203.57,84.36z"/>
	<path class="st0" d="M47.4,136.93c-0.52-11.52,1.52-23.06,5-34.32c10.07-32.59,33.01-49.49,66.18-53.65
		c14.47-1.82,28.86-1.72,43.09,2.03c16.96,4.47,31.6,17.13,36.68,32.22c-6.38-9.46-14.22-17.27-24.37-22.69
		c-14.01-7.47-29.03-7.89-44.24-6.45c-17.41,1.65-33.6,6.76-46.77,18.94C69.34,85.62,62.81,101.89,61.2,119.9
		C60.37,129.22,58.69,136.31,47.4,136.93z"/>
	<path class="st0" d="M191.49,78.11c-20.53-17.6-43.77-23.56-69.3-14.43c-28.92,10.35-43.04,32.48-45.07,61.98
		c-4.92,0-9.61,0-14.78,0c0.64-10.21,2.93-20.72,7.4-30.73c10.11-22.61,28.65-33.78,52.14-37.84c14.7-2.54,29.43-3.29,43.86,1.91
		C176.27,62.81,184.93,69.12,191.49,78.11z"/>
	<path class="st0" d="M232.78,50.95c0,10.76,0,21.56,0,32.83c-2.21-0.48-4.21-0.91-6.78-1.46c0-3.32-0.06-6.6,0.01-9.88
		c0.3-13.63,0.47-27.27,1.1-40.89c0.16-3.55,1.54-7.15,2.89-10.52c1.88-4.71,5.97-6.65,10.78-6.63c5.18,0.02,8.32,5.25,4.92,8.99
		c-8.11,8.92-6.12,19.5-6.2,29.81c-0.09,12.27-0.02,24.54-0.02,36.54c-2.57-1.79-4.96-4.28-4.82-9.2
		c0.41-14.13,0.2-28.28,0.35-42.42c0.11-10.21,0.64-11.46,7.02-18.7c-5.34,1.01-6.98,4.67-7.94,8.74c-0.62,2.64-0.56,5.03-3.52,6.98
		C227.14,37.4,229.1,48.89,232.78,50.95z"/>
	<path class="st0" d="M221.99,82.04c-1.14,0.3-1.91,0.59-2.71,0.69c-0.8,0.1-1.62,0.02-3.04,0.02c0.79-18.88-1.3-37.67,1.11-56.77
		c-0.8,2.07-1.82,4.08-2.34,6.22c-0.83,3.43,0.79,7.28-3.41,10.04c-2.5,1.64-0.57,12.18,1.62,14.49c0.87,0.92,1.37,2.51,1.4,3.82
		c0.14,5.66-0.3,11.35,0.16,16.97c0.41,5.02-1.13,8.28-6.7,10.11c0-2.72,0.03-5.28-0.01-7.84c-0.23-15.47-0.61-30.94-0.67-46.41
		c-0.03-8.29,3.96-12.56,11.4-12.89c3.31-0.15,6.07,1.19,5.04,4.89c-4.31,15.44-1.76,31.08-1.85,46.65
		C221.97,75.34,221.99,78.64,221.99,82.04z"/>
	<path class="st0" d="M218.8,108.4c0.03-0.31,0.2-0.77,0.06-0.91c-5-4.91-5.49-7.97-1.8-11.53c3.41-3.29,10.53-2.85,14.08,0.88
		c3.99,4.18,3.98,13.86-0.03,18.58c-3.86,4.54-13.2,6.23-17.89,3.12c-0.86-0.57-1.35-1.69-2.39-3.05c3.75,0.29,6.8,0.82,9.82,0.7
		c6.4-0.24,10.54-5.91,8.18-11.84c-0.81-2.04-3.97-3.25-6.24-4.53c-0.45-0.25-1.7,0.92-2.58,1.44c0.59,0.66,1.09,1.76,1.79,1.91
		c2.75,0.56,4.74,2.2,3.51,4.73c-0.97,1.99-3.45,4.12-5.56,4.5c-5.36,0.98-9.03-2.11-10.29-7.56c-2.15-9.29-0.41-13.81,6.54-17.05
		c7.76-3.62,15.84-1.51,20.79,5.42c5.2,7.28,5.52,17.54,0.77,24.42c-4.71,6.82-13,9.79-21.11,7.33c-1.77-0.54-3.29-1.85-5.55-3.17
		c5.95-0.34,10.8,0.1,15.25-1.03c7.86-2.01,11.59-10.47,9.35-19.4c-1.73-6.9-7.63-10.61-14.82-9.32c-4.52,0.81-7.66,4.42-7.85,9.01
		C212.63,105.23,214.32,107.3,218.8,108.4z"/>
	<path class="st0" d="M138.76,238.47c-4.05,1.84-5.74-0.01-6.82-3.43c-2.73-8.6-0.83-16.12,5.19-22.63
		c9.77-10.58,30.56-14.68,43.51-8.43c2.76,1.33,5.38,3.39,7.41,5.69c4.06,4.59,3.74,5.51-1.53,9.12
		c-10.47-13.62-29.05-15.58-42.66-4.48C135.92,220.77,134.71,226.4,138.76,238.47z"/>
	<path class="st0" d="M225.33,154.6c-8.35-3.08-9.31-13.95-2.24-21.42C226.54,135.56,227.47,144.01,225.33,154.6z"/>
	<path class="st0" d="M63.58,148.53c-0.35-5.89-3.05-11.88,1.15-18.07c4.89,2.98,4.83,7.69,4.61,11.88
		c-0.13,2.42-2.29,4.73-3.54,7.08C65.06,149.13,64.32,148.83,63.58,148.53z"/>
	<path class="st0" d="M50.03,140.95c6.95,4.39,7.32,12.75,1.28,16.93C48.67,152.48,47.83,147.15,50.03,140.95z"/>
	<path class="st0" d="M41.44,180.72c-1.81-6.05-3.28-10.94-4.93-16.43C44.2,165.88,46.75,173.98,41.44,180.72z"/>
	<path class="st0" d="M147.1,227.03c-1.07-1.23-2.13-2.47-3.36-3.88c1.73-2.03,3.4-3.99,5.4-6.34c1.88,1.69,3.79,3.4,6.25,5.62
		c-3.31,1.32-3.14,7.34-8.43,4.46L147.1,227.03z"/>
	<path class="st0" d="M153.12,233.06c-0.96-1.11-1.93-2.22-3.24-3.73c2.08-1.73,4.14-3.45,6.48-5.4c0.87,0.73,2.22,1.87,3.58,3
		c0,0-0.15-0.13-0.15-0.13c-0.02,1.4,0.44,3.7-0.15,4.02c-2.01,1.08-4.41,1.45-6.66,2.09L153.12,233.06z"/>
	<path class="st0" d="M162.08,215.36c-2.48,2.73-4.09,4.5-6.5,7.15c-1.86-3.06-3.67-5.12-4.27-7.5c-0.21-0.84,2.7-3.6,3.86-3.41
		C157.39,211.95,159.38,213.78,162.08,215.36z"/>
	<path class="st0" d="M146.96,226.89c2.09,4.99-2.77,5.66-4.71,8.24c-5.65-5.33-5.59-6.32,0.38-10.99c1.49,0.96,2.98,1.93,4.47,2.89
		C147.1,227.03,146.96,226.89,146.96,226.89z"/>
	<path class="st0" d="M167.57,221.69c-0.22,0.49-0.44,0.97-0.65,1.46c-1.26,1.25-2.52,2.51-3.78,3.76c-1.11-0.03-2.23-0.07-3.34-0.1
		c0,0,0.15,0.13,0.15,0.13c-0.95-1.48-1.89-2.95-3.25-5.07c1.82-1.31,3.81-2.73,6.24-4.47
		C164.09,218.47,165.83,220.09,167.57,221.69L167.57,221.69z"/>
	<path class="st0" d="M172.13,226.27c-0.9-1.49-1.81-2.99-2.95-4.88c1.59-1.68,3.33-3.52,5.66-5.99c1.55,2.64,2.8,4.76,4.05,6.88
		c-2.3,1.28-4.6,2.57-6.9,3.85C171.99,226.12,172.13,226.27,172.13,226.27z"/>
	<path class="st0" d="M167.57,221.7c-0.51-3.07-6.09-4.65-2.61-8.89l-0.13,0.13c1.27-0.66,2.54-1.32,4.66-2.43
		c0.98,1.41,2.19,3.13,3.56,5.09C171.36,217.47,169.47,219.58,167.57,221.7C167.57,221.69,167.57,221.7,167.57,221.7z"/>
	<path class="st0" d="M163.13,226.91c1.26-1.25,2.52-2.51,3.78-3.76c1.74,1.04,3.47,2.07,5.21,3.11c0,0-0.14-0.14-0.14-0.14
		c-1.98,1.6-3.96,3.19-5.94,4.78C165.07,229.57,164.1,228.24,163.13,226.91z"/>
	<path class="st0" d="M152.98,232.92c0.11,3.52-4.83,5.31-10.81,2.45c2.52-1.9,4.52-3.41,6.54-4.93c1.66,0.99,3.03,1.8,4.41,2.62
		C153.12,233.06,152.98,232.92,152.98,232.92z"/>
	<path class="st0" d="M164.96,212.81c-3.96,4.41-4.82-0.54-8.26-2.79c4.36-0.49,7.3-0.82,11.53-1.3c-1.68,2.09-2.54,3.16-3.4,4.23
		C164.83,212.95,164.96,212.81,164.96,212.81z"/>
	<path class="st0" d="M175.38,216.33c1.73-4.66,3.83-3.48,5.41-1.54c0.9,1.1,0.89,2.94,1.28,4.44
		C179.81,218.25,177.55,217.27,175.38,216.33z"/>
	<path d="M144.33,184.07c-31.89-0.21-57.73-26.2-57.32-57.67c0.42-32.12,26.14-57.05,58.58-56.76
		c31.66,0.28,56.39,26.04,56.15,58.51C201.52,158.79,175.35,184.28,144.33,184.07z M125.01,177.78c-0.48-0.67-0.76-1.25-1.2-1.66
		c-18.15-17.24-9.88-46.12,11.63-52.53c1.25-0.37,2.65-2.81,2.67-4.3c0.19-14.82,0.12-29.65,0.09-44.48c0-0.92-0.34-1.83-0.51-2.71
		c-24.49,1.16-47.28,25.24-48.61,51.07C87.82,147.77,105.43,174.74,125.01,177.78z M151.34,72.4c0,15.29,0.11,30.58-0.09,45.87
		c-0.04,3.43,1.04,4.76,4.28,5.9c14.84,5.26,23.45,20.69,19.32,35.95c-1.72,6.35-5.88,12.03-8.53,17.23
		c21.96-6.71,37.38-34.35,32.54-60.94C193.9,89.13,169.37,72.77,151.34,72.4z M144.73,182.2c16.68-0.17,29.47-13.05,29.28-29.46
		c-0.18-15.71-13.53-28.81-29.23-28.69c-16.02,0.12-29.23,13.51-29.03,29.4C115.96,169.48,128.96,182.37,144.73,182.2z
		 M149.65,122.2c0-2.18,0-3.96,0-5.74c0-12.63,0-25.26,0.01-37.9c0-7.62-1.56-8.7-9.27-6.32c0,16.52,0,33.07,0,49.73
		c1.1,0.09,1.91,0.2,2.73,0.21C144.94,122.22,146.75,122.2,149.65,122.2z"/>
	<path class="st0" d="M125.01,177.78c-19.58-3.04-37.19-30.01-35.93-54.6c1.32-25.83,24.12-49.92,48.61-51.07
		c0.17,0.88,0.51,1.79,0.51,2.71c0.04,14.83,0.11,29.65-0.09,44.48c-0.02,1.49-1.43,3.93-2.67,4.3
		c-21.51,6.41-29.78,35.29-11.63,52.53C124.25,176.53,124.53,177.11,125.01,177.78z M120.64,112.02c3.86-0.05,6.47-2.73,6.44-6.61
		c-0.04-4.15-2.77-6.76-6.92-6.6c-3.77,0.15-6.34,2.96-6.22,6.82C114.05,109.45,116.8,112.07,120.64,112.02z"/>
	<path class="st0" d="M151.34,72.4c18.03,0.37,42.56,16.72,47.53,44c4.84,26.6-10.59,54.23-32.54,60.94
		c2.65-5.19,6.81-10.88,8.53-17.23c4.13-15.25-4.48-30.69-19.32-35.95c-3.24-1.15-4.32-2.47-4.28-5.9
		C151.45,102.99,151.34,87.7,151.34,72.4z M177.04,105.56c0.07-3.79-2.63-6.65-6.38-6.76c-3.8-0.12-6.74,2.52-6.9,6.2
		c-0.18,4.01,2.64,7.03,6.57,7.03C174.07,112.03,176.97,109.23,177.04,105.56z"/>
	<path class="st0" d="M144.73,182.2c-15.78,0.17-28.77-12.73-28.98-28.75c-0.2-15.89,13.01-29.27,29.03-29.4
		c15.7-0.12,29.05,12.98,29.23,28.69C174.21,169.15,161.41,182.03,144.73,182.2z M151.07,153.71c0.08-4.29-3.01-7.68-6.57-7.32
		c-3.67,0.37-6.23,2.37-6.44,6.38c-0.2,3.78,2.67,6.55,6.61,6.5C148.72,159.22,150.63,156.91,151.07,153.71z"/>
	<path class="st0" d="M149.65,122.2c-2.9,0-4.72,0.02-6.54-0.01c-0.81-0.01-1.62-0.12-2.73-0.21c0-16.66,0-33.21,0-49.73
		c7.71-2.38,9.27-1.3,9.27,6.32c-0.01,12.63-0.01,25.26-0.01,37.9C149.65,118.24,149.65,120.02,149.65,122.2z"/>
	<path d="M120.64,112.02c-3.84,0.05-6.59-2.57-6.7-6.39c-0.12-3.86,2.45-6.67,6.22-6.82c4.15-0.16,6.89,2.45,6.92,6.6
		C127.11,109.29,124.5,111.97,120.64,112.02z M121.59,99.95c-0.71,0-1.42,0-2.13,0.01c-1.22,1.81-3.56,3.76-3.35,5.39
		c0.23,1.76,2.83,3.21,4.4,4.8c1.55-1.59,4.12-3.04,4.35-4.8C125.07,103.72,122.78,101.76,121.59,99.95z"/>
	<path d="M177.04,105.56c-0.07,3.68-2.97,6.47-6.71,6.47c-3.93,0-6.75-3.02-6.57-7.03c0.16-3.69,3.09-6.32,6.9-6.2
		C174.42,98.91,177.11,101.77,177.04,105.56z M170.65,112.25c2.08-3.31,4.34-5.33,4.09-6.97c-0.26-1.71-3-4.31-4.53-4.23
		c-1.64,0.09-4.27,2.78-4.38,4.46C165.72,107.2,168.21,109.05,170.65,112.25z"/>
	<path d="M151.07,153.71c-0.44,3.2-2.35,5.51-6.41,5.56c-3.94,0.05-6.81-2.72-6.61-6.5c0.22-4.01,2.78-6.01,6.44-6.38
		C148.06,146.03,151.14,149.41,151.07,153.71z M143.38,158.2c0.74,0.02,1.47,0.05,2.21,0.07c1.18-1.83,3.35-3.7,3.26-5.46
		c-0.08-1.58-2.65-4.21-4.12-4.21c-1.57,0-4.25,2.42-4.41,4C140.14,154.34,142.26,156.32,143.38,158.2z"/>
	<path class="st0" d="M121.59,99.95c1.19,1.81,3.48,3.77,3.27,5.4c-0.23,1.76-2.8,3.21-4.35,4.8c-1.57-1.59-4.17-3.04-4.4-4.8
		c-0.21-1.63,2.13-3.58,3.35-5.39C120.17,99.96,120.88,99.95,121.59,99.95z"/>
	<path class="st0" d="M170.65,112.25c-2.44-3.2-4.92-5.05-4.82-6.73c0.11-1.69,2.74-4.37,4.38-4.46c1.53-0.08,4.28,2.52,4.53,4.23
		C174.99,106.92,172.73,108.94,170.65,112.25z"/>
	<path class="st0" d="M143.38,158.2c-1.12-1.88-3.24-3.86-3.06-5.6c0.16-1.58,2.85-4,4.41-4c1.47,0,4.04,2.63,4.12,4.21
		c0.09,1.76-2.08,3.64-3.26,5.46C144.85,158.25,144.12,158.23,143.38,158.2z"/>
</g>
</svg>
