<?xml version="1.0" encoding="utf-8"?>
<!-- Generator: Adobe Illustrator 23.0.0, SVG Export Plug-In . SVG Version: 6.00 Build 0)  -->
<svg version="1.1" id="Layer_1" xmlns="http://www.w3.org/2000/svg" xmlns:xlink="http://www.w3.org/1999/xlink" x="0px" y="0px"
	 viewBox="0 0 191 199" style="enable-background:new 0 0 191 199;" xml:space="preserve">
<style type="text/css">
	.st0{fill:#FFFFFF;}
</style>
<g>
	<path class="st0" d="M14,187c0-62.33,0-124.67,0-187c54.33,0,108.67,0,163,0c0,62.33,0,124.67,0,187C122.67,187,68.33,187,14,187z
		 M35.21,103.27c-9.65,6.39-12.81,15.35-13.17,25.35c-0.37,10.31,0.09,20.64-0.05,30.96c-0.03,1.93-1.49,3.8-1.75,5.77
		c-0.59,4.46-1.77,9.13-0.98,13.4c0.78,4.19,5.46,4.3,9.14,4.31c32.15,0.13,64.29,0.21,96.44,0.26c7.49,0.01,15.01,0.15,22.47-0.34
		c10.74-0.71,17.61-8.37,17.78-19.1c0.11-7.2-2.25-14.41,0.13-21.64c0.37-1.13-0.25-2.61-0.47-3.92c-0.57-3.37-1.55-6.72-1.69-10.11
		c-0.27-6.65,0.05-13.33-0.14-19.99c-0.1-3.48,0.18-6.15,3.74-8.23c2.02-1.18,3.49-4.04,4.27-6.45
		c3.99-12.29-0.36-22.49-13.01-30.45c8.37-3.73,10.11-10.63,9.45-18.71c-0.15-1.82,0.04-3.67-0.04-5.49
		c-0.18-4.18,0.29-7.9,2.95-11.65c3.81-5.36,0.93-11.32-5.61-12.15c-8.73-1.12-17.43-1.41-22.36,8.12
		c-12.97-11.27-38.14-11.88-56.16-2.03c-3.6-1.79-6.68-4.22-10.09-4.86c-12.68-2.38-25.52-2.93-38.12,0.42
		c-15.32,4.07-22.98,28.01-13.12,40.61c1.49,1.9,3.76,3.21,5.75,4.7c1.01,0.76,2.18,1.3,3.95,2.32
		c-11.68,4.08-14.15,12.88-13.79,23.27C21.03,96.57,26.58,100.91,35.21,103.27z"/>
	<path d="M35.21,103.27c-8.63-2.37-14.18-6.7-14.49-15.64c-0.36-10.38,2.11-19.18,13.79-23.27c-1.76-1.02-2.93-1.56-3.95-2.32
		c-1.98-1.49-4.26-2.8-5.75-4.7c-9.86-12.6-2.2-36.54,13.12-40.61c12.6-3.35,25.44-2.79,38.12-0.42c3.41,0.64,6.49,3.07,10.09,4.86
		c18.02-9.85,43.19-9.24,56.16,2.03c4.93-9.53,13.63-9.23,22.36-8.12c6.55,0.84,9.43,6.79,5.61,12.15
		c-2.66,3.75-3.14,7.46-2.95,11.65c0.08,1.83-0.11,3.67,0.04,5.49c0.66,8.08-1.08,14.98-9.45,18.71
		c12.65,7.96,17.01,18.16,13.01,30.45c-0.78,2.41-2.26,5.27-4.27,6.45c-3.56,2.08-3.83,4.75-3.74,8.23
		c0.19,6.66-0.13,13.33,0.14,19.99c0.14,3.39,1.12,6.74,1.69,10.11c0.22,1.31,0.84,2.79,0.47,3.92c-2.39,7.23-0.02,14.44-0.13,21.64
		c-0.17,10.74-7.04,18.39-17.78,19.1c-7.47,0.49-14.98,0.35-22.47,0.34c-32.15-0.05-64.29-0.13-96.44-0.26
		c-3.68-0.02-8.37-0.12-9.14-4.31c-0.79-4.27,0.39-8.94,0.98-13.4c0.26-1.97,1.73-3.84,1.75-5.77c0.14-10.32-0.32-20.65,0.05-30.96
		C22.4,118.62,25.56,109.67,35.21,103.27z M108.09,179.67c-9.1-11.82-6.28-30.08,12.88-30.87c11.61-0.48,23.25-0.51,34.86-0.21
		c3.46,0.09,4.74-0.79,5.38-3.93c1.08-5.32-1.32-9.42-7.82-10.46c-6.85-1.1-13.88-1.3-20.84-1.35c-12.84-0.09-25.63,0.72-37.81,5.3
		c-5.54,2.09-11.04,4.95-12.53,11.17c-1.12,4.65-3.19,5.99-7.52,5.06c-1.11-0.24-2.32-0.03-3.49-0.01
		c-9.77,0.15-19.3,0.7-21.97,12.93c-0.02,0.1-0.28,0.15-0.57,0.28c-7.03-3.92-14.53-3.22-22.06-1.57c-4.87,1.07-4.6,4.93-4.53,8.7
		c0.08,4.05,2.94,4.44,5.87,4.47c20.63,0.21,41.26,0.36,61.89,0.51C95.63,179.71,101.42,179.67,108.09,179.67z M58.04,126.52
		c-0.06-0.53-0.13-1.06-0.19-1.59c-4.89,1.14-9.78,2.27-15.02,3.49c4.15-4.68,9.28-4.98,14.7-4.49c1.59,0.15,3.37,0.53,4.77,0.02
		c7.07-2.6,14.04-5.47,20.93-8.19c-4.51-3.56-10.47-1.5-16.06-1.97c6.05-2.73,11.92-2.43,17.88,0.46c2.89,1.4,6.1,2.14,9.88,3.41
		c0-5.29,0-9.01,0-12.94c-1.38-0.15-2.51-0.38-3.64-0.39C77.3,104.2,63.3,104,49.31,104.01c-12.11,0.01-20.34,5.94-22.15,17.99
		c-1.56,10.42-0.99,21.17-1.26,31.78c-0.06,2.57,0.28,5.15,0.42,7.58c7.16,0,13.76,0,20.61,0c2.75-7.02,8.93-9.51,16.03-10.33
		c3.78-0.44,7.63-0.24,11.43-0.58c1.23-0.11,3.2-0.73,3.47-1.56c2.39-7.34,7.95-11.17,14.54-14.16c1.17-0.53,2.3-2.23,2.51-3.54
		c0.39-2.54,0.12-5.18,0.12-8.21c-2.35,0-4.32,0-6.28,0c-1.93,0-3.85,0-5.79,0c0.32,9.39-0.45,11.17-5.13,12.71
		c4.08-7.11,4.08-7.11,1.62-12.13c-3.84,1.66-7.75,3.32-11.64,5.04c-2.27,1-3,2.32-2.21,5.08c1.38,4.8,0.25,7.1-2.62,8.49
		c0.29-2.95,0.62-6.18,0.94-9.42c-0.51-0.09-1.03-0.18-1.54-0.28c-6.85,6.36-12.39,14.44-22.27,18.04
		C46.46,142.02,52.25,134.27,58.04,126.52z M25.18,90.98c2.83,6.13,7.26,8.09,12.73,8.22c9.16,0.22,18.32,0.4,27.48,0.46
		c20.5,0.13,40.99,0.24,61.49,0.22c10.49-0.01,21,0.1,31.44-0.64c6.78-0.48,9.4-4.22,9.71-11.08c0.66-14.67-6.66-22.38-21.52-22.4
		c-31.17-0.06-62.33-0.15-93.5,0.09c-5.91,0.05-12.02,0.86-17.68,2.54c-8.69,2.59-12.72,11.63-10.04,20.26c3.46,0,6.88,0,10.27,0
		c0.46-11.29,3.11-14.58,12.18-14.6c33-0.08,65.99-0.07,98.99-0.01c6.54,0.01,8.74,2.74,8.6,10c-0.1,5.04-2.42,6.93-8.76,6.94
		c-14.17,0.02-28.33,0-42.5,0C78.08,90.98,52.09,90.98,25.18,90.98z M40.7,47.19c-5.17-7.87-2.92-15.64,5.54-17.29
		c5.3-1.03,11.31-0.54,16.56,0.88c6.73,1.82,10.31,7.45,10.14,14.44c-0.13,5.47-1.43,10.92-2.17,16.11c3.44,0,7.79,0,11.96,0
		c0.25-0.89,0.42-1.21,0.42-1.52c0.04-9.67,0.07-19.33,0.08-29c0.01-7.14-1.33-9.25-8.32-10.72c-11.35-2.39-22.83-2.61-34.2-0.05
		c-12.61,2.84-16.99,10.48-15.58,26.41c0.83,9.33,7.19,14.58,18.78,15.42c1.16,0.08,2.34-0.07,3.5,0.04
		c5.12,0.5,8.38-2.13,9.98-6.57c1.04-2.9,1.42-6.13,1.54-9.24c0.17-4.42-2.47-6.63-6.74-7.08C46.15,38.4,42.61,41.56,40.7,47.19z
		 M160.79,18.9c-10.16-1.26-15.06,2.59-15.64,11.44c-0.09,1.33,0.19,2.71-0.1,3.98c-0.34,1.43-1.13,2.76-1.72,4.13
		c-0.77-1.4-2.1-2.75-2.22-4.21c-0.71-8.19-3.6-12.06-11.53-14.21c-3.02-0.82-6.19-1.33-9.32-1.49c-9.34-0.47-18.7-0.27-27.39,3.63
		c-2.28,1.02-5.39,3.58-5.49,5.56c-0.53,11.07-0.26,22.18-0.26,33.52c3.91,0,7.27,0,11.47,0c0-7.88-0.04-15.35,0.01-22.81
		c0.04-5.39,3.14-8.63,7.89-10.36c6.94-2.53,14.02-2.56,21.05-0.37c4.84,1.51,7.14,5.06,7.57,10.04c0.23,2.63,0.47,5.34,1.27,7.83
		c1.35,4.18,4.26,6.81,8.94,6.39c4.77-0.43,6.88-3.77,7.44-8.06c0.38-2.95,0.17-5.98,0.14-8.97C152.85,28.62,154.5,23.1,160.79,18.9
		z M129.37,179.67c0.01,0.1,0.01,0.21,0.02,0.31c6.31-0.33,12.66-0.33,18.92-1.07c6.84-0.81,11.8-5.5,12.53-11.73
		c0.46-3.92,0-7.96-0.2-11.94c-0.18-3.62-2.19-5.16-5.84-5.13c-10.14,0.08-20.29-0.28-30.41,0.11c-4.05,0.15-8.25,1.32-12.03,2.86
		c-5.97,2.44-8.66,9.6-7.08,17.01c1.36,6.36,5.52,9.53,12.6,9.58C121.71,179.69,125.54,179.67,129.37,179.67z M111.01,61.65
		c0-2.87-0.01-5.49,0-8.11c0.01-2.83-0.11-5.67,0.1-8.49c0.26-3.58,0.95-6.98,5.19-8.15c6.76-1.87,10.43,0.8,10.78,7.97
		c0.47,9.45,3.03,13.91,9.51,15.78c6.61,1.91,13.21,1.41,19.57-1.15c4.98-2,7.49-5.87,7.5-11.28c0.01-2.83-0.04-5.66,0.01-8.49
		c0.09-5.2-1.13-10.66,3.52-14.91c0.69-0.63,0.61-3.15-0.09-3.97c-0.66-0.78-2.78-0.96-3.95-0.55c-5.3,1.89-7.72,6.08-8.13,11.48
		c-0.35,4.64-0.15,9.33-0.77,13.92c-0.66,4.85-3.98,7.65-8.76,8.2c-4.65,0.54-8.13-1.76-10.07-5.86c-1.12-2.35-1.76-5.04-2.08-7.65
		c-1.11-8.87-3.57-11.77-12.47-12.12c-4.71-0.18-9.69,0.47-14.12,2c-2.5,0.86-5.67,4.12-5.88,6.53c-0.73,8.17-0.28,16.45-0.28,24.83
		C103.97,61.65,107.22,61.65,111.01,61.65z M56.17,61.85c5.1-0.3,10.08,1.84,13.01-4.25c3.2-6.64,2.71-16.92-1.76-21.65
		c-4.88-5.16-16.3-6.98-22.85-3.63c-3.84,1.96-4.87,4.37-3.95,9.18c6.18-4.98,12.91-5.92,17.21-2.39
		C62.54,42.98,62.05,51.41,56.17,61.85z M99.26,132.28c4-0.77,7.79-1.5,11.53-2.22c0-9.01,0-17.58,0-26.34c-3.93,0-7.62,0-11.53,0
		C99.26,113.33,99.26,122.56,99.26,132.28z M158.74,131.21c0-9.42,0-18.49,0-27.78c-3.36,0.21-6.42,0.4-9.33,0.59
		c-0.27,0.63-0.5,0.93-0.5,1.23c-0.07,4.81-0.13,9.62-0.14,14.43c-0.03,9.21-0.02,9.21,8.75,11.52
		C157.83,131.28,158.17,131.21,158.74,131.21z M122.67,128.96c0-8.52,0-16.84,0-25.22c-3.39,0-6.41,0-9.33,0c0,8.93,0,17.46,0,26.25
		C116.67,129.62,119.6,129.3,122.67,128.96z M136.78,104c0,8.54,0,16.57,0,24.71c3.52,0,6.61,0,9.82,0c0-8.36,0-16.42,0-24.71
		C143.35,104,140.42,104,136.78,104z M125.14,129.06c3.36-0.15,6.23-0.29,9.42-0.43c0-8.45,0-16.35,0-24.49c-3.23,0-6.25,0-9.42,0
		C125.14,112.44,125.14,120.38,125.14,129.06z M130.23,61.68c-6.61-5.28-6.41-11.59-7.15-17.68c-0.16-1.32-2.13-3.56-2.93-3.42
		c-1.77,0.3-4.65,1.74-4.74,2.9c-0.48,6.02-0.22,12.1-0.22,18.19C120.04,61.68,124.28,61.68,130.23,61.68z M51.01,141.15
		c11.21-14.45,25.75-21.84,44.38-20.5C84.25,112.68,57.41,125.3,51.01,141.15z M101.78,76.59c0.64,4.18,1.26,8.2,1.88,12.24
		c3.09,0,5.69,0,8.75,0c-0.69-2.62-1.54-4.93-1.86-7.31C109.85,76.48,107.22,74.84,101.78,76.59z M54.61,89.79
		c3.32-0.85,7.04-0.7,8.09-2.31c2.04-3.14,2.59-7.26,3.79-11.05C58.58,75.5,57.47,76.72,54.61,89.79z M92.49,88.73
		c3.25,0,5.97,0,9.08,0c-0.62-4.34-1.2-8.35-1.79-12.46c-2.23,0-4.12,0-5.98,0c-0.26,0.72-0.54,1.17-0.57,1.64
		C92.97,81.36,92.75,84.81,92.49,88.73z M56.82,76.32c-7.63-0.75-8.93,0.67-11.61,12.27C53.27,89.3,51.39,91.36,56.82,76.32z
		 M81.12,88.77c0.63-3.15,1.25-6.07,1.77-9c0.2-1.09,0.17-2.21,0.25-3.29c-6.74-1.04-6.19-2.72-8.99,12.29
		C76.31,88.77,78.43,88.77,81.12,88.77z M111.12,76.52c0.64,2.39,1.26,4.77,1.93,7.14c1.71,6.04,1.87,6.12,8.49,4.71
		C117.8,75.41,117.8,75.41,111.12,76.52z M85.45,76.25c-0.75,4.22-1.45,8.22-2.21,12.49c2.49,0,4.71,0,7.28,0
		c0.29-4.29,0.57-8.32,0.86-12.49C89.15,76.25,87.42,76.25,85.45,76.25z M74.77,76.48c-6.31-0.87-8.86,2.61-9.3,12.25
		c2.11,0,4.2,0,6.35,0C72.85,84.48,73.81,80.49,74.77,76.48z M38.25,89.31c7.8-1.33,6.17-8.7,9.59-12.84
		C39.69,75.94,36.39,80.25,38.25,89.31z M127.41,76.42c1.27,2.94,2.47,5.8,3.75,8.62c2.13,4.69,2.15,4.68,7.74,3.19
		C134.42,75.98,134.08,75.61,127.41,76.42z M130.11,88.64c-2.87-11.02-4.69-13.15-10.32-12.07
		C123.05,89.17,123.28,89.44,130.11,88.64z M134.89,76.38c5.02,4.21,2.66,13.73,12.38,12.49C143.84,77.61,142.26,75.79,134.89,76.38
		z M150.1,88.93c5.08-2.59,3.62-6.46,2.56-9.79c-1.37-4.32-5.11-3.05-8.84-2.95C145.98,80.56,147.93,84.51,150.1,88.93z"/>
	<path class="st0" d="M108.09,179.67c-6.67,0-12.46,0.03-18.25-0.01c-20.63-0.15-41.26-0.3-61.89-0.51
		c-2.93-0.03-5.79-0.42-5.87-4.47c-0.07-3.77-0.34-7.63,4.53-8.7c7.53-1.65,15.03-2.35,22.06,1.57c0.29-0.14,0.55-0.18,0.57-0.28
		c2.67-12.22,12.2-12.78,21.97-12.93c1.16-0.02,2.37-0.23,3.49,0.01c4.33,0.93,6.4-0.41,7.52-5.06c1.49-6.22,6.99-9.08,12.53-11.17
		c12.18-4.58,24.97-5.39,37.81-5.3c6.96,0.05,13.99,0.25,20.84,1.35c6.5,1.04,8.9,5.14,7.82,10.46c-0.64,3.14-1.92,4.02-5.38,3.93
		c-11.61-0.3-23.25-0.27-34.86,0.21C101.81,149.59,98.98,167.85,108.09,179.67z"/>
	<path class="st0" d="M58.04,126.52c-5.79,7.75-11.58,15.5-17.95,24.01c9.88-3.61,15.42-11.69,22.27-18.04
		c0.51,0.09,1.03,0.18,1.54,0.28c-0.32,3.24-0.65,6.48-0.94,9.42c2.87-1.39,4-3.7,2.62-8.49c-0.79-2.77-0.06-4.08,2.21-5.08
		c3.89-1.71,7.79-3.38,11.64-5.04c2.46,5.02,2.46,5.02-1.62,12.13c4.69-1.54,5.46-3.32,5.13-12.71c1.94,0,3.87,0,5.79,0
		c1.96,0,3.93,0,6.28,0c0,3.03,0.28,5.67-0.12,8.21c-0.2,1.31-1.34,3.01-2.51,3.54c-6.59,2.99-12.15,6.81-14.54,14.16
		c-0.27,0.83-2.24,1.45-3.47,1.56c-3.8,0.33-7.65,0.14-11.43,0.58c-7.1,0.83-13.28,3.31-16.03,10.33c-6.85,0-13.44,0-20.61,0
		c-0.15-2.43-0.49-5.01-0.42-7.58c0.27-10.61-0.3-21.36,1.26-31.78c1.8-12.05,10.04-17.98,22.15-17.99
		c13.99-0.01,27.98,0.19,41.98,0.32c1.13,0.01,2.26,0.23,3.64,0.39c0,3.92,0,7.65,0,12.94c-3.78-1.28-6.99-2.01-9.88-3.41
		c-5.96-2.88-11.83-3.19-17.88-0.46c5.59,0.48,11.55-1.58,16.06,1.97c-6.88,2.72-13.86,5.59-20.93,8.19
		c-1.4,0.52-3.18,0.13-4.77-0.02c-5.42-0.5-10.55-0.2-14.7,4.49c5.24-1.22,10.13-2.36,15.02-3.49
		C57.92,125.46,57.98,125.99,58.04,126.52z"/>
	<path class="st0" d="M25.18,90.98c26.91,0,52.9,0,78.89,0c14.17,0,28.33,0.02,42.5,0c6.34-0.01,8.67-1.9,8.76-6.94
		c0.14-7.27-2.07-9.99-8.6-10c-33-0.05-65.99-0.07-98.99,0.01c-9.07,0.02-11.72,3.3-12.18,14.6c-3.39,0-6.81,0-10.27,0
		c-2.68-8.62,1.35-17.67,10.04-20.26c5.65-1.68,11.76-2.49,17.68-2.54c31.16-0.24,62.33-0.15,93.5-0.09
		c14.86,0.03,22.18,7.73,21.52,22.4c-0.31,6.85-2.93,10.59-9.71,11.08c-10.44,0.74-20.96,0.63-31.44,0.64
		c-20.5,0.02-40.99-0.09-61.49-0.22c-9.16-0.06-18.32-0.24-27.48-0.46C32.43,99.07,28.01,97.12,25.18,90.98z"/>
	<path class="st0" d="M40.7,47.19c1.91-5.63,5.45-8.79,11.5-8.16c4.27,0.44,6.91,2.66,6.74,7.08c-0.12,3.11-0.5,6.34-1.54,9.24
		c-1.6,4.44-4.86,7.07-9.98,6.57c-1.16-0.11-2.34,0.04-3.5-0.04c-11.58-0.85-17.95-6.09-18.78-15.42
		c-1.41-15.93,2.97-23.57,15.58-26.41c11.36-2.56,22.84-2.33,34.2,0.05c6.98,1.47,8.33,3.58,8.32,10.72
		c-0.01,9.67-0.04,19.33-0.08,29c0,0.32-0.17,0.63-0.42,1.52c-4.17,0-8.52,0-11.96,0c0.74-5.19,2.04-10.64,2.17-16.11
		c0.17-6.99-3.41-12.61-10.14-14.44c-5.25-1.42-11.26-1.91-16.56-0.88C37.78,31.55,35.53,39.32,40.7,47.19z"/>
	<path class="st0" d="M160.79,18.9c-6.29,4.19-7.94,9.72-7.88,16.03c0.03,2.99,0.25,6.03-0.14,8.97c-0.56,4.29-2.68,7.63-7.44,8.06
		c-4.67,0.42-7.59-2.21-8.94-6.39c-0.8-2.49-1.05-5.2-1.27-7.83c-0.43-4.98-2.73-8.53-7.57-10.04c-7.03-2.19-14.11-2.16-21.05,0.37
		c-4.75,1.74-7.86,4.97-7.89,10.36c-0.05,7.47-0.01,14.93-0.01,22.81c-4.2,0-7.56,0-11.47,0c0-11.33-0.28-22.44,0.26-33.52
		c0.09-1.98,3.2-4.54,5.49-5.56c8.7-3.89,18.06-4.1,27.39-3.63c3.13,0.16,6.3,0.67,9.32,1.49c7.93,2.15,10.81,6.03,11.53,14.21
		c0.13,1.46,1.45,2.81,2.22,4.21c0.59-1.37,1.39-2.7,1.72-4.13c0.3-1.26,0.02-2.65,0.1-3.98C145.73,21.49,150.63,17.64,160.79,18.9z
		"/>
	<path class="st0" d="M129.37,179.67c-3.83,0-7.66,0.02-11.5,0c-7.08-0.04-11.24-3.22-12.6-9.58c-1.58-7.42,1.11-14.58,7.08-17.01
		c3.79-1.55,7.98-2.71,12.03-2.86c10.12-0.38,20.28-0.02,30.41-0.11c3.65-0.03,5.66,1.51,5.84,5.13c0.2,3.98,0.66,8.02,0.2,11.94
		c-0.73,6.24-5.69,10.92-12.53,11.73c-6.26,0.74-12.61,0.75-18.92,1.07C129.38,179.87,129.38,179.77,129.37,179.67z M133.76,173.02
		c4.1-1.07,8.08-1.24,10.91-3.15c1.83-1.23,2.91-5.13,2.53-7.54c-0.28-1.78-3.27-3.82-5.43-4.45c-2.89-0.83-4.91,0.99-5.61,4.19
		c-0.21,0.99-1.53,1.74-2.34,2.6c-0.68-0.84-1.33-1.7-2.05-2.51c-1.3-1.47-2.64-4.1-3.96-4.1c-2.27,0-6.31,1.44-6.45,2.65
		c-0.34,2.88,0.22,7.11,2.15,8.72C126.16,171.65,130.41,171.96,133.76,173.02z"/>
	<path class="st0" d="M111.01,61.65c-3.79,0-7.04,0-10.43,0c0-8.38-0.45-16.66,0.28-24.83c0.22-2.42,3.38-5.67,5.88-6.53
		c4.43-1.53,9.41-2.18,14.12-2c8.9,0.35,11.36,3.25,12.47,12.12c0.33,2.6,0.96,5.29,2.08,7.65c1.94,4.1,5.42,6.4,10.07,5.86
		c4.79-0.55,8.11-3.35,8.76-8.2c0.62-4.59,0.42-9.29,0.77-13.92c0.4-5.4,2.83-9.59,8.13-11.48c1.17-0.42,3.28-0.23,3.95,0.55
		c0.7,0.82,0.78,3.34,0.09,3.97c-4.65,4.25-3.43,9.71-3.52,14.91c-0.05,2.83,0,5.66-0.01,8.49c-0.01,5.41-2.52,9.28-7.5,11.28
		c-6.35,2.56-12.96,3.05-19.57,1.15c-6.48-1.87-9.04-6.33-9.51-15.78c-0.36-7.17-4.02-9.84-10.78-7.97
		c-4.24,1.17-4.93,4.57-5.19,8.15c-0.21,2.82-0.08,5.66-0.1,8.49C111,56.16,111.01,58.78,111.01,61.65z"/>
	<path class="st0" d="M56.17,61.85c5.88-10.44,6.36-18.87,1.66-22.74c-4.29-3.53-11.03-2.6-17.21,2.39
		c-0.92-4.81,0.12-7.22,3.95-9.18c6.54-3.34,17.97-1.53,22.85,3.63c4.47,4.73,4.96,15.01,1.76,21.65
		C66.26,63.69,61.27,61.56,56.17,61.85z"/>
	<path class="st0" d="M99.26,132.28c0-9.72,0-18.95,0-28.56c3.91,0,7.61,0,11.53,0c0,8.76,0,17.33,0,26.34
		C107.05,130.78,103.26,131.51,99.26,132.28z"/>
	<path class="st0" d="M158.74,131.21c-0.57,0-0.92,0.07-1.22-0.01c-8.77-2.3-8.78-2.31-8.75-11.52c0.01-4.81,0.08-9.62,0.14-14.43
		c0-0.3,0.23-0.6,0.5-1.23c2.91-0.18,5.97-0.38,9.33-0.59C158.74,112.72,158.74,121.79,158.74,131.21z"/>
	<path class="st0" d="M122.67,128.96c-3.07,0.34-6,0.66-9.33,1.03c0-8.8,0-17.32,0-26.25c2.91,0,5.94,0,9.33,0
		C122.67,112.12,122.67,120.44,122.67,128.96z"/>
	<path class="st0" d="M136.78,104c3.65,0,6.58,0,9.82,0c0,8.29,0,16.35,0,24.71c-3.21,0-6.3,0-9.82,0
		C136.78,120.57,136.78,112.54,136.78,104z"/>
	<path class="st0" d="M125.14,129.06c0-8.68,0-16.62,0-24.92c3.17,0,6.18,0,9.42,0c0,8.13,0,16.04,0,24.49
		C131.37,128.77,128.5,128.9,125.14,129.06z"/>
	<path class="st0" d="M130.23,61.68c-5.94,0-10.18,0-15.05,0c0-6.1-0.26-12.18,0.22-18.19c0.09-1.16,2.97-2.6,4.74-2.9
		c0.81-0.14,2.77,2.1,2.93,3.42C123.82,50.09,123.61,56.4,130.23,61.68z"/>
	<path class="st0" d="M51.01,141.15c6.39-15.85,33.24-28.46,44.38-20.5C76.76,119.31,62.23,126.69,51.01,141.15z"/>
	<path class="st0" d="M101.78,76.59c5.44-1.75,8.07-0.11,8.76,4.93c0.33,2.38,1.18,4.69,1.86,7.31c-3.05,0-5.66,0-8.75,0
		C103.04,84.78,102.42,80.77,101.78,76.59z"/>
	<path class="st0" d="M54.61,89.79c2.86-13.07,3.98-14.29,11.88-13.36c-1.2,3.8-1.75,7.91-3.79,11.05
		C61.65,89.09,57.92,88.94,54.61,89.79z"/>
	<path class="st0" d="M92.49,88.73c0.26-3.93,0.48-7.38,0.74-10.82c0.04-0.47,0.31-0.92,0.57-1.64c1.86,0,3.75,0,5.98,0
		c0.59,4.11,1.17,8.12,1.79,12.46C98.46,88.73,95.74,88.73,92.49,88.73z"/>
	<path class="st0" d="M56.82,76.32c-5.43,15.04-3.55,12.97-11.61,12.27C47.89,76.99,49.19,75.58,56.82,76.32z"/>
	<path class="st0" d="M81.12,88.77c-2.7,0-4.81,0-6.97,0c2.8-15.01,2.24-13.33,8.99-12.29c-0.07,1.08-0.05,2.21-0.25,3.29
		C82.37,82.71,81.75,85.62,81.12,88.77z"/>
	<path class="st0" d="M111.12,76.52c6.68-1.1,6.68-1.1,10.42,11.85c-6.62,1.42-6.78,1.34-8.49-4.71
		C112.38,81.29,111.76,78.91,111.12,76.52z"/>
	<path class="st0" d="M85.45,76.25c1.97,0,3.7,0,5.93,0c-0.29,4.17-0.56,8.2-0.86,12.49c-2.57,0-4.78,0-7.28,0
		C84,84.47,84.71,80.47,85.45,76.25z"/>
	<path class="st0" d="M74.77,76.48c-0.97,4.01-1.93,8-2.95,12.25c-2.15,0-4.24,0-6.35,0C65.91,79.09,68.46,75.61,74.77,76.48z"/>
	<path class="st0" d="M38.25,89.31c-1.86-9.05,1.44-13.37,9.59-12.84C44.42,80.61,46.05,87.98,38.25,89.31z"/>
	<path class="st0" d="M127.41,76.42c6.67-0.81,7.01-0.44,11.49,11.82c-5.58,1.49-5.61,1.5-7.74-3.19
		C129.88,82.22,128.69,79.35,127.41,76.42z"/>
	<path class="st0" d="M130.11,88.64c-6.82,0.8-7.06,0.52-10.32-12.07C125.42,75.5,127.24,77.63,130.11,88.64z"/>
	<path class="st0" d="M134.89,76.38c7.37-0.58,8.95,1.24,12.38,12.49C137.55,90.11,139.91,80.59,134.89,76.38z"/>
	<path class="st0" d="M150.1,88.93c-2.17-4.42-4.12-8.37-6.27-12.74c3.73-0.09,7.46-1.37,8.84,2.95
		C153.73,82.47,155.18,86.34,150.1,88.93z"/>
	<path d="M133.76,173.02c-3.35-1.06-7.6-1.37-10.26-3.59c-1.93-1.61-2.49-5.83-2.15-8.72c0.14-1.2,4.18-2.65,6.45-2.65
		c1.32,0,2.66,2.63,3.96,4.1c0.71,0.81,1.37,1.67,2.05,2.51c0.81-0.86,2.13-1.61,2.34-2.6c0.69-3.2,2.72-5.02,5.61-4.19
		c2.16,0.62,5.15,2.66,5.43,4.45c0.39,2.42-0.7,6.32-2.53,7.54C141.84,171.77,137.85,171.95,133.76,173.02z M133.09,170.99
		c4.02-0.82,7.36-0.9,10.03-2.29c1.49-0.77,2.45-3.71,2.49-5.69c0.02-1.15-2.51-3.48-3.43-3.27c-1.58,0.37-2.78,2.32-4.16,3.58
		c-1.24,1.13-2.62,3.21-3.73,3.08c-1.52-0.17-2.9-1.98-4.24-3.2c-1.3-1.19-2.27-3.1-3.75-3.58c-0.9-0.29-3.46,1.44-3.55,2.42
		c-0.17,1.9,0.27,4.88,1.54,5.67C127.09,169.46,130.57,170.12,133.09,170.99z"/>
	<path class="st0" d="M133.09,170.99c-2.52-0.87-6-1.53-8.8-3.27c-1.27-0.79-1.71-3.77-1.54-5.67c0.09-0.98,2.65-2.71,3.55-2.42
		c1.48,0.48,2.45,2.39,3.75,3.58c1.33,1.22,2.72,3.03,4.24,3.2c1.11,0.13,2.49-1.96,3.73-3.08c1.38-1.26,2.58-3.21,4.16-3.58
		c0.92-0.21,3.45,2.12,3.43,3.27c-0.04,1.98-1,4.91-2.49,5.69C140.45,170.09,137.11,170.17,133.09,170.99z"/>
</g>
</svg>
