<?xml version="1.0" encoding="utf-8"?>
<!-- Generator: Adobe Illustrator 23.0.0, SVG Export Plug-In . SVG Version: 6.00 Build 0)  -->
<svg version="1.1" id="Layer_1" xmlns="http://www.w3.org/2000/svg" xmlns:xlink="http://www.w3.org/1999/xlink" x="0px" y="0px"
	 viewBox="0 0 198 199" style="enable-background:new 0 0 198 199;" xml:space="preserve">
<style type="text/css">
	.st0{fill:#FFFFFF;}
</style>
<g>
	<path class="st0" d="M0,0c66,0,132,0,198,0c0,66.33,0,132.67,0,199c-66,0-132,0-198,0C0,132.67,0,66.33,0,0z M68.79,80.72
		c-10.64-5.97-19.63-4.63-24.3,3.86c-4,7.27-1.26,16.84,5.94,20.78c8.55,4.68,16.9,1.05,22.22-8.82c5.06,1.03,9.96,3.29,14.37,2.58
		c4.39-0.71,8.3-4.4,12.7-6.95c4.61,5.91,11.27,7.22,19.26,4.89c-4.55,2.75-9.15,5.29-14.07,6.81c-14.36,4.45-29.22,3.81-44.04,4.11
		c-9.76,0.2-19.6,1.37-29.19,3.21c-9.97,1.91-19.07,12.34-13.91,24.67c0.43,1.03,0.03,2.89-0.67,3.85
		c-5.27,7.2-5.69,12.52-1.27,20.29c-0.2,0.37-0.41,0.81-0.66,1.22c-7.76,12.71-2.22,23.92,12.54,24.85
		c22.6,1.42,45.2,3.16,67.83,3.62c18.61,0.38,37.33,0.01,55.84-1.71c16.62-1.54,29.48-10.43,33.91-27.33
		c2.27-8.66,3.08-18.21,2.14-27.1c-1.74-16.5-5.4-32.79-7.98-49.21c-2.39-15.21-0.9-30.05,7.45-43.28
		c7.83-12.42,4.84-21.64-9.28-25.66c-20.87-5.95-37.65,2.47-42.18,21.71c-1.55,6.58-1.36,13.56-2.46,20.27
		c-1.46,8.88-3.4,17.68-5.2,26.85c-2.56-5.1-4.58-9.14-6.8-13.56c6.11-3.86,9.02-10.16,6.79-17.92c-2.45-8.5-9.43-10.89-17.69-10.84
		c1.95-6.47,2.12-12.25-3.69-16.48c-4.32-3.15-9.02-3.39-13.58-0.68c-6.75,4.01-6.67,10.34-4.8,17.3
		c-8.14-0.22-14.16,2.69-16.88,10.25c-2.71,7.52,0.63,13.43,5.66,17.94C73.99,73.9,71.52,77.14,68.79,80.72z M22.92,43.54
		c-9.1,8.07-10.57,17.33-4.07,24.39c5.86,6.36,15.74,6.54,21.88,0.42c6.77-6.75,5.8-16.36-2.43-23.91
		c10.69-9.57,12.34-19.02,4.71-26.85c-6.44-6.61-17.29-6.56-23.74,0.13C12.27,24.98,13.66,35.39,22.92,43.54z"/>
	<path d="M68.79,80.72c2.73-3.58,5.2-6.82,7.98-10.46c-5.03-4.52-8.37-10.42-5.66-17.94c2.72-7.56,8.74-10.48,16.88-10.25
		c-1.87-6.97-1.95-13.29,4.8-17.3c4.56-2.71,9.26-2.47,13.58,0.68c5.8,4.23,5.64,10.02,3.69,16.48c8.26-0.05,15.24,2.34,17.69,10.84
		c2.23,7.75-0.68,14.05-6.79,17.92c2.22,4.42,4.24,8.46,6.8,13.56c1.8-9.16,3.74-17.97,5.2-26.85c1.1-6.72,0.91-13.69,2.46-20.27
		c4.54-19.24,21.31-27.66,42.18-21.71c14.12,4.03,17.11,13.24,9.28,25.66c-8.34,13.23-9.84,28.07-7.45,43.28
		c2.58,16.42,6.24,32.71,7.98,49.21c0.94,8.89,0.13,18.44-2.14,27.1c-4.43,16.9-17.28,25.79-33.91,27.33
		c-18.52,1.72-37.24,2.09-55.84,1.71c-22.63-0.46-45.23-2.2-67.83-3.62c-14.76-0.93-20.3-12.15-12.54-24.85
		c0.25-0.41,0.46-0.85,0.66-1.22c-4.43-7.76-4-13.08,1.27-20.29c0.71-0.97,1.1-2.82,0.67-3.85c-5.16-12.32,3.94-22.76,13.91-24.67
		c9.59-1.84,19.43-3.01,29.19-3.21c14.82-0.3,29.68,0.33,44.04-4.11c4.92-1.52,9.52-4.06,14.07-6.81
		c-7.99,2.34-14.65,1.03-19.26-4.89c-4.4,2.55-8.31,6.24-12.7,6.95c-4.42,0.71-9.31-1.55-14.37-2.58
		c-5.32,9.87-13.66,13.5-22.22,8.82c-7.2-3.94-9.94-13.52-5.94-20.78C49.16,76.09,58.15,74.75,68.79,80.72z M100.88,156.25
		c0.03,0.45,0.06,0.9,0.09,1.35c-9.27,0-18.57-0.46-27.81,0.1c-16.11,0.99-32.19,2.49-48.26,4.08c-2.39,0.24-5.48,1.51-6.76,3.34
		c-5.05,7.23-0.6,16.12,8.14,16.6c26.61,1.47,53.22,2.85,79.83,4.13c6.18,0.3,12.38,0.04,19.27,0.04
		c-6.82-10.99-11.64-21.47-12.8-33.37c-1.48-15.31,4.29-27.3,16.4-36.39c11.64-8.73,24.23-9.49,37.2-3.5
		c5.16,2.38,9.9,5.69,15.01,8.68c-1.48-20.25-9.98-39.62-6.14-60.26c-1.58-0.66-2.8-1.16-4.01-1.68
		c-8.14-3.57-11.43-9.24-8.58-17.62c1.87-5.5,5.48-10.48,8.75-15.39c1.55-2.33,4.15-3.96,6.4-6.02
		c-18.65-6.99-34.35,1.03-38.37,19.39c-0.74,3.39-0.61,6.97-1.21,10.4c-1.91,10.95-3.52,21.98-6.11,32.77
		c-3.5,14.64-13.52,23.42-28.07,25.67c-13.25,2.05-26.78,2.3-40.16,3.56c-10.74,1.02-21.61,1.56-32.11,3.82
		c-9.34,2.01-13.27,11.22-9.26,18.95c0.73,1.4,3.3,2.84,4.85,2.68c21.81-2.34,43.59-5,65.39-7.47c2.88-0.33,5.82-0.04,8.73-0.04
		c-2.12,1.3-4.22,1.44-6.32,1.67c-22,2.38-44,4.7-65.98,7.27c-2.68,0.31-5.42,1.65-7.75,3.12c-3.56,2.25-5.38,8.57-3.5,12.04
		c1.86,3.42,4.4,6.1,9.01,5.62c12.08-1.26,24.16-2.83,36.29-3.39C75.65,155.8,88.27,156.25,100.88,156.25z M135.41,185.18
		c0.06,0.5,0.11,1,0.17,1.5c8.79-2.3,17.83-3.95,26.32-7.09c8.99-3.32,16.1-9.4,19.1-19.11c3.26-10.55,3.95-21.25,1.22-31.99
		c-0.53-2.08-1.81-4.47-3.49-5.68c-4.71-3.37-9.51-6.9-14.8-9.1c-21.08-8.8-45,4.76-49.02,27.34c-2.49,13.97,2.42,26.13,8.69,38.1
		C126.18,184.11,129.15,187.44,135.41,185.18z M173.92,58.44c4.12-8.25,8.12-15.96,11.78-23.83c0.93-1.99,1.37-4.57,1.03-6.72
		c-0.88-5.6-6.58-7.89-10.33-3.86c-4.43,4.76-8.95,9.94-11.53,15.79C160.5,49.72,164.11,55.6,173.92,58.44z M85.49,68.79
		c5.92,0.01,11.49-5.66,11.42-11.62c-0.07-6.11-5.47-11.26-11.7-11.18c-5.93,0.08-11.08,5.28-11.1,11.22
		C74.08,63.32,79.45,68.78,85.49,68.79z M95.98,84.24c-0.11-6.12-5.66-11.41-11.75-11.18c-5.87,0.22-11.22,5.71-11.13,11.41
		c0.09,6.1,5.57,11.5,11.6,11.43C90.8,95.83,96.08,90.37,95.98,84.24z M101.99,57.17c-0.04,6.33,5.01,11.53,11.23,11.58
		c6.11,0.05,11.4-5.29,11.39-11.5c-0.01-5.99-5.05-11.11-11.07-11.24C107.22,45.88,102.03,50.89,101.99,57.17z M57.9,80.85
		c-6.44-0.04-11.52,4.89-11.53,11.17c0,6.08,5.44,11.41,11.57,11.31c6.09-0.1,10.96-4.99,11.07-11.1
		C69.12,85.71,64.41,80.88,57.9,80.85z M122.23,83.13c-0.09-6.01-4.99-10.68-11.02-10.51c-5.77,0.17-10.4,4.91-10.4,10.67
		c0,5.95,4.88,10.82,10.8,10.77C117.63,94,122.32,89.17,122.23,83.13z M98.89,26.95c-4.63,0.12-8.15,3.72-8.16,8.34
		c0,4.79,3.88,8.66,8.56,8.53c4.56-0.13,8.51-4.37,8.29-8.93C107.37,30.56,103.3,26.84,98.89,26.95z M104.06,69.88
		c-1.5-1.73-3.06-3.53-3.92-4.52c-2.45,2.05-4.83,4.03-7.25,6.05c1.81,1.72,3.56,3.37,4.66,4.41
		C99.76,73.81,101.71,72.04,104.06,69.88z"/>
	<path d="M22.92,43.54c-9.26-8.15-10.65-18.56-3.64-25.83c6.45-6.68,17.3-6.74,23.74-0.13c7.63,7.83,5.97,17.28-4.71,26.85
		c8.22,7.55,9.2,17.16,2.43,23.91c-6.15,6.13-16.02,5.94-21.88-0.42C12.34,60.88,13.81,51.61,22.92,43.54z M18.75,28.98
		c-0.04,6.79,5.5,12.41,12.31,12.5c6.61,0.08,12.61-5.66,12.79-12.24c0.18-6.64-6.06-12.91-12.78-12.84
		C24.33,16.47,18.79,22.13,18.75,28.98z M41.21,57.77c0.09-6.33-5-11.62-11.11-11.56c-6.16,0.06-11.17,4.88-11.33,10.91
		c-0.16,6.39,4.69,11.64,10.92,11.81C35.95,69.11,41.13,64.09,41.21,57.77z"/>
	<path class="st0" d="M100.88,156.25c-12.61,0-25.24-0.45-37.82,0.13c-12.12,0.56-24.2,2.13-36.29,3.39
		c-4.6,0.48-7.15-2.2-9.01-5.62c-1.88-3.47-0.07-9.79,3.5-12.04c2.33-1.47,5.07-2.81,7.75-3.12c21.97-2.57,43.98-4.88,65.98-7.27
		c2.09-0.23,4.2-0.37,6.32-1.67c-2.91,0-5.86-0.28-8.73,0.04c-21.8,2.47-43.58,5.13-65.39,7.47c-1.55,0.17-4.12-1.27-4.85-2.68
		c-4.02-7.72-0.08-16.94,9.26-18.95c10.49-2.26,21.37-2.8,32.11-3.82c13.38-1.27,26.91-1.51,40.16-3.56
		c14.56-2.25,24.57-11.03,28.07-25.67c2.58-10.79,4.19-21.82,6.11-32.77c0.6-3.43,0.46-7.01,1.21-10.4
		c4.02-18.36,19.72-26.38,38.37-19.39c-2.25,2.06-4.84,3.7-6.4,6.02c-3.27,4.91-6.88,9.89-8.75,15.39
		c-2.85,8.38,0.44,14.05,8.58,17.62c1.21,0.53,2.43,1.02,4.01,1.68c-3.83,20.64,4.67,40.01,6.14,60.26c-5.12-3-9.85-6.3-15.01-8.68
		c-12.96-5.98-25.56-5.23-37.2,3.5c-12.12,9.09-17.89,21.07-16.4,36.39c1.15,11.9,5.98,22.38,12.8,33.37
		c-6.89,0-13.09,0.25-19.27-0.04c-26.62-1.28-53.23-2.66-79.83-4.13c-8.74-0.48-13.19-9.37-8.14-16.6c1.28-1.83,4.37-3.1,6.76-3.34
		c16.06-1.59,32.15-3.1,48.26-4.08c9.24-0.57,18.54-0.1,27.81-0.1C100.94,157.15,100.91,156.7,100.88,156.25z"/>
	<path class="st0" d="M135.41,185.18c-6.26,2.27-9.22-1.07-11.82-6.03c-6.27-11.98-11.18-24.14-8.69-38.1
		c4.02-22.58,27.93-36.14,49.02-27.34c5.29,2.21,10.09,5.74,14.8,9.1c1.68,1.2,2.96,3.59,3.49,5.68
		c2.73,10.74,2.04,21.45-1.22,31.99c-3,9.7-10.11,15.79-19.1,19.11c-8.49,3.13-17.52,4.78-26.32,7.09
		C135.52,186.18,135.46,185.68,135.41,185.18z M152.58,134.73c-8.29,0.07-15.44,7.04-15.54,15.14c-0.09,7.44,5.77,13.04,13.52,12.9
		c8.25-0.15,15.32-7.33,15.19-15.43C165.62,139.86,160.2,134.66,152.58,134.73z"/>
	<path class="st0" d="M173.92,58.44c-9.82-2.84-13.42-8.72-9.05-18.62c2.58-5.84,7.11-11.03,11.53-15.79
		c3.74-4.03,9.44-1.73,10.33,3.86c0.34,2.15-0.1,4.73-1.03,6.72C182.04,42.48,178.04,50.19,173.92,58.44z"/>
	<path class="st0" d="M85.49,68.79c-6.04-0.01-11.41-5.48-11.38-11.58c0.03-5.93,5.18-11.13,11.1-11.22
		c6.23-0.09,11.62,5.07,11.7,11.18C96.98,63.13,91.4,68.8,85.49,68.79z"/>
	<path class="st0" d="M95.98,84.24c0.11,6.13-5.18,11.59-11.28,11.66c-6.03,0.07-11.51-5.33-11.6-11.43
		c-0.08-5.7,5.27-11.19,11.13-11.41C90.31,72.84,95.87,78.12,95.98,84.24z"/>
	<path class="st0" d="M101.99,57.17c0.04-6.28,5.23-11.29,11.55-11.16c6.01,0.13,11.06,5.25,11.07,11.24
		c0.01,6.21-5.28,11.54-11.39,11.5C106.99,68.71,101.95,63.5,101.99,57.17z"/>
	<path class="st0" d="M57.9,80.85c6.51,0.04,11.22,4.86,11.1,11.38c-0.1,6.11-4.98,11-11.07,11.1c-6.13,0.1-11.57-5.23-11.57-11.31
		C46.38,85.74,51.46,80.81,57.9,80.85z"/>
	<path class="st0" d="M122.23,83.13c0.09,6.04-4.6,10.87-10.61,10.93c-5.92,0.05-10.81-4.82-10.8-10.77c0-5.75,4.63-10.5,10.4-10.67
		C117.24,72.44,122.14,77.12,122.23,83.13z"/>
	<path class="st0" d="M98.89,26.95c4.41-0.12,8.48,3.6,8.69,7.94c0.22,4.55-3.73,8.8-8.29,8.93c-4.68,0.13-8.56-3.73-8.56-8.53
		C90.74,30.68,94.26,27.07,98.89,26.95z"/>
	<path class="st0" d="M104.06,69.88c-2.36,2.15-4.3,3.93-6.5,5.94c-1.1-1.04-2.85-2.7-4.66-4.41c2.42-2.02,4.79-4,7.25-6.05
		C101,66.35,102.56,68.15,104.06,69.88z"/>
	<path class="st0" d="M18.75,28.98c0.04-6.85,5.58-12.51,12.32-12.58c6.72-0.07,12.96,6.2,12.78,12.84
		c-0.18,6.58-6.18,12.32-12.79,12.24C24.26,41.39,18.72,35.77,18.75,28.98z"/>
	<path class="st0" d="M41.21,57.77c-0.09,6.32-5.27,11.33-11.52,11.16c-6.23-0.17-11.08-5.42-10.92-11.81
		c0.15-6.03,5.16-10.85,11.33-10.91C36.22,46.15,41.3,51.44,41.21,57.77z"/>
	<path d="M152.58,134.73c7.62-0.07,13.04,5.13,13.16,12.61c0.13,8.1-6.94,15.28-15.19,15.43c-7.75,0.14-13.61-5.46-13.52-12.9
		C137.14,141.76,144.29,134.8,152.58,134.73z M149.94,160.9c7.3,0.11,13.95-6.3,13.97-13.46c0.01-6.23-4.78-10.89-11.21-10.89
		c-7.21,0-13.64,6.19-13.7,13.18C138.93,156.01,143.64,160.81,149.94,160.9z"/>
	<path class="st0" d="M149.94,160.9c-6.31-0.09-11.01-4.89-10.95-11.16c0.07-6.99,6.5-13.18,13.7-13.18
		c6.43,0,11.23,4.66,11.21,10.89C163.89,154.6,157.24,161.01,149.94,160.9z"/>
</g>
</svg>
