<?xml version="1.0" encoding="utf-8"?>
<!-- Generator: Adobe Illustrator 23.0.0, SVG Export Plug-In . SVG Version: 6.00 Build 0)  -->
<svg version="1.1" id="Layer_1" xmlns="http://www.w3.org/2000/svg" xmlns:xlink="http://www.w3.org/1999/xlink" x="0px" y="0px"
	 viewBox="0 0 174.94 172.94" style="enable-background:new 0 0 174.94 172.94;" xml:space="preserve">
<style type="text/css">
	.st0{fill:#FFFFFF;}
</style>
<g>
	<path class="st0" d="M174.94,172.94c-58.34,0-116.66,0-174.94,0C0,115.26,0,57.61,0,0c58.34,0,116.66,0,174.94,0
		C174.94,57.68,174.94,115.32,174.94,172.94z M87.64,7.22c-16.17,0-32.33-0.12-48.5,0.03c-18.56,0.18-28.26,10.12-28.26,28.6
		c0,28.16-0.06,56.33,0.03,84.49c0.01,4.47,0.39,8.99,1.08,13.41c2.86,18.35,14.23,29,31.74,29.13c29.16,0.23,58.33,0.27,87.49-0.04
		c13.14-0.14,23.73-5.6,28.78-18.47c2.09-5.34,3.75-11.23,3.83-16.9c0.46-30.32,0.4-60.65,0.44-90.98
		c0.03-19.4-9.82-29.25-29.14-29.29C119.31,7.18,103.48,7.21,87.64,7.22z"/>
	<path d="M87.64,7.21c15.83,0,31.66-0.03,47.5,0c19.32,0.04,29.16,9.89,29.14,29.29c-0.04,30.33,0.02,60.66-0.44,90.98
		c-0.09,5.67-1.74,11.56-3.83,16.9c-5.04,12.87-15.63,18.33-28.78,18.47c-29.16,0.31-58.33,0.27-87.49,0.04
		c-17.51-0.14-28.88-10.78-31.74-29.13c-0.69-4.42-1.06-8.94-1.08-13.41c-0.09-28.16-0.03-56.33-0.03-84.49
		c0-18.49,9.7-28.43,28.26-28.6C55.31,7.09,71.48,7.22,87.64,7.21z M97.28,78.46c-7.7,6.98-11.8,6.88-18.79,0.68
		c-4.16,1.84-7.89,4.87-11.38,4.63c-3.51-0.24-6.8-3.75-9.98-5.7c-2.59,1.62-5.91,5.42-8.39,4.92c-6.38-1.27-12.25-4.55-11.14-13.41
		c-5.72,2.49-10.26,2-13.92-2.05c-3.91-4.31-3.15-9.11-0.84-13.79c-2.65-1.02-5.07-1.96-7.79-3c-0.11,1.07-0.29,2-0.29,2.93
		c-0.01,22.99-0.16,45.98,0.1,68.96c0.06,5.42,0.94,10.98,2.36,16.22c3.16,11.67,12.27,19.32,22.97,19.92
		c4.58,0.25,9.24,0.66,13.74,0.08c4.37-0.57,8.59,0.3,12.86,0.1c3.92-0.18,7.84-1.03,11.75-0.97c10.26,0.15,20.51,0.75,30.77,0.91
		c2.06,0.03,4.79-2.19,6.09-1.44c6.81,3.96,13.89,1.14,20.56,0.78c10.71-0.58,18.27-7.19,21.29-17.57
		c1.89-6.47,3.13-13.35,3.24-20.08c0.39-22.32,0.14-44.64,0.11-66.96c0-1.18-0.27-2.36-0.39-3.34c-3.21,1.28-5.94,2.37-8.67,3.46
		c4.46,12.28-0.33,18.32-14.06,17.04c0.19,7.23-4.14,11.43-10.6,11.98c-3.23,0.28-6.77-2.92-10.36-4.63
		C110.04,86.11,103.8,85.89,97.28,78.46z M131.97,62.24c0.13-7.51,4.02-11.58,10.7-12.48c-0.57-2.87-1.78-5.66-1.46-8.25
		c0.34-2.75,2.14-5.33,3.33-8.05c-3.91-2.29-7.45-5.49-6.33-10.25c0.93-3.96,3.73-7.49,5.83-11.46c-6.51,0-13.8,0-21.14,0
		c11.84,14.11,12.07,27.63,0.66,37.13c-11.05,9.2-24.73,6.33-36.03-7.56c-9.45,12.92-22.02,16.43-33.45,9.29
		c-5.16-3.23-8.54-7.8-10.13-13.7c-2.75-10.22,1.26-18.32,8.25-24.97c-7.36,0-14.44,0-22.71,0c10.88,8.11,10.74,14.53,0.62,22.54
		c4.5,4.44,4.19,9.63,1.78,14.91c7.65,2.38,9.04,4.03,10.78,12.61c6.71-2.44,12.02-0.57,15.66,5.65c6.64-6.99,12.03-6.9,19.24,0.12
		c7.48-7.34,11.44-7.39,19.93-0.25c6.06-6.81,11.67-6.76,19.14,0.26C120.11,62.06,125.03,59.95,131.97,62.24z M85.55,31.04
		c2.22-7.37-5.16-10.93-8.89-16.21c-1-1.42-3.38-2.09-5.26-2.62c-8.06-2.24-16.82,1.25-21.3,8.3c-4.53,7.13-4.07,15.99,1.17,22.38
		c5.54,6.76,14.67,9.12,22.55,5.85c6.48-2.69,9.86-8,9.2-14.43c-0.61-5.98-5.42-11.49-11.16-12.67c-4.75-0.98-8.46,1.2-10.4,5.08
		c-1,2-0.58,5.56,0.6,7.61c1.98,3.45,5.35,2.28,8.32,0.72c0.14-0.08,0.52,0.29,1.12,0.65c-2.54,3.15-5.79,3.36-8.83,1.76
		c-3.53-1.86-5.17-5.13-4.1-9.26c1.86-7.18,10.85-11.16,17.19-6.95C79.7,23.85,82.61,28.01,85.55,31.04z M90.41,28.33
		c-1.36,8.32,3.58,17.28,10.97,20.38c10.36,4.34,22.05-1.05,25.79-11.9c3.52-10.19-2.84-21.88-13.42-24.68
		c-8-2.12-17.29,1.57-20.19,8.01c-2.83,6.29-0.4,13.57,5.92,17.77c4.96,3.29,9.91,2.65,13.81-1.81c2.33-2.66,3.05-5.6,0.8-8.58
		c-2.23-2.95-5.04-3.58-8.24-1.27c-0.36,0.26-1.04,0.1-1.93,0.15c3.25-3.81,6.33-4.41,9.62-2.21c3.58,2.4,4.74,7.08,2.74,11.02
		c-3.1,6.1-10.47,8.39-16.59,5.09C94.9,37.71,91.94,33.68,90.41,28.33z M135.57,71.96c0-4.71-4.29-8.96-8.96-8.87
		c-4.47,0.08-8.55,4.21-8.6,8.71c-0.05,4.78,4.16,8.95,8.93,8.85C131.46,80.55,135.57,76.42,135.57,71.96z M67.86,64.31
		c-4.57-0.06-8.58,3.81-8.77,8.47c-0.19,4.68,4.01,9.07,8.69,9.1c4.57,0.02,8.63-3.9,8.81-8.49C76.77,68.67,72.64,64.37,67.86,64.31
		z M115.57,72.88c-0.12-4.56-4.18-8.54-8.73-8.57c-4.78-0.03-8.88,4.17-8.77,8.97c0.11,4.73,4.5,8.83,9.18,8.58
		C111.75,81.61,115.68,77.36,115.57,72.88z M40.19,60.64c0.07-5.04-3.71-8.89-8.7-8.85c-4.77,0.03-8.45,3.68-8.54,8.48
		c-0.09,5.03,3.67,8.88,8.66,8.87C36.39,69.13,40.12,65.43,40.19,60.64z M151.59,60.69c-0.04-4.86-4.17-8.87-8.99-8.72
		c-4.67,0.14-8.47,4-8.54,8.65c-0.07,4.79,4.08,8.84,8.93,8.71C147.59,69.2,151.62,65.15,151.59,60.69z M87.7,64.09
		c-4.4-0.13-8.66,3.93-8.83,8.43c-0.19,4.84,3.74,9.14,8.47,9.28c4.37,0.13,8.63-3.96,8.81-8.45C96.35,68.48,92.47,64.23,87.7,64.09
		z M27.3,14.75c-4.51-0.1-8.75,3.79-8.98,8.23c-0.25,4.83,3.64,8.94,8.55,9.05c4.85,0.11,9.01-3.89,9-8.65
		C35.87,18.81,31.93,14.85,27.3,14.75z M151.42,33.96c-4.71,0.08-8.45,3.85-8.48,8.56c-0.04,4.94,3.85,8.77,8.83,8.69
		c5-0.07,8.62-3.97,8.41-9.06C160,37.32,156.3,33.87,151.42,33.96z M56.86,71.48c-0.08-4.74-4.3-8.67-9.14-8.52
		c-4.65,0.14-8.45,4.1-8.38,8.73c0.06,4.88,4.13,8.67,9.1,8.49C53.04,80.01,56.93,75.99,56.86,71.48z M148.82,32.05
		c4.81-0.11,8.48-3.93,8.37-8.68c-0.1-4.12-4.77-8.73-8.77-8.66c-4.86,0.09-8.68,4.22-8.47,9.16
		C140.16,28.64,143.98,32.16,148.82,32.05z M14.76,42.8c0.06,5.21,3.19,8.39,8.26,8.39c4.88,0,8.97-4.05,8.86-8.77
		c-0.1-4.45-4.18-8.39-8.74-8.45C18.04,33.91,14.7,37.43,14.76,42.8z M80.16,11.35c2.69,3.27,5.05,6.14,7.4,9
		c2.36-2.83,4.82-5.78,7.51-9C89.92,11.35,85.26,11.35,80.16,11.35z M14.41,35.46c2.69-1.7,4.13-2.61,5.56-3.51
		c-1.37-2.16-2.5-3.94-4.18-6.57C15.31,28.92,14.94,31.64,14.41,35.46z M155.17,32.3c1.8,1.1,3.38,2.05,5.67,3.45
		c-0.46-3.37-0.8-5.84-1.27-9.24C157.82,28.82,156.68,30.32,155.17,32.3z"/>
	<path class="st0" d="M97.28,78.46c6.52,7.44,12.77,7.66,19.25-0.33c3.59,1.72,7.12,4.91,10.36,4.63
		c6.46-0.55,10.78-4.76,10.6-11.98c13.73,1.29,18.53-4.76,14.06-17.04c2.73-1.09,5.46-2.18,8.67-3.46c0.12,0.98,0.38,2.16,0.39,3.34
		c0.03,22.32,0.28,44.65-0.11,66.96c-0.12,6.72-1.36,13.61-3.24,20.08c-3.03,10.38-10.59,17-21.29,17.57
		c-6.68,0.36-13.75,3.18-20.56-0.78c-1.3-0.75-4.03,1.47-6.09,1.44c-10.26-0.16-20.51-0.76-30.77-0.91
		c-3.91-0.06-7.82,0.79-11.75,0.97c-4.27,0.2-8.5-0.67-12.86-0.1c-4.5,0.58-9.17,0.18-13.74-0.08c-10.7-0.59-19.8-8.25-22.97-19.92
		c-1.42-5.24-2.3-10.8-2.36-16.22c-0.25-22.99-0.11-45.98-0.1-68.96c0-0.93,0.18-1.86,0.29-2.93c2.72,1.05,5.14,1.98,7.79,3
		c-2.31,4.68-3.07,9.48,0.84,13.79c3.67,4.05,8.2,4.54,13.92,2.05c-1.11,8.86,4.76,12.14,11.14,13.41c2.47,0.49,5.8-3.3,8.39-4.92
		c3.18,1.95,6.46,5.46,9.98,5.7c3.5,0.24,7.22-2.79,11.38-4.63C85.47,85.33,89.58,85.43,97.28,78.46z"/>
	<path class="st0" d="M131.97,62.24c-6.94-2.29-11.86-0.18-15.32,5.53c-7.48-7.02-13.09-7.07-19.14-0.26
		c-8.49-7.14-12.45-7.09-19.93,0.25c-7.21-7.02-12.6-7.11-19.24-0.12c-3.64-6.21-8.95-8.08-15.66-5.65
		c-1.75-8.58-3.13-10.23-10.78-12.61c2.41-5.28,2.73-10.47-1.78-14.91c10.13-8.01,10.26-14.43-0.62-22.54c8.27,0,15.36,0,22.71,0
		c-6.99,6.64-11,14.74-8.25,24.97c1.59,5.9,4.97,10.47,10.13,13.7c11.42,7.14,23.99,3.64,33.45-9.29
		c11.3,13.89,24.98,16.76,36.03,7.56c11.41-9.5,11.18-23.02-0.66-37.13c7.34,0,14.63,0,21.14,0c-2.1,3.97-4.9,7.5-5.83,11.46
		c-1.12,4.76,2.41,7.96,6.33,10.25c-1.19,2.72-2.99,5.29-3.33,8.05c-0.32,2.6,0.89,5.38,1.46,8.25
		C135.98,50.66,132.1,54.73,131.97,62.24z"/>
	<path class="st0" d="M85.55,31.04c-2.94-3.02-5.85-7.18-9.78-9.8c-6.34-4.22-15.33-0.23-17.19,6.95c-1.07,4.13,0.56,7.41,4.1,9.26
		c3.04,1.6,6.29,1.39,8.83-1.76c-0.6-0.36-0.98-0.72-1.12-0.65c-2.97,1.56-6.34,2.73-8.32-0.72c-1.18-2.05-1.6-5.61-0.6-7.61
		c1.94-3.88,5.66-6.06,10.4-5.08c5.74,1.19,10.54,6.69,11.16,12.67c0.66,6.43-2.73,11.74-9.2,14.43C65.93,52,56.8,49.64,51.26,42.88
		c-5.24-6.39-5.7-15.25-1.17-22.38c4.48-7.04,13.25-10.54,21.3-8.3c1.88,0.52,4.26,1.2,5.26,2.62
		C80.39,20.11,87.77,23.67,85.55,31.04z"/>
	<path class="st0" d="M90.41,28.33c1.53,5.35,4.49,9.38,9.27,11.96c6.13,3.3,13.49,1.01,16.59-5.09c2-3.94,0.84-8.62-2.74-11.02
		c-3.28-2.2-6.36-1.6-9.62,2.21c0.89-0.05,1.57,0.11,1.93-0.15c3.2-2.31,6.01-1.68,8.24,1.27c2.25,2.97,1.53,5.91-0.8,8.58
		c-3.9,4.46-8.85,5.1-13.81,1.81c-6.32-4.2-8.75-11.48-5.92-17.77c2.9-6.44,12.19-10.13,20.19-8.01
		c10.58,2.8,16.94,14.49,13.42,24.68c-3.75,10.85-15.44,16.24-25.79,11.9C94,45.61,89.06,36.65,90.41,28.33z"/>
	<path class="st0" d="M135.57,71.96c0,4.46-4.11,8.59-8.64,8.69c-4.77,0.1-8.98-4.07-8.93-8.85c0.05-4.5,4.12-8.63,8.6-8.71
		C131.28,63,135.58,67.26,135.57,71.96z"/>
	<path class="st0" d="M67.86,64.31c4.78,0.06,8.91,4.36,8.73,9.08c-0.17,4.59-4.24,8.51-8.81,8.49c-4.68-0.02-8.88-4.42-8.69-9.1
		C59.28,68.12,63.29,64.25,67.86,64.31z"/>
	<path class="st0" d="M115.57,72.88c0.12,4.49-3.82,8.73-8.32,8.98c-4.68,0.26-9.08-3.85-9.18-8.58c-0.11-4.81,3.99-9,8.77-8.97
		C111.39,64.33,115.45,68.32,115.57,72.88z"/>
	<path class="st0" d="M40.19,60.64c-0.07,4.79-3.8,8.49-8.58,8.5c-5,0.01-8.76-3.84-8.66-8.87c0.09-4.8,3.76-8.45,8.54-8.48
		C36.48,51.75,40.26,55.59,40.19,60.64z"/>
	<path class="st0" d="M151.59,60.69c0.03,4.46-3.99,8.51-8.6,8.64c-4.85,0.14-9-3.91-8.93-8.71c0.07-4.65,3.87-8.51,8.54-8.65
		C147.42,51.82,151.55,55.83,151.59,60.69z"/>
	<path class="st0" d="M87.7,64.09c4.77,0.14,8.65,4.39,8.45,9.26c-0.18,4.49-4.44,8.57-8.81,8.45c-4.73-0.14-8.66-4.44-8.47-9.28
		C79.04,68.03,83.3,63.96,87.7,64.09z"/>
	<path class="st0" d="M27.3,14.75c4.63,0.1,8.57,4.06,8.58,8.62c0.01,4.76-4.15,8.76-9,8.65c-4.91-0.11-8.8-4.22-8.55-9.05
		C18.55,18.54,22.79,14.65,27.3,14.75z"/>
	<path class="st0" d="M151.42,33.96c4.88-0.08,8.58,3.37,8.77,8.19c0.2,5.1-3.41,8.99-8.41,9.06c-4.98,0.07-8.87-3.75-8.83-8.69
		C142.98,37.81,146.72,34.04,151.42,33.96z"/>
	<path class="st0" d="M56.86,71.48c0.08,4.51-3.81,8.53-8.42,8.69c-4.97,0.18-9.03-3.61-9.1-8.49c-0.06-4.63,3.74-8.59,8.38-8.73
		C52.56,62.81,56.77,66.74,56.86,71.48z"/>
	<path class="st0" d="M148.82,32.05c-4.84,0.11-8.66-3.41-8.86-8.18c-0.21-4.94,3.61-9.08,8.47-9.16c3.99-0.07,8.66,4.55,8.77,8.66
		C157.3,28.12,153.63,31.94,148.82,32.05z"/>
	<path class="st0" d="M14.76,42.8c-0.06-5.37,3.28-8.89,8.37-8.83c4.56,0.06,8.64,4,8.74,8.45c0.11,4.72-3.98,8.77-8.86,8.77
		C17.94,51.19,14.81,48.01,14.76,42.8z"/>
	<path class="st0" d="M80.16,11.35c5.1,0,9.77,0,14.9,0c-2.68,3.22-5.14,6.17-7.51,9C85.21,17.5,82.84,14.62,80.16,11.35z"/>
	<path class="st0" d="M14.41,35.46c0.52-3.82,0.9-6.54,1.38-10.08c1.67,2.63,2.81,4.42,4.18,6.57
		C18.55,32.85,17.1,33.76,14.41,35.46z"/>
	<path class="st0" d="M155.17,32.3c1.51-1.98,2.65-3.48,4.41-5.8c0.47,3.4,0.81,5.87,1.27,9.24
		C158.54,34.35,156.97,33.39,155.17,32.3z"/>
</g>
</svg>
