<?xml version="1.0" encoding="utf-8"?>
<!-- Generator: Adobe Illustrator 23.0.0, SVG Export Plug-In . SVG Version: 6.00 Build 0)  -->
<svg version="1.1" id="Layer_1" xmlns="http://www.w3.org/2000/svg" xmlns:xlink="http://www.w3.org/1999/xlink" x="0px" y="0px"
	 viewBox="0 0 210 173" style="enable-background:new 0 0 210 173;" xml:space="preserve">
<style type="text/css">
	.st0{fill:#FFFFFF;}
</style>
<g>
	<path class="st0" d="M0,6c61.33,0,122.66,0,183.99,0c0,55.66,0,111.33,0,166.99c-61.33,0-122.66,0-183.99,0C0,117.34,0,61.67,0,6z
		 M65.96,111.37c-3.89,3.43-6.91,6.96-10.69,9.22c-5.96,3.56-7.09,8.28-4.97,14.23c0.94,2.63,0.24,4.14-1.68,6.02
		c-4.76,4.66-5.22,10.08-1.8,15.32c3.52,5.38,8.71,7.43,14.64,4.47c4.09-2.04,7.47-1.22,11.58-0.77
		c14.18,1.55,28.45,2.78,42.69,2.95c10.05,0.12,20.18-1.36,30.17-2.82c3.62-0.53,6.54-1.4,10.2,0.56c5.65,3.03,10.8,1.31,14.51-3.67
		c3.8-5.11,3.43-10.26-0.6-15.51c-0.96-1.25-1.23-3.45-1-5.11c0.63-4.67,1.68-9.27,2.63-14.23c-4.11-0.5-7.11-0.87-10.58-1.29
		c1.66-1.88,2.87-3.23,4.05-4.6c4.21-4.89,4.04-6.1-1.39-9.62c-2.7-1.74-5.4-3.47-8.48-5.44c4.26-3.28,7.9-5.92,11.35-8.78
		c3.68-3.05,3.6-4.89-0.18-7.88c-3.7-2.93-7.5-5.74-11.61-8.87c3.43-3,6.12-5.76,9.21-7.97c5.77-4.13,7.38-9.37,7.62-16.52
		c0.54-16.55-7.54-24.14-19.86-29.49c-11.31-4.92-23.36-6.54-35.51-7.16c-15.05-0.77-30.11-0.25-43.94,6.69
		C58.27,28.12,48.2,38.02,49.15,55.53c0.54,9.98,0.11,10,10.22,10.59c0.23,0.01,0.44,0.36,0.89,0.75c-1.93,1.47-3.81,2.79-5.58,4.24
		c-4.68,3.84-4.66,5.66,0.28,9.09c3.93,2.74,8,5.28,12.47,8.21c-4.71,3.07-8.96,5.66-13.02,8.53c-4.26,3.01-4.21,5.05,0.14,7.81
		C58.04,106.97,61.7,108.91,65.96,111.37z"/>
	<path d="M65.96,111.37c-4.25-2.45-7.91-4.4-11.4-6.62c-4.35-2.77-4.41-4.8-0.14-7.81c4.06-2.87,8.31-5.46,13.02-8.53
		c-4.47-2.93-8.54-5.47-12.47-8.21c-4.94-3.44-4.96-5.26-0.28-9.09c1.77-1.45,3.65-2.78,5.58-4.24c-0.45-0.39-0.66-0.73-0.89-0.75
		c-10.11-0.59-9.69-0.61-10.22-10.59c-0.95-17.5,9.13-27.41,23.16-34.45c13.82-6.93,28.88-7.46,43.94-6.69
		c12.14,0.62,24.19,2.25,35.51,7.16c12.32,5.36,20.4,12.95,19.86,29.49c-0.23,7.15-1.84,12.39-7.62,16.52
		c-3.09,2.21-5.78,4.97-9.21,7.97c4.11,3.13,7.9,5.95,11.61,8.87c3.78,2.99,3.86,4.84,0.18,7.88c-3.45,2.86-7.08,5.5-11.35,8.78
		c3.08,1.98,5.79,3.7,8.48,5.44c5.43,3.51,5.61,4.72,1.39,9.62c-1.18,1.37-2.39,2.72-4.05,4.6c3.47,0.42,6.46,0.79,10.58,1.29
		c-0.95,4.96-2,9.56-2.63,14.23c-0.22,1.66,0.04,3.86,1,5.11c4.04,5.25,4.4,10.4,0.6,15.51c-3.7,4.98-8.85,6.7-14.51,3.67
		c-3.66-1.96-6.58-1.09-10.2-0.56c-9.99,1.46-20.12,2.94-30.17,2.82c-14.25-0.16-28.52-1.4-42.69-2.95
		c-4.11-0.45-7.49-1.27-11.58,0.77c-5.93,2.96-11.12,0.91-14.64-4.47c-3.43-5.24-2.97-10.66,1.8-15.32
		c1.92-1.88,2.62-3.38,1.68-6.02c-2.12-5.95-0.99-10.68,4.97-14.23C59.04,118.33,62.06,114.8,65.96,111.37z M167.66,57.9
		c0-3.44-0.11-6.24,0.02-9.03c0.44-9.05-3.34-15.8-11.08-20.3c-3-1.75-6.13-3.4-9.39-4.56c-15.63-5.57-31.86-6.7-48.24-5.65
		c-10.55,0.67-20.71,3.15-29.86,8.83c-13.34,8.29-18.85,20.78-15.08,35.18c4.29-0.41,9.86,0.64,12.78-1.67
		c3.07-2.43,5.64-2.61,8.78-2.68c4-0.09,8,0.1,12-0.06c3.38-0.13,6.29-0.16,6.77,4.39c0.11,1.02,1.95,2.18,3.23,2.72
		c6.58,2.78,11.56,0.29,14.19-7.16c6.7,0,13.52-0.1,20.33,0.09c1.15,0.03,2.65,1.04,3.32,2.04c3.81,5.65,10.83,6.96,15.12,1.8
		c3.02-3.63,6.22-4.24,10.28-3.96C162.79,58.01,164.79,57.9,167.66,57.9z M53.48,128.75c2.05,17.6,9.02,26.06,25.7,28.4
		c12.78,1.8,25.87,1.91,38.81,1.79c9.24-0.09,18.7-0.85,27.64-3.03c12.02-2.93,22.6-19.64,20.65-30.82c-2.26,0-4.57-0.04-6.89,0.01
		c-2.72,0.06-4.82,0.14-5.87-3.57c-1.19-4.19-5.56-3.37-9-3.42c-3.15-0.04-5.92,0.47-7.02,4.19c-0.33,1.14-1.7,2.77-2.65,2.81
		c-5.91,0.26-11.84,0.13-17.52,0.13c-0.38-1.42-0.61-1.9-0.61-2.38c-0.01-4.58-3.11-5.53-6.73-5.49c-3.48,0.03-7.22-0.19-7.45,5.13
		c-0.04,0.99-2.5,2.8-3.65,2.66c-5.14-0.65-10.83,2.04-15.31-3.93c-1.56-2.08-7.47-1.08-11.4-1.15c-3.29-0.06-5.02,1.68-5.5,5.17
		c-0.18,1.3-2.09,3.13-3.43,3.35C60.22,129.1,57.03,128.75,53.48,128.75z M162.26,89.34c-1.74,0-3.49,0-5.23,0
		c-25.82,0-51.64,0.43-77.44-0.22c-9.41-0.24-13.91,6.56-20.65,10.28c27.32,0.51,54.46-0.07,81.56,0.82
		C150.31,100.54,155.93,95.41,162.26,89.34z M162.3,87.69c0.12-0.39,0.24-0.78,0.36-1.17c-2.33-1.73-5.03-3.13-6.92-5.26
		c-3.72-4.19-8.24-4.6-13.41-4.57c-26.45,0.18-52.91,0.08-79.36,0.1c-1.39,0-2.78,0.16-5.43,0.32c4.19,2.76,7.72,4.41,10.35,6.98
		c3.49,3.42,7.4,3.64,11.81,3.63c25.79-0.1,51.57-0.04,77.36-0.03C158.8,87.69,160.55,87.69,162.3,87.69z M161.67,61.86
		c-2.32-0.33-5.24-0.29-8.3,2.98c-5.52,5.92-14.75,5.06-20.34-1c-0.82-0.89-2.04-1.9-3.11-1.96c-4.49-0.22-8.99-0.17-13.48-0.04
		c-0.8,0.02-1.82,0.69-2.33,1.36c-7.19,9.54-18.78,9.09-24.15-0.29c-14.02-4.63-23.13,2.95-32.29,11.4
		c0.75,0.31,1.03,0.54,1.31,0.54c29.65,0.03,59.3,0.06,88.95,0.02c1.2,0,2.79-0.36,3.54-1.17
		C155.07,69.79,158.44,65.66,161.67,61.86z M161.28,110.01c-11.67-8.24-11.67-8.24-23.81-8.24c-24.48-0.01-48.96-0.02-73.44-0.01
		c-1.58,0-3.16,0.16-5.89,0.31c7.37,4.42,13.11,8.46,21.56,8.2c22.62-0.7,45.29-0.24,67.93-0.25
		C151.73,110.01,155.83,110.01,161.28,110.01z M163.47,111.98c-3.12,0-4.91,0-6.69,0c-26.15,0.01-52.31,0.57-78.43-0.25
		c-10.67-0.33-13.8,8.14-20.19,12.91c1.97,0.01,4.11-0.47,4.79-1.73c3.74-6.94,17.84-10.23,23.69-4.65
		c3.74,3.57,7.57,3.02,11.91,3.15c0.61-4.85,3.33-7.41,7.92-7.62c4.78-0.22,9.89-1.04,13.03,4.02c3.14,5.04,11.66,5.04,15.67,0.5
		c1.78-2.01,5.02-3.81,7.61-3.82c4.88-0.01,9.77,1.35,14.65,2.14c0.03,0.59,0.06,1.17,0.09,1.76
		C159.19,116.6,160.85,114.81,163.47,111.98z M52.21,143.27c-4.69,4.29-5.03,7.84-1.06,12.1c3.29,3.54,6.78,3.51,10.59,0.19
		C58.61,151.54,55.51,147.53,52.21,143.27z M156.09,155.94c5.44,3.02,8.5,2.56,11.43-1.54c3.01-4.21,2.61-6.98-1.52-10.47
		C162.76,147.86,159.51,151.79,156.09,155.94z"/>
	<path class="st0" d="M167.66,57.9c-2.87,0-4.87,0.11-6.85-0.02c-4.07-0.27-7.26,0.33-10.28,3.96c-4.29,5.16-11.31,3.86-15.12-1.8
		c-0.67-1-2.18-2-3.32-2.04c-6.81-0.19-13.63-0.09-20.33-0.09c-2.63,7.45-7.61,9.93-14.19,7.16c-1.28-0.54-3.12-1.69-3.23-2.72
		c-0.48-4.55-3.38-4.53-6.77-4.39c-3.99,0.16-8-0.03-12,0.06c-3.14,0.07-5.71,0.25-8.78,2.68c-2.92,2.31-8.49,1.26-12.78,1.67
		c-3.77-14.4,1.74-26.89,15.08-35.18c9.15-5.68,19.31-8.16,29.86-8.83c16.38-1.05,32.61,0.09,48.24,5.65
		c3.26,1.16,6.39,2.81,9.39,4.56c7.74,4.5,11.52,11.25,11.08,20.3C167.54,51.66,167.66,54.46,167.66,57.9z M123.96,42.29
		c-3.36,0.55-5.93,2.4-5.88,6.38c0.05,3.92,2.47,6.2,6.28,6.22c3.9,0.02,6.01-2.55,6.28-6.31
		C130.89,45.23,127.73,42.28,123.96,42.29z M123.28,30.7c0.06-5.21-3.48-8.81-8.63-8.79c-4.92,0.02-8.57,3.49-8.73,8.29
		c-0.18,5.11,3.43,8.96,8.49,9.07C119.62,39.38,123.22,35.9,123.28,30.7z M91.96,34.39c-0.13-4.37-3.76-7.64-8.29-7.46
		c-4.26,0.17-7.54,3.64-7.4,7.82c0.15,4.43,3.8,7.75,8.26,7.52C88.76,42.04,92.08,38.52,91.96,34.39z M132.32,34.15
		c0.05,4.36,3.83,8.01,8.09,7.82c4.12-0.19,7.55-3.76,7.55-7.85c0-4.21-3.93-8.01-8.11-7.85C135.81,26.43,132.27,30.12,132.32,34.15
		z M99.77,41.25c-4.24,0.05-7.55,3.39-7.51,7.59c0.04,4.3,3.25,7.44,7.6,7.44c4.47,0.01,7.46-3.03,7.4-7.5
		C107.21,44.43,104.01,41.21,99.77,41.25z M62.96,50.13c0.44,3.5,2.25,5.85,6.04,5.78c3.52-0.07,5.57-2.38,5.62-5.72
		c0.05-3.36-1.98-5.77-5.47-5.86C65.55,44.24,63.31,46.24,62.96,50.13z M151.57,43.68c-3.62,0.1-5.75,1.8-5.85,5.45
		c-0.1,3.53,1.59,5.76,5.27,5.91c3.81,0.15,6-1.8,6.06-5.66C157.11,45.75,155.06,43.93,151.57,43.68z"/>
	<path class="st0" d="M53.48,128.75c3.55,0,6.75,0.34,9.8-0.16c1.35-0.22,3.26-2.05,3.43-3.35c0.48-3.49,2.21-5.23,5.5-5.17
		c3.93,0.07,9.84-0.93,11.4,1.15c4.48,5.97,10.16,3.28,15.31,3.93c1.14,0.15,3.6-1.67,3.65-2.66c0.23-5.32,3.96-5.09,7.45-5.13
		c3.62-0.03,6.72,0.92,6.73,5.49c0,0.48,0.24,0.96,0.61,2.38c5.68,0,11.61,0.13,17.52-0.13c0.95-0.04,2.31-1.67,2.65-2.81
		c1.09-3.72,3.86-4.24,7.02-4.19c3.44,0.05,7.81-0.78,9,3.42c1.05,3.71,3.14,3.62,5.87,3.57c2.31-0.05,4.63-0.01,6.89-0.01
		c1.95,11.18-8.63,27.89-20.65,30.82c-8.94,2.18-18.4,2.94-27.64,3.03c-12.94,0.12-26.04,0.01-38.81-1.79
		C62.5,154.81,55.53,146.35,53.48,128.75z M73.5,149.29c4.94,0.12,8.66-3.32,8.83-8.16c0.18-5.23-3.29-9.04-8.37-9.16
		c-4.91-0.12-8.95,3.82-8.95,8.72C65.02,145.46,68.69,149.18,73.5,149.29z M154.08,139.11c0.02-4.6-3.2-7.87-7.71-7.84
		c-4.21,0.03-7.51,3.28-7.64,7.51c-0.13,4.42,3.19,8.02,7.55,8.18C150.49,147.1,154.06,143.51,154.08,139.11z M118.69,146.05
		c0.03-4.17-3.75-7.86-8.02-7.82c-4.17,0.03-7.53,3.34-7.65,7.55c-0.13,4.29,3.41,8.06,7.65,8.15
		C114.8,154.01,118.66,150.23,118.69,146.05z M91.43,146.14c-0.73,0.04-1.46,0.08-2.2,0.12c-1.09,1.87-3.14,3.83-2.97,5.58
		c0.15,1.54,3.02,4.14,4.28,3.92c1.76-0.31,4.2-2.69,4.38-4.39C95.08,149.76,92.7,147.89,91.43,146.14z M134.55,133.35
		c-2.77-2.12-4.41-4.35-5.96-4.29c-1.59,0.06-3.09,2.36-4.64,3.69c1.42,1.64,2.61,4.2,4.33,4.63
		C129.61,137.7,131.6,135.36,134.55,133.35z M133.72,144.62c-0.74-0.02-1.47-0.03-2.21-0.05c-1.19,1.79-3.46,3.69-3.28,5.33
		c0.19,1.74,2.69,3.24,4.18,4.84c1.55-1.54,4.12-2.92,4.37-4.65C137.01,148.45,134.83,146.46,133.72,144.62z M97.42,127.66
		c-0.72,0.01-1.44,0.03-2.16,0.04c-1.11,1.85-3.28,3.86-3.04,5.51c0.26,1.75,2.81,3.16,4.35,4.73c1.5-1.63,4.03-3.15,4.21-4.92
		C100.95,131.37,98.64,129.46,97.42,127.66z"/>
	<path class="st0" d="M162.26,89.34c-6.33,6.07-11.95,11.21-21.77,10.88c-27.1-0.9-54.24-0.31-81.56-0.82
		c6.74-3.72,11.24-10.51,20.65-10.28c25.8,0.65,51.63,0.22,77.44,0.22C158.78,89.34,160.52,89.34,162.26,89.34z"/>
	<path class="st0" d="M162.3,87.69c-1.75,0-3.5,0-5.25,0c-25.79-0.01-51.57-0.07-77.36,0.03c-4.41,0.02-8.32-0.21-11.81-3.63
		c-2.63-2.57-6.16-4.22-10.35-6.98c2.65-0.16,4.04-0.32,5.43-0.32c26.45-0.02,52.91,0.08,79.36-0.1c5.17-0.03,9.7,0.38,13.41,4.57
		c1.89,2.13,4.59,3.53,6.92,5.26C162.55,86.9,162.42,87.3,162.3,87.69z"/>
	<path class="st0" d="M161.67,61.86c-3.23,3.8-6.61,7.93-10.21,11.85c-0.74,0.81-2.33,1.17-3.54,1.17
		c-29.65,0.05-59.3,0.02-88.95-0.02c-0.28,0-0.57-0.22-1.31-0.54c9.17-8.45,18.27-16.03,32.29-11.4c5.37,9.38,16.95,9.83,24.15,0.29
		c0.51-0.68,1.53-1.34,2.33-1.36c4.49-0.13,9-0.18,13.48,0.04c1.08,0.05,2.3,1.07,3.11,1.96c5.59,6.06,14.81,6.92,20.34,1
		C156.43,61.56,159.36,61.52,161.67,61.86z"/>
	<path class="st0" d="M161.28,110.01c-5.44,0-9.54,0-13.64,0c-22.65,0-45.31-0.45-67.93,0.25c-8.46,0.26-14.19-3.78-21.56-8.2
		c2.73-0.15,4.31-0.31,5.89-0.31c24.48-0.01,48.96,0.01,73.44,0.01C149.61,101.77,149.61,101.77,161.28,110.01z"/>
	<path class="st0" d="M163.47,111.98c-2.62,2.83-4.28,4.62-5.94,6.41c-0.03-0.59-0.06-1.17-0.09-1.76
		c-4.88-0.79-9.77-2.15-14.65-2.14c-2.58,0.01-5.82,1.8-7.61,3.82c-4.02,4.54-12.54,4.54-15.67-0.5c-3.14-5.05-8.25-4.24-13.03-4.02
		c-4.59,0.21-7.31,2.77-7.92,7.62c-4.34-0.13-8.18,0.42-11.91-3.15c-5.85-5.59-19.95-2.3-23.69,4.65c-0.68,1.26-2.81,1.74-4.79,1.73
		c6.39-4.77,9.52-13.25,20.19-12.91c26.12,0.82,52.28,0.26,78.43,0.25C158.56,111.98,160.35,111.98,163.47,111.98z"/>
	<path class="st0" d="M52.21,143.27c3.3,4.26,6.41,8.27,9.53,12.29c-3.8,3.32-7.3,3.35-10.59-0.19
		C47.18,151.11,47.51,147.56,52.21,143.27z"/>
	<path class="st0" d="M156.09,155.94c3.42-4.15,6.67-8.08,9.91-12c4.13,3.48,4.53,6.26,1.52,10.47
		C164.59,158.49,161.53,158.95,156.09,155.94z"/>
	<path d="M123.96,42.29c3.77-0.02,6.93,2.94,6.69,6.29c-0.28,3.77-2.38,6.33-6.28,6.31c-3.81-0.02-6.23-2.3-6.28-6.22
		C118.03,44.69,120.6,42.84,123.96,42.29z"/>
	<path d="M123.28,30.7c-0.06,5.2-3.66,8.68-8.88,8.57c-5.06-0.11-8.66-3.96-8.49-9.07c0.17-4.81,3.81-8.27,8.73-8.29
		C119.8,21.89,123.34,25.49,123.28,30.7z M109.08,26.72c4.15,2.44,7.89,4.64,11.71,6.89c1.77-3.69,0.74-6.82-2.7-8.84
		C114.67,22.75,111.49,23.47,109.08,26.72z M108.98,29.07c-0.34,0.48-0.67,0.96-1.01,1.43c1.03,6.51,5.27,8.65,11.42,4.47
		C115.58,32.81,112.28,30.94,108.98,29.07z"/>
	<path d="M91.96,34.39c0.12,4.13-3.2,7.65-7.43,7.87c-4.46,0.24-8.11-3.08-8.26-7.52c-0.14-4.18,3.14-7.65,7.4-7.82
		C88.2,26.74,91.83,30.01,91.96,34.39z M89.48,36.91c1.25-3.41,0.15-6.28-2.83-7.35c-2.03-0.73-4.72,0.41-7.12,0.72
		c0.12,0.39,0.25,0.79,0.37,1.18C82.99,33.22,86.09,34.98,89.48,36.91z M88.18,38.61c-3.55-1.99-6.38-3.58-9.21-5.17
		C79.87,40.16,82.14,41.36,88.18,38.61z"/>
	<path d="M132.32,34.15c-0.04-4.03,3.49-7.73,7.54-7.88c4.18-0.16,8.11,3.64,8.11,7.85c0,4.1-3.43,7.67-7.55,7.85
		C136.15,42.17,132.36,38.51,132.32,34.15z M137.35,28.1c-0.05,0.57-0.1,1.14-0.15,1.71c2.39,2.6,4.78,5.21,7.16,7.81
		c0.48-0.07,0.96-0.15,1.45-0.22c-0.45-2.4-0.15-5.49-1.55-7.01C142.82,28.83,139.72,28.8,137.35,28.1z M135,30.6
		c-1.03,7.32,1.35,9.67,7.94,8.53C140.29,36.29,138.1,33.93,135,30.6z"/>
	<path d="M99.77,41.25c4.24-0.05,7.44,3.18,7.5,7.54c0.06,4.47-2.94,7.5-7.4,7.5c-4.35-0.01-7.56-3.15-7.6-7.44
		C92.22,44.65,95.53,41.3,99.77,41.25z M104.94,51.05c1.18-3,0.5-5.78-2.39-6.89c-2.07-0.79-4.75,0.01-7.15,0.1
		c0.04,0.47,0.07,0.93,0.11,1.4C98.46,47.35,101.41,49.03,104.94,51.05z M103.92,52.86c-3.51-2-6.19-3.53-9.49-5.41
		C95.15,53.9,97.6,55.37,103.92,52.86z"/>
	<path d="M62.96,50.13c0.34-3.9,2.58-5.89,6.19-5.8c3.49,0.09,5.52,2.5,5.47,5.86c-0.05,3.34-2.1,5.65-5.62,5.72
		C65.22,55.99,63.41,53.64,62.96,50.13z M74.45,49.76c-2.65-1.68-4.29-3.53-5.68-3.36c-1.38,0.17-2.51,2.37-3.76,3.68
		c1.41,1.3,2.71,3.39,4.28,3.63C70.49,53.89,72.04,51.71,74.45,49.76z"/>
	<path d="M151.57,43.68c3.49,0.25,5.54,2.07,5.48,5.7c-0.06,3.86-2.25,5.8-6.06,5.66c-3.68-0.14-5.37-2.38-5.27-5.91
		C145.81,45.48,147.94,43.78,151.57,43.68z M151.28,43.84c-1.79,2.54-3.88,4.26-3.6,5.4c0.37,1.53,2.57,2.62,3.99,3.9
		c1.15-1.33,3.16-2.61,3.22-3.99C154.96,47.78,153.07,46.31,151.28,43.84z"/>
	<path d="M73.5,149.29c-4.82-0.12-8.48-3.84-8.49-8.61c0-4.9,4.04-8.84,8.95-8.72c5.08,0.13,8.55,3.93,8.37,9.16
		C82.16,145.97,78.45,149.41,73.5,149.29z M67.25,141.43c2.01,6.72,6.83,8.01,11.57,3.1C75.83,140.22,71.97,139.35,67.25,141.43z
		 M67.7,137.85c4.48,1.15,8.58,2.21,12.83,3.3c0.08-3.58-1.59-6.21-5.27-7.03C71.87,133.36,69.1,134.52,67.7,137.85z"/>
	<path d="M154.08,139.11c-0.02,4.4-3.59,7.99-7.8,7.84c-4.36-0.15-7.68-3.75-7.55-8.18c0.13-4.23,3.43-7.48,7.64-7.51
		C150.88,131.24,154.1,134.51,154.08,139.11z M140.75,135.78c0.21,0.35,0.41,0.7,0.62,1.05c3.52,0.78,7.03,1.57,10.74,2.39
		c0.08-3.43-1.77-5.74-4.8-5.88C145.17,133.24,142.94,134.91,140.75,135.78z M150.98,142.44c-3.18-3.06-6.22-4.47-10.12-1.99
		C144.01,145.78,146.18,146.23,150.98,142.44z"/>
	<path d="M118.69,146.05c-0.03,4.18-3.89,7.96-8.02,7.87c-4.25-0.09-7.78-3.86-7.65-8.15c0.13-4.21,3.49-7.52,7.65-7.55
		C114.94,138.2,118.72,141.88,118.69,146.05z M116.42,145.54c0.28-0.25,0.56-0.49,0.85-0.74c-1.94-1.56-3.76-4.14-5.86-4.39
		c-2.07-0.24-4.42,1.87-6.64,2.95c0.24,0.38,0.47,0.76,0.71,1.14C109.12,144.86,112.77,145.2,116.42,145.54z M105.79,146.47
		c3.1,6.62,5.89,6.89,10.39,1.34C112.17,147.29,108.98,146.88,105.79,146.47z"/>
	<path d="M91.43,146.14c1.27,1.75,3.65,3.62,3.49,5.23c-0.17,1.7-2.61,4.08-4.38,4.39c-1.26,0.22-4.13-2.38-4.28-3.92
		c-0.17-1.74,1.88-3.71,2.97-5.58C89.97,146.22,90.7,146.18,91.43,146.14z"/>
	<path d="M134.55,133.35c-2.95,2.01-4.94,4.36-6.27,4.03c-1.72-0.43-2.91-2.99-4.33-4.63c1.54-1.32,3.05-3.63,4.64-3.69
		C130.14,129,131.78,131.23,134.55,133.35z"/>
	<path d="M133.72,144.62c1.12,1.84,3.3,3.83,3.06,5.47c-0.25,1.72-2.81,3.11-4.37,4.65c-1.49-1.6-3.99-3.1-4.18-4.84
		c-0.18-1.64,2.09-3.54,3.28-5.33C132.25,144.59,132.98,144.61,133.72,144.62z M136.36,149.61c-1.98-1.1-3.14-2.25-4.22-2.18
		c-0.81,0.06-2.26,1.86-2.09,2.57c0.26,1.08,1.63,2.58,2.59,2.62C133.58,152.67,134.6,151.12,136.36,149.61z"/>
	<path d="M97.42,127.66c1.22,1.8,3.53,3.71,3.36,5.36c-0.18,1.76-2.7,3.29-4.21,4.92c-1.55-1.56-4.1-2.98-4.35-4.73
		c-0.24-1.65,1.93-3.66,3.04-5.51C95.98,127.69,96.7,127.68,97.42,127.66z M96.13,129.08c-1.08,2.12-2.17,3.31-2.1,4.43
		c0.06,0.87,1.58,1.64,2.45,2.45c0.88-0.98,2.4-1.92,2.46-2.95C99.01,132.03,97.55,130.95,96.13,129.08z"/>
	<path class="st0" d="M109.08,26.72c2.41-3.25,5.59-3.97,9.02-1.95c3.44,2.02,4.46,5.15,2.7,8.84
		C116.98,31.37,113.24,29.16,109.08,26.72z"/>
	<path class="st0" d="M108.98,29.07c3.3,1.87,6.6,3.74,10.41,5.9c-6.14,4.19-10.39,2.04-11.42-4.47
		C108.31,30.03,108.65,29.55,108.98,29.07z"/>
	<path class="st0" d="M89.48,36.91c-3.39-1.93-6.48-3.69-9.58-5.45c-0.12-0.39-0.25-0.79-0.37-1.18c2.4-0.31,5.09-1.45,7.12-0.72
		C89.63,30.63,90.72,33.5,89.48,36.91z"/>
	<path class="st0" d="M88.18,38.61c-6.04,2.75-8.31,1.56-9.21-5.17C81.8,35.03,84.63,36.62,88.18,38.61z"/>
	<path class="st0" d="M137.35,28.1c2.37,0.7,5.47,0.73,6.91,2.29c1.4,1.52,1.1,4.61,1.55,7.01c-0.48,0.07-0.96,0.15-1.45,0.22
		c-2.39-2.6-4.78-5.21-7.16-7.81C137.25,29.24,137.3,28.67,137.35,28.1z"/>
	<path class="st0" d="M135,30.6c3.1,3.33,5.29,5.69,7.94,8.53C136.35,40.27,133.97,37.92,135,30.6z"/>
	<path class="st0" d="M104.94,51.05c-3.53-2.02-6.48-3.7-9.43-5.39c-0.04-0.47-0.07-0.93-0.11-1.4c2.41-0.09,5.08-0.89,7.15-0.1
		C105.44,45.27,106.12,48.05,104.94,51.05z"/>
	<path class="st0" d="M103.92,52.86c-6.33,2.52-8.78,1.04-9.49-5.41C97.73,49.33,100.42,50.86,103.92,52.86z"/>
	<path class="st0" d="M74.45,49.76c-2.41,1.95-3.96,4.13-5.16,3.95c-1.57-0.23-2.86-2.33-4.28-3.63c1.24-1.31,2.37-3.51,3.76-3.68
		C70.16,46.24,71.79,48.09,74.45,49.76z"/>
	<path class="st0" d="M151.28,43.84c1.79,2.47,3.68,3.94,3.61,5.31c-0.06,1.38-2.07,2.66-3.22,3.99c-1.41-1.28-3.61-2.37-3.99-3.9
		C147.41,48.1,149.49,46.38,151.28,43.84z"/>
	<path class="st0" d="M67.25,141.43c4.72-2.08,8.57-1.21,11.57,3.1C74.09,149.45,69.26,148.15,67.25,141.43z"/>
	<path class="st0" d="M67.7,137.85c1.4-3.33,4.18-4.49,7.56-3.73c3.68,0.82,5.35,3.45,5.27,7.03C76.28,140.06,72.17,139,67.7,137.85
		z"/>
	<path class="st0" d="M140.75,135.78c2.19-0.88,4.41-2.54,6.56-2.44c3.04,0.14,4.89,2.45,4.8,5.88c-3.71-0.83-7.22-1.61-10.74-2.39
		C141.17,136.48,140.96,136.13,140.75,135.78z"/>
	<path class="st0" d="M150.98,142.44c-4.8,3.8-6.97,3.34-10.12-1.99C144.76,137.96,147.8,139.38,150.98,142.44z"/>
	<path class="st0" d="M116.42,145.54c-3.65-0.34-7.3-0.68-10.95-1.03c-0.24-0.38-0.47-0.76-0.71-1.14c2.23-1.08,4.57-3.2,6.64-2.95
		c2.1,0.25,3.92,2.83,5.86,4.39C116.99,145.05,116.71,145.29,116.42,145.54z"/>
	<path class="st0" d="M105.79,146.47c3.19,0.41,6.38,0.82,10.39,1.34C111.67,153.35,108.89,153.09,105.79,146.47z"/>
	<path class="st0" d="M136.36,149.61c-1.76,1.52-2.78,3.06-3.72,3.02c-0.96-0.05-2.33-1.54-2.59-2.62
		c-0.17-0.71,1.28-2.51,2.09-2.57C133.21,147.36,134.37,148.51,136.36,149.61z"/>
	<path class="st0" d="M96.13,129.08c1.43,1.87,2.88,2.95,2.82,3.93c-0.07,1.03-1.58,1.97-2.46,2.95c-0.87-0.81-2.39-1.58-2.45-2.45
		C93.95,132.39,95.05,131.2,96.13,129.08z"/>
</g>
</svg>
