<?xml version="1.0" encoding="utf-8"?>
<!-- Generator: Adobe Illustrator 23.0.0, SVG Export Plug-In . SVG Version: 6.00 Build 0)  -->
<svg version="1.1" id="Layer_1" xmlns="http://www.w3.org/2000/svg" xmlns:xlink="http://www.w3.org/1999/xlink" x="0px" y="0px"
	 viewBox="0 0 243 279" style="enable-background:new 0 0 243 279;" xml:space="preserve">
<style type="text/css">
	.st0{fill:#FFFFFF;}
</style>
<g>
	<path class="st0" d="M0,279C0,186,0,93,0,0c81,0,162,0,243,0c0,93,0,186,0,279C162,279,81,279,0,279z M102.86,82.13
		c-15.41,6.44-24.28,13.33-32.63,27.81c-11.45,19.88-22.6,39.97-32.91,60.46c-6.55,13.02-11.91,26.73-16.77,40.5
		c-6.04,17.12-0.11,31.28,13.02,42.93c8.4,7.45,18.31,12.22,28.98,15.14c42.2,11.57,84.56,11.48,126.82,0.48
		c13.87-3.61,26.48-10.11,36.06-21.23c8.18-9.5,11.85-20.41,8.62-32.9c-1.58-6.1-3.17-12.32-5.81-18
		c-8.69-18.69-17.55-37.32-26.97-55.65c-5.99-11.67-12.61-23.08-19.83-34.03c-6.89-10.45-14.94-20.12-27.64-24.24
		c-0.76-0.25-1.85-1.28-1.83-1.91c0.27-9.44,0.37-18.91,1.24-28.31c0.34-3.61,3.25-6.11,7.42-6.1c4.31,0.01,7.1,2.39,7.93,6.28
		c0.94,4.35,1.27,8.87,1.43,13.34c0.65,18.13,11.09,28.32,29.18,28.18c2.49-0.02,4.99-0.28,7.45-0.62
		c17.84-2.49,25.4-10.97,25.42-29.08c0.01-10.99-0.45-21.98-0.92-32.96c-0.18-4.12,0.01-7.59,3.64-10.61
		c3.7-3.08,4.74-7.71,3.22-12.35c-1.51-4.62-5.72-5.82-9.96-6.27c-12.37-1.32-24.94-2.97-31.98,11.47
		c-4.37-6.38-10.22-9.26-16.95-10.64c-12.87-2.64-25.75-2.92-38.67-0.17c-2.05,0.43-4.24,0.43-6.35,0.32
		c-11.27-0.58-22.61-2.35-33.8-1.67C80.75,3.48,61.27,6.11,48.13,24.57c-0.16-2.13-0.21-3.56-0.39-4.98
		c-1.15-8.83-6.32-15.47-14.41-16.31C26.66,2.58,19.75,3.22,13.05,4.1C8.02,4.76,4.21,7.93,2.97,13.27
		c-1.17,5.06,2.32,7.87,5.23,11.13c1.45,1.63,2.75,4.12,2.74,6.21c-0.06,11.82-0.89,23.65-0.79,35.46
		c0.13,14.62,6.26,22.6,19.75,26.42c9.56,2.71,19.32,3.4,29.18,1.62c11.56-2.09,17.11-8.34,17.9-19.95
		c0.26-3.82,0.56-7.66,1.23-11.41c1.94-10.85,9.88-16.83,20.77-15.56c1.38,0.16,3.69,1.73,3.71,2.69
		C102.96,60.69,102.86,71.5,102.86,82.13z"/>
	<path d="M102.86,82.13c0-10.63,0.1-21.44-0.17-32.24c-0.02-0.96-2.33-2.53-3.71-2.69c-10.89-1.27-18.82,4.7-20.77,15.56
		c-0.67,3.76-0.97,7.6-1.23,11.41c-0.79,11.62-6.34,17.86-17.9,19.95c-9.85,1.78-19.62,1.09-29.18-1.62
		c-13.5-3.82-19.62-11.8-19.75-26.42c-0.11-11.82,0.73-23.64,0.79-35.46c0.01-2.09-1.29-4.58-2.74-6.21
		c-2.91-3.27-6.4-6.08-5.23-11.13C4.21,7.93,8.02,4.76,13.05,4.1c6.7-0.88,13.61-1.52,20.28-0.83c8.09,0.84,13.25,7.48,14.41,16.31
		c0.18,1.42,0.23,2.85,0.39,4.98C61.27,6.11,80.75,3.48,100.3,2.29c11.19-0.68,22.52,1.08,33.8,1.67c2.11,0.11,4.3,0.12,6.35-0.32
		c12.92-2.74,25.8-2.46,38.67,0.17c6.73,1.38,12.58,4.26,16.95,10.64c7.04-14.44,19.61-12.79,31.98-11.47
		c4.23,0.45,8.45,1.65,9.96,6.27c1.51,4.64,0.48,9.26-3.22,12.35c-3.63,3.02-3.82,6.49-3.64,10.61c0.47,10.98,0.93,21.97,0.92,32.96
		c-0.02,18.11-7.58,26.58-25.42,29.08c-2.47,0.34-4.97,0.6-7.45,0.62C181.09,95.02,170.65,84.82,170,66.7
		c-0.16-4.46-0.49-8.99-1.43-13.34c-0.84-3.89-3.63-6.27-7.93-6.28c-4.18-0.01-7.09,2.48-7.42,6.1c-0.87,9.4-0.98,18.87-1.24,28.31
		c-0.02,0.64,1.06,1.67,1.83,1.91c12.7,4.12,20.75,13.79,27.64,24.24c7.22,10.95,13.83,22.36,19.83,34.03
		c9.42,18.33,18.28,36.96,26.97,55.65c2.64,5.68,4.23,11.9,5.81,18c3.23,12.48-0.44,23.4-8.62,32.9
		c-9.58,11.12-22.19,17.62-36.06,21.23c-42.26,11-84.62,11.1-126.82-0.48c-10.66-2.92-20.58-7.69-28.98-15.14
		c-13.12-11.65-19.05-25.81-13.02-42.93c4.86-13.77,10.22-27.48,16.77-40.5c10.31-20.49,21.45-40.58,32.91-60.46
		C78.58,95.46,87.45,88.57,102.86,82.13z M225.43,200.82c-8.16-20.49-17.17-39.96-32.42-55.61c-4.14-4.25-9.86-7.48-15.45-9.66
		c-11.1-4.34-20.96-1.12-29.02,7.44c-6.86,7.28-7.88,19.53-2.69,29.45c4.6,8.79,13.43,13.37,23.35,11.45
		c4.01-0.77,7.73-2.95,11.66-4.22c1.15-0.37,2.59,0.18,3.9,0.31c-0.62,1.02-1,2.38-1.89,2.99c-13.21,9.02-30.05,6.54-38.77-5.61
		c-9.21-12.84-6.74-31.38,5.45-40.84c12.77-9.91,29.93-8.75,43.52,2.93c1.11,0.95,2.24,1.88,3.37,2.82
		c-6.83-15.18-14.8-29.38-25.53-41.82c-5.01-5.81-10.65-10.91-18.53-13.12c-2.02,9.4,2.65,20.16-7.15,26.94
		c5.41,6.86,4.22,11.18-2.17,14.39c-4.22,7.59-7.58,13.76-11.1,19.83c-0.43,0.74-1.95,0.79-2.5,1.51c-1.07,1.42-2.36,3.03-2.52,4.67
		c-0.14,1.4,1.34,2.9,1.8,4.44c0.28,0.94-0.03,2.05-0.07,3.09c-1.02-0.23-2.29-0.17-3-0.76c-0.97-0.82-2.12-2.12-2.15-3.24
		c-0.16-5.47-2.36-10.21-4.35-15.14c-2.01-4.98-8.41-7.58-7.45-14.06c0.01-0.04-0.3-0.1-0.44-0.19c-7.36-5.14-7.82-7.37-2.98-14.84
		c-9.63-7.08-3.29-17.95-6.03-26.68c-16.25,1.95-36.38,33.12-45.05,54.85c1.53-1.27,2.75-2.35,4.04-3.34
		c7.76-5.96,16.31-9.56,26.33-8.93c11.27,0.71,22.53,9.59,25.86,20.51c3.61,11.85-0.72,25.79-10.35,33.28
		c-8.07,6.28-22.08,6.23-32.02-0.27c-1.05-0.69-1.55-2.21-2.31-3.34c1.42-0.03,2.96-0.42,4.24-0.01c3,0.96,5.79,2.62,8.81,3.42
		c7.12,1.88,13.9,1.13,19.8-3.73c12.92-10.63,11.99-31.76-1.79-41.16c-11.64-7.94-27.02-5.91-38.57,5.73
		c-15.77,15.9-25.23,35.59-33.08,56.59c14.27,3.74,26.34,10.44,33.57,23.51c7.19,12.99,6.08,26.92,2.98,41.63
		c41.55,9.68,82.55,9.76,124.03-0.09c-3.11-14.74-4.2-28.64,3.06-41.64C199.09,211.27,211,204.4,225.43,200.82z M224.53,7.49
		c-0.12-0.42-0.24-0.85-0.36-1.27c-2.1,0-4.19-0.01-6.29,0c-13.51,0.06-18.75,5.33-18.76,18.82c0,5,0.12,10-0.09,14.99
		c-0.05,1.12-1.25,2.19-1.92,3.28c-0.67-1.15-1.83-2.26-1.91-3.45c-0.26-4.15-0.03-8.33-0.2-12.49
		c-0.44-11.14-4.84-17.36-15.85-19.24c-9.59-1.64-19.56-2.39-29.26-1.82c-24.01,1.41-41.05,17.54-42.73,41.54
		c-1.32,18.72-0.62,37.61-0.15,56.4c0.06,2.6,3.51,6.63,6.12,7.34c6.26,1.71,13.02,2.83,19.46,2.39c11.8-0.79,15-4.74,15.16-16.53
		c0.13-9.99-0.38-19.99-0.11-29.98c0.15-5.59,0.75-11.31,2.22-16.68c1.48-5.42,5.77-7.84,10.94-7.76c5.54,0.08,9.64,2.66,11.03,8.31
		c1.3,5.27,1.75,10.8,2.06,16.25c0.73,12.86,7.78,21.97,20.02,22.88c26.97,1.99,35.08-7.98,34.21-28.85
		c-0.46-10.98-0.61-21.98-1.14-32.96c-0.16-3.39,0.43-5.87,3.26-8.19c3.03-2.49,5.79-5.68,3.72-10.27
		c-9.04-0.41-15.49,4-17.63,12.35c-0.86,3.35-1.27,6.9-1.32,10.36c-0.12,8.66,0.33,17.33,0.07,25.98
		c-0.23,7.56-5.1,13.06-11.72,14.2c-7.75,1.33-14.57-2.08-17.2-9.51c-1.46-4.14-1.85-8.74-2.18-13.17
		c-0.61-8.3-2.35-16.14-10.04-20.64c-10.38-6.07-21.34-5.79-32.09-0.87c-9.6,4.39-10.63,13.26-10.84,22.37
		c-0.34,15.49-0.63,30.97-1.08,46.46c-0.03,1.19-1.15,2.34-1.77,3.51c-0.72-1.08-2.1-2.17-2.07-3.23
		c0.52-18.97,0.79-37.97,2.18-56.88c0.32-4.38,3.66-9.56,7.18-12.48c11.06-9.17,23.98-8.94,36.82-4.32c8.3,2.99,13,9.68,14.65,18.24
		c0.78,4.06,0.8,8.26,1.13,12.4c0.72,9.14,5.56,14.61,12.74,14.39c7.13-0.22,10.66-5.41,10.48-15.2c-0.15-7.99-0.52-16-0.17-23.98
		C211.53,20.46,214.27,11.73,224.53,7.49z M108.9,26.35c-9.67-2-18.89-1.1-27.89,1.79c-10.07,3.24-15.77,10.12-16.36,20.9
		c-0.13,2.33-0.03,4.75-0.65,6.95c-1.12,3.96-2.15,8.12-4.24,11.58c-3.99,6.63-11.88,9.37-19.12,7.45
		c-6.59-1.75-11.3-7.91-11.65-15.76c-0.23-5.15,0.19-10.33,0.03-15.49c-0.17-5.14-0.3-10.35-1.17-15.4
		c-1.13-6.55-4.44-12.07-11.1-14.22c-2.96-0.96-8.48-1.59-9.23-0.29c-2.14,3.7,1.79,6.27,4.55,8.2c2.74,1.91,3.27,4.08,3.14,7.17
		c-0.51,12.15-0.99,24.31-1.05,36.47c-0.05,9.87,3.29,18.06,13.44,21.74c10.75,3.89,21.79,4.75,32.94,2.27
		c7.9-1.76,11.65-6.6,12.36-14.85c0.33-3.82,0.59-7.64,1.13-11.43c1.93-13.59,10.71-20.88,24.44-20.37c1.61,0.06,3.22,0.27,4.6,0.39
		C105.02,37.73,106.88,32.27,108.9,26.35z M13.94,7.27c-0.12,0.49-0.25,0.98-0.37,1.48c14.69,3.43,18.84,14.28,19.39,27.38
		c0.31,7.15-0.11,14.32,0,21.48c0.12,7.78,3.55,12.43,9.79,13.75c6.25,1.32,12.84-2.22,15.35-9.13c1.5-4.14,2.1-8.71,2.48-13.14
		c1.12-12.97,7.49-21.22,20.02-25.06c9.22-2.82,18.62-3.36,28.17-2c1.27,0.18,3.07,0,3.94-0.78c5.13-4.6,10.05-9.43,15.31-14.44
		c-19.58-1.97-39.18-1.72-58.07,5.41C55.74,17.59,48.13,28,47.79,43.47c-0.03,1.45-1.39,2.87-2.13,4.3
		c-0.6-1.53-1.68-3.04-1.72-4.58c-0.19-7.16,0.04-14.33-0.12-21.48c-0.16-7.28-4-13.38-10.22-14.24C27.15,6.58,20.5,7.27,13.94,7.27
		z M24.54,211.49c1.15,0.39,1.9,0.68,2.68,0.91c22.1,6.61,31.12,21.17,27.13,43.81c-1.04,5.93-0.82,6.19,6.28,7.36
		c9.35-31.54-8.05-54.21-34.2-58.23C25.82,207.3,25.21,209.3,24.54,211.49z M226.85,205.01c-29.58,5.81-42.8,30.93-33.6,59.07
		c2.25-0.89,4.48-1.78,6.61-2.62c-4.48-22.99-0.63-42.25,29.18-50.26C228.33,209.19,227.63,207.21,226.85,205.01z M230.22,216.05
		c-24.77,3.55-31.93,23.5-26.01,42.73c6.32-2.25,6.32-2.25,5.69-8.4c-1.57-15.15,4.37-23.56,18.83-26.66
		c0.76-0.16,1.47-0.54,2.47-0.92C230.86,220.52,230.56,218.45,230.22,216.05z M22.24,222.83c1.03,0.39,1.63,0.7,2.26,0.85
		c14.69,3.35,20.91,12.32,18.77,27.1c-0.83,5.73-0.28,6.42,6.31,7.99c6.35-24.27-6.33-40.31-26.06-42.52
		c-0.18,0.57-0.45,1.17-0.56,1.79C22.69,219.49,22.51,220.96,22.24,222.83z M230.85,227.99c-13.16,0.56-19.6,10.46-16.11,24.8
		C223.06,246.29,228.84,238.68,230.85,227.99z M22.74,227.79c1.71,10.95,7.77,18.31,15.8,24.91
		C42.16,238.79,36.18,229.24,22.74,227.79z M118.69,121.23c-2.61-1.9-4.14-3.89-5.46-3.75c-1.44,0.14-2.68,2.25-4.01,3.49
		c1.25,1.31,2.38,3.46,3.8,3.67C114.35,124.84,115.98,122.97,118.69,121.23z M126.85,116.59c-1.74,2.61-3.65,4.21-3.48,5.55
		c0.17,1.38,2.39,3.53,3.65,3.49c1.3-0.04,3.43-2.23,3.55-3.62C130.68,120.66,128.7,119.13,126.85,116.59z M120.52,126.45
		c-1.96,2.52-3.99,3.99-3.91,5.34c0.08,1.41,2.18,2.71,3.4,4.05c1.33-1.21,3.51-2.28,3.74-3.67
		C123.97,130.83,122.16,129.17,120.52,126.45z M140.66,115.42c-1.73,2.7-3.52,4.25-3.37,5.6c0.15,1.39,2.17,2.59,3.37,3.87
		c1.25-1.27,3.35-2.43,3.51-3.82C144.32,119.73,142.47,118.16,140.66,115.42z M132.59,142.24c-2.79-1.66-4.44-3.42-5.78-3.21
		c-1.39,0.22-2.47,2.35-3.69,3.65c1.34,1.17,2.62,3.18,4.03,3.28C128.5,146.04,129.98,144.14,132.59,142.24z M133.31,137.68
		c1.9-2.65,3.78-4.13,3.68-5.46c-0.1-1.42-2.07-2.7-3.23-4.05c-1.3,1.21-3.43,2.28-3.66,3.67
		C129.88,133.17,131.64,134.83,133.31,137.68z"/>
	<path class="st0" d="M225.43,200.82c-14.42,3.57-26.34,10.45-33.6,23.45c-7.26,12.99-6.17,26.9-3.06,41.64
		c-41.48,9.85-82.48,9.77-124.03,0.09c3.11-14.71,4.21-28.63-2.98-41.63c-7.23-13.07-19.3-19.77-33.57-23.51
		c7.85-21,17.31-40.69,33.08-56.59c11.55-11.64,26.94-13.67,38.57-5.73c13.78,9.41,14.71,30.53,1.79,41.16
		c-5.9,4.86-12.68,5.61-19.8,3.73c-3.03-0.8-5.82-2.46-8.81-3.42c-1.28-0.41-2.82-0.02-4.24,0.01c0.76,1.14,1.26,2.66,2.31,3.34
		c9.94,6.5,23.96,6.55,32.02,0.27c9.63-7.49,13.96-21.43,10.35-33.28c-3.33-10.92-14.6-19.79-25.86-20.51
		c-10.03-0.64-18.57,2.97-26.33,8.93c-1.29,0.99-2.51,2.07-4.04,3.34c8.67-21.72,28.8-52.9,45.05-54.85
		c2.74,8.74-3.61,19.61,6.03,26.68c-4.85,7.47-4.39,9.69,2.98,14.84c0.13,0.09,0.44,0.15,0.44,0.19c-0.96,6.48,5.44,9.08,7.45,14.06
		c1.99,4.93,4.2,9.67,4.35,15.14c0.03,1.12,1.18,2.43,2.15,3.24c0.71,0.6,1.98,0.53,3,0.76c0.04-1.03,0.35-2.15,0.07-3.09
		c-0.46-1.54-1.93-3.04-1.8-4.44c0.16-1.63,1.45-3.25,2.52-4.67c0.55-0.72,2.07-0.78,2.5-1.51c3.52-6.08,6.88-12.24,11.1-19.83
		c6.39-3.21,7.58-7.53,2.17-14.39c9.81-6.78,5.14-17.55,7.15-26.94c7.88,2.21,13.52,7.31,18.53,13.12
		c10.73,12.44,18.7,26.64,25.53,41.82c-1.12-0.94-2.26-1.87-3.37-2.82c-13.58-11.68-30.74-12.84-43.52-2.93
		c-12.19,9.46-14.67,28-5.45,40.84c8.72,12.15,25.56,14.63,38.77,5.61c0.89-0.61,1.27-1.98,1.89-2.99c-1.31-0.13-2.75-0.68-3.9-0.31
		c-3.94,1.27-7.66,3.44-11.66,4.22c-9.92,1.92-18.76-2.66-23.35-11.45c-5.19-9.92-4.18-22.16,2.69-29.45
		c8.06-8.56,17.92-11.78,29.02-7.44c5.59,2.19,11.31,5.42,15.45,9.66C208.25,160.86,217.26,180.33,225.43,200.82z M183.84,214.98
		c4.27,0.08,8.02-3.55,8.03-7.79c0.01-4.22-3.75-7.94-7.97-7.89c-4.03,0.05-7.62,3.56-7.78,7.58
		C175.96,211.12,179.56,214.9,183.84,214.98z M80.79,220.04c-4.21,0.07-7.7,3.46-7.73,7.52c-0.03,4.34,3.54,7.82,7.98,7.76
		c4.4-0.06,7.94-3.72,7.75-8.01C88.61,223.28,84.98,219.98,80.79,220.04z M59.05,193.97c0.08-4.38-3.38-7.94-7.74-7.97
		c-4.32-0.02-7.93,3.59-7.88,7.88c0.05,4.12,3.41,7.57,7.55,7.76C55.25,201.84,58.98,198.29,59.05,193.97z M69.36,199.31
		c-4.31,0.02-7.7,3.66-7.57,8.12c0.12,4.18,3.54,7.57,7.63,7.56c4.24-0.01,7.77-3.76,7.63-8.1
		C76.91,202.79,73.36,199.3,69.36,199.31z M202.09,186.01c-4.3,0.05-7.86,3.78-7.7,8.08c0.15,4.1,3.7,7.56,7.77,7.56
		c4.16,0.01,7.9-3.93,7.71-8.13C209.68,189.43,206.09,185.96,202.09,186.01z M177.69,251.59c0.08-4.15-3.2-7.61-7.39-7.77
		c-4.41-0.18-8.02,3.2-8.1,7.58c-0.07,4.13,3.24,7.62,7.4,7.79C173.99,259.37,177.61,255.97,177.69,251.59z M83.55,259.2
		c4.29-0.06,7.53-3.3,7.59-7.59c0.06-4.5-3.33-7.86-7.87-7.8c-4.31,0.05-7.52,3.26-7.58,7.58C75.64,255.89,79.02,259.26,83.55,259.2
		z M172.35,220.04c-4.27,0.05-7.52,3.35-7.49,7.62c0.02,4.3,3.24,7.6,7.45,7.66c4.42,0.06,7.86-3.42,7.77-7.86
		C179.99,223.3,176.54,219.99,172.35,220.04z"/>
	<path class="st0" d="M224.53,7.49c-10.26,4.23-13,12.97-13.43,22.7c-0.35,7.97,0.03,15.98,0.17,23.98
		c0.18,9.8-3.35,14.98-10.48,15.2c-7.18,0.22-12.02-5.25-12.74-14.39c-0.33-4.14-0.35-8.35-1.13-12.4
		c-1.65-8.56-6.35-15.26-14.65-18.24c-12.84-4.62-25.76-4.85-36.82,4.32c-3.52,2.92-6.86,8.1-7.18,12.48
		c-1.38,18.91-1.66,37.91-2.18,56.88c-0.03,1.06,1.35,2.15,2.07,3.23c0.61-1.17,1.73-2.32,1.77-3.51
		c0.45-15.48,0.74-30.97,1.08-46.46c0.2-9.11,1.24-17.97,10.84-22.37c10.75-4.92,21.71-5.2,32.09,0.87
		c7.69,4.5,9.43,12.35,10.04,20.64c0.33,4.43,0.72,9.03,2.18,13.17c2.63,7.43,9.45,10.85,17.2,9.51c6.62-1.14,11.5-6.64,11.72-14.2
		c0.26-8.65-0.19-17.32-0.07-25.98c0.05-3.47,0.46-7.01,1.32-10.36c2.14-8.34,8.6-12.76,17.63-12.35c2.07,4.58-0.7,7.78-3.72,10.27
		c-2.83,2.33-3.43,4.8-3.26,8.19c0.52,10.98,0.68,21.97,1.14,32.96c0.87,20.87-7.24,30.85-34.21,28.85
		c-12.24-0.9-19.29-10.02-20.02-22.88c-0.31-5.45-0.76-10.98-2.06-16.25c-1.39-5.66-5.49-8.23-11.03-8.31
		c-5.17-0.08-9.45,2.34-10.94,7.76c-1.47,5.37-2.07,11.09-2.22,16.68c-0.28,9.98,0.24,19.99,0.11,29.98
		c-0.16,11.79-3.36,15.73-15.16,16.53c-6.44,0.43-13.2-0.68-19.46-2.39c-2.61-0.71-6.05-4.74-6.12-7.34
		c-0.46-18.8-1.16-37.68,0.15-56.4c1.69-23.99,18.72-40.13,42.73-41.54c9.7-0.57,19.67,0.19,29.26,1.82
		c11,1.88,15.4,8.1,15.85,19.24c0.17,4.16-0.06,8.34,0.2,12.49c0.07,1.19,1.24,2.3,1.91,3.45c0.67-1.09,1.88-2.16,1.92-3.28
		c0.21-4.99,0.08-9.99,0.09-14.99c0-13.5,5.25-18.76,18.76-18.82c2.1-0.01,4.19,0,6.29,0C224.29,6.64,224.41,7.07,224.53,7.49z"/>
	<path class="st0" d="M108.9,26.35c-2.02,5.92-3.88,11.38-5.83,17.1c-1.37-0.12-2.98-0.33-4.6-0.39
		c-13.73-0.51-22.51,6.78-24.44,20.37c-0.54,3.79-0.8,7.62-1.13,11.43c-0.71,8.26-4.46,13.09-12.36,14.85
		c-11.15,2.49-22.19,1.63-32.94-2.27c-10.16-3.68-13.5-11.87-13.44-21.74c0.06-12.16,0.54-24.32,1.05-36.47
		c0.13-3.09-0.4-5.26-3.14-7.17c-2.76-1.92-6.69-4.5-4.55-8.2c0.75-1.3,6.28-0.67,9.23,0.29c6.67,2.16,9.97,7.68,11.1,14.22
		c0.87,5.05,1.01,10.25,1.17,15.4c0.17,5.16-0.25,10.34-0.03,15.49c0.34,7.85,5.06,14.01,11.65,15.76
		c7.24,1.92,15.13-0.81,19.12-7.45c2.08-3.47,3.11-7.63,4.24-11.58c0.63-2.2,0.52-4.62,0.65-6.95c0.59-10.78,6.29-17.67,16.36-20.9
		C90.02,25.25,99.23,24.35,108.9,26.35z"/>
	<path class="st0" d="M13.94,7.27c6.56,0,13.21-0.69,19.65,0.2c6.23,0.86,10.06,6.96,10.22,14.24c0.16,7.16-0.07,14.33,0.12,21.48
		c0.04,1.54,1.12,3.05,1.72,4.58c0.74-1.43,2.1-2.85,2.13-4.3C48.13,28,55.74,17.59,69.94,12.23c18.9-7.13,38.49-7.38,58.07-5.41
		c-5.26,5.01-10.18,9.84-15.31,14.44c-0.87,0.78-2.66,0.96-3.94,0.78c-9.55-1.36-18.95-0.82-28.17,2
		c-12.53,3.84-18.9,12.09-20.02,25.06c-0.38,4.43-0.98,9-2.48,13.14c-2.51,6.9-9.1,10.45-15.35,9.13
		c-6.24-1.32-9.67-5.97-9.79-13.75c-0.11-7.16,0.3-14.33,0-21.48c-0.56-13.1-4.7-23.95-19.39-27.38
		C13.69,8.25,13.81,7.76,13.94,7.27z"/>
	<path class="st0" d="M24.54,211.49c0.67-2.19,1.28-4.19,1.88-6.14c26.15,4.02,43.55,26.68,34.2,58.23
		c-7.09-1.17-7.32-1.43-6.28-7.36c3.99-22.65-5.02-37.21-27.13-43.81C26.44,212.17,25.69,211.88,24.54,211.49z"/>
	<path class="st0" d="M226.85,205.01c0.78,2.2,1.48,4.18,2.19,6.19c-29.81,8-33.66,27.26-29.18,50.26
		c-2.13,0.85-4.36,1.73-6.61,2.62C184.06,235.94,197.28,210.81,226.85,205.01z"/>
	<path class="st0" d="M230.22,216.05c0.34,2.39,0.64,4.47,0.97,6.75c-1,0.38-1.71,0.76-2.47,0.92c-14.45,3.1-20.4,11.51-18.83,26.66
		c0.64,6.15,0.64,6.15-5.69,8.4C198.28,239.55,205.45,219.61,230.22,216.05z"/>
	<path class="st0" d="M22.24,222.83c0.27-1.88,0.46-3.34,0.71-4.8c0.11-0.62,0.37-1.22,0.56-1.79
		c19.73,2.21,32.41,18.25,26.06,42.52c-6.58-1.57-7.13-2.26-6.31-7.99c2.14-14.79-4.07-23.75-18.77-27.1
		C23.86,223.53,23.27,223.23,22.24,222.83z"/>
	<path class="st0" d="M230.85,227.99c-2.01,10.69-7.79,18.3-16.11,24.8C211.25,238.45,217.7,228.55,230.85,227.99z"/>
	<path class="st0" d="M22.74,227.79c13.44,1.45,19.42,11,15.8,24.91C30.51,246.11,24.45,238.74,22.74,227.79z"/>
	<path class="st0" d="M118.69,121.23c-2.71,1.74-4.34,3.61-5.66,3.41c-1.42-0.21-2.55-2.37-3.8-3.67c1.33-1.25,2.57-3.35,4.01-3.49
		C114.55,117.34,116.08,119.32,118.69,121.23z"/>
	<path class="st0" d="M126.85,116.59c1.85,2.54,3.83,4.07,3.72,5.42c-0.12,1.39-2.24,3.58-3.55,3.62c-1.26,0.04-3.48-2.1-3.65-3.49
		C123.2,120.8,125.1,119.2,126.85,116.59z"/>
	<path class="st0" d="M120.52,126.45c1.64,2.72,3.45,4.39,3.23,5.72c-0.23,1.39-2.41,2.46-3.74,3.67c-1.22-1.35-3.32-2.64-3.4-4.05
		C116.53,130.44,118.55,128.97,120.52,126.45z"/>
	<path class="st0" d="M140.66,115.42c1.81,2.74,3.66,4.31,3.51,5.65c-0.16,1.39-2.26,2.56-3.51,3.82c-1.2-1.28-3.22-2.48-3.37-3.87
		C137.15,119.67,138.93,118.12,140.66,115.42z"/>
	<path class="st0" d="M132.59,142.24c-2.62,1.9-4.1,3.8-5.44,3.71c-1.41-0.1-2.69-2.1-4.03-3.28c1.22-1.3,2.3-3.43,3.69-3.65
		C128.15,138.82,129.8,140.58,132.59,142.24z"/>
	<path class="st0" d="M133.31,137.68c-1.67-2.85-3.43-4.5-3.21-5.83c0.23-1.39,2.36-2.46,3.66-3.67c1.15,1.34,3.12,2.63,3.23,4.05
		C137.09,133.55,135.21,135.02,133.31,137.68z"/>
	<path d="M183.84,214.98c-4.28-0.08-7.87-3.86-7.71-8.1c0.15-4.02,3.75-7.53,7.78-7.58c4.22-0.05,7.98,3.67,7.97,7.89
		C191.85,211.43,188.11,215.06,183.84,214.98z M189.48,206.98c-2.65-1.69-4.27-3.55-5.59-3.35c-1.39,0.21-2.49,2.37-3.71,3.68
		c1.32,1.2,2.58,3.25,3.98,3.35C185.48,210.76,186.97,208.82,189.48,206.98z"/>
	<path d="M80.79,220.04c4.18-0.06,7.81,3.23,8,7.27c0.2,4.29-3.35,7.96-7.75,8.01c-4.44,0.06-8.01-3.42-7.98-7.76
		C73.09,223.5,76.58,220.11,80.79,220.04z M86.56,227.83c-2.71-1.88-4.14-3.63-5.61-3.66c-1.24-0.03-3.67,2.14-3.53,2.98
		c0.26,1.51,1.91,3.61,3.27,3.86C82.01,231.26,83.7,229.49,86.56,227.83z"/>
	<path d="M59.05,193.97c-0.07,4.32-3.8,7.86-8.07,7.67c-4.14-0.19-7.51-3.64-7.55-7.76c-0.05-4.3,3.56-7.9,7.88-7.88
		C55.67,186.03,59.13,189.59,59.05,193.97z M51.07,188.18c-1.72,2.86-3.4,4.42-3.31,5.87c0.08,1.24,2.42,3.46,3.35,3.27
		c1.48-0.31,3.47-2.15,3.64-3.55C54.91,192.48,52.98,190.92,51.07,188.18z"/>
	<path d="M69.36,199.31c4.01-0.02,7.55,3.48,7.68,7.58c0.14,4.34-3.39,8.09-7.63,8.1c-4.09,0.01-7.5-3.37-7.63-7.56
		C61.65,202.97,65.05,199.33,69.36,199.31z M74.56,207.41c-2.33-1.9-3.8-3.94-4.85-3.75c-1.46,0.28-3.29,2.06-3.63,3.51
		c-0.22,0.95,1.89,3.41,3.03,3.46C70.54,210.7,72.06,209,74.56,207.41z"/>
	<path d="M202.09,186.01c4.01-0.05,7.59,3.42,7.77,7.52c0.19,4.19-3.56,8.13-7.71,8.13c-4.07-0.01-7.62-3.47-7.77-7.56
		C194.23,189.79,197.79,186.06,202.09,186.01z M202.49,199.38c1.58-2.84,3.18-4.43,3.07-5.9c-0.09-1.22-2.48-3.4-3.32-3.17
		c-1.48,0.4-3.44,2.23-3.55,3.6C198.59,195.24,200.55,196.74,202.49,199.38z"/>
	<path d="M177.69,251.59c-0.08,4.38-3.7,7.78-8.08,7.59c-4.16-0.17-7.47-3.66-7.4-7.79c0.08-4.38,3.69-7.75,8.1-7.58
		C174.48,243.99,177.76,247.44,177.69,251.59z M170.05,256.73c1.72-2.49,3.62-4.1,3.36-5.15c-0.37-1.46-2.24-3.18-3.73-3.47
		c-0.89-0.17-3.21,2.17-3.2,3.36C166.5,252.91,168.31,254.33,170.05,256.73z"/>
	<path d="M83.55,259.2c-4.53,0.07-7.91-3.3-7.86-7.81c0.06-4.32,3.26-7.53,7.58-7.58c4.54-0.06,7.93,3.3,7.87,7.8
		C91.08,255.9,87.84,259.13,83.55,259.2z M89.11,251.5c-2.9-1.82-4.38-3.48-5.81-3.43c-1.22,0.04-3.46,2.23-3.3,3.13
		c0.26,1.46,1.96,3.47,3.32,3.7C84.6,255.11,86.21,253.32,89.11,251.5z"/>
	<path d="M172.35,220.04c4.2-0.05,7.64,3.26,7.73,7.42c0.09,4.44-3.35,7.92-7.77,7.86c-4.21-0.06-7.43-3.36-7.45-7.66
		C164.83,223.39,168.08,220.09,172.35,220.04z M172.6,222.2c-1.82,2.55-3.67,4.04-3.47,5.15c0.27,1.47,2.15,2.64,3.33,3.94
		c1.18-1.15,3.25-2.25,3.31-3.46C175.86,226.4,174.22,224.87,172.6,222.2z"/>
	<path class="st0" d="M189.48,206.98c-2.51,1.85-3.99,3.79-5.32,3.69c-1.4-0.11-2.66-2.15-3.98-3.35c1.23-1.31,2.32-3.48,3.71-3.68
		C185.2,203.43,186.83,205.28,189.48,206.98z"/>
	<path class="st0" d="M86.56,227.83c-2.86,1.66-4.55,3.43-5.87,3.19c-1.36-0.25-3.01-2.35-3.27-3.86c-0.15-0.84,2.29-3.01,3.53-2.98
		C82.42,224.21,83.85,225.96,86.56,227.83z"/>
	<path class="st0" d="M51.07,188.18c1.91,2.74,3.84,4.3,3.68,5.59c-0.17,1.4-2.17,3.24-3.64,3.55c-0.93,0.19-3.27-2.03-3.35-3.27
		C47.66,192.6,49.34,191.04,51.07,188.18z"/>
	<path class="st0" d="M74.56,207.41c-2.5,1.58-4.01,3.29-5.45,3.22c-1.14-0.05-3.25-2.51-3.03-3.46c0.34-1.45,2.17-3.24,3.63-3.51
		C70.75,203.47,72.22,205.51,74.56,207.41z"/>
	<path class="st0" d="M202.49,199.38c-1.95-2.64-3.91-4.14-3.8-5.47c0.11-1.37,2.07-3.2,3.55-3.6c0.84-0.23,3.23,1.96,3.32,3.17
		C205.67,194.95,204.08,196.54,202.49,199.38z"/>
	<path class="st0" d="M170.05,256.73c-1.74-2.4-3.55-3.82-3.57-5.26c-0.02-1.19,2.3-3.54,3.2-3.36c1.49,0.29,3.36,2.01,3.73,3.47
		C173.68,252.63,171.77,254.24,170.05,256.73z"/>
	<path class="st0" d="M89.11,251.5c-2.9,1.81-4.51,3.61-5.79,3.39c-1.36-0.23-3.06-2.24-3.32-3.7c-0.16-0.89,2.09-3.09,3.3-3.13
		C84.73,248.02,86.21,249.68,89.11,251.5z"/>
	<path class="st0" d="M172.6,222.2c1.61,2.67,3.26,4.2,3.18,5.63c-0.07,1.21-2.13,2.31-3.31,3.46c-1.19-1.3-3.06-2.47-3.33-3.94
		C168.93,226.24,170.78,224.76,172.6,222.2z"/>
</g>
</svg>
